<?xml  version="1.0" encoding="UTF-8"?>
<!DOCTYPE svg PUBLIC "-//W3C//DTD SVG 1.0//EN" "http://www.w3.org/TR/2001/REC-SVG-20010904/DTD/svg10.dtd" >
<svg xmlns="http://www.w3.org/2000/svg" >
<metadata>
<version>1.0</version>
<id><![CDATA[Gill Sans W04 Heavy]]></id>
<vendor>Monotype Imaging Inc.</vendor>
<credits>
<name>Fonts.com WebFonts</name>
<URL>http://webfonts.fonts.com</URL>
<role>Home of the Web fonts</role>
</credits>
<license>
<URL>http://webfonts.fonts.com/Legal</URL>
</license>
<copyright><![CDATA[Font software Copyright 1990, 1991, 1998 Adobe Systems Incorporated. Typeface designs Copyright The Monotype Corporation. All rights reserved.]]></copyright>
<trademark><![CDATA["Gill Sans" is a registered trademark of The Monotype Corporation in the United States and/or other countries. "MT" is a trademark of Monotype Imaging, Inc. Registered in U.S. Patent and Trademark Office and may be registered in certain other jurisdictions.]]></trademark>
<licensee>
<name></name>
</licensee>
</metadata>
<defs >
<font horiz-adv-x="604" id="e5167240-d8cc-48ea-88ec-78e294ad39af">
<font-face font-family="" panose-1="2 11 9 2 2 1 4 2 2 3" ascent="682" descent="-318" units-per-em="1000" alphabetic="0">
</font-face>
<missing-glyph horiz-adv-x="500" d="M12 665H487V0H12V665ZM250 375L411 618H88L250 375ZM60 91Q60 91 67 101T85 128T110 167T140 212Q175 266 221 333L60 575V91ZM278 333L440 90V575L278 333ZM250 290L88 48H411L250 290Z"  />

<glyph unicode="&#xA;" />
<glyph unicode="&#xD;" horiz-adv-x="297" />
<glyph unicode=" " horiz-adv-x="297" />
<glyph unicode="!" horiz-adv-x="302" d="M152 223Q135 224 127 229T113 247Q103 267 92 303T70 380T53 463T46 536Q46 579 56 608T83 654T117 678T152 686Q168 686 186 679T220 654T246 608T256 536Q256 505 250 464T233 381T212 303T191 247Q185 235 177 230T152 223ZM152 201Q174 201 193 193T226 170T248 137T256 96Q256 74 248 55T226 22T193 -1T152 -9Q131 -9 112 -1T78 21T55 55T46 96Q46 118 54 137T77 170T111 193T152 201Z"  />
<glyph unicode="&quot;" horiz-adv-x="500" d="M222 677V559L190 415H56L24 559V677H222ZM476 677V559L445 415H310L278 559V677H476Z"  />
<glyph unicode="#" horiz-adv-x="667" d="M222 693H327L289 511H450L488 693H594L555 511H631V405H533L505 272H631V166H483L445 -16H339L378 166H217L179 -16H73L112 166H36V272H134L162 405H36V511H184L222 693ZM428 405H267L239 272H400L428 405Z"  />
<glyph unicode="$" horiz-adv-x="625" d="M268 -94V-9Q224 -4 168 14T61 65V204Q106 168 158 142T268 108V271Q196 289 153 313T88 365T59 419T52 471Q52 492 60 522T91 581T156 633T268 665V708H343V665Q398 657 442 640T538 591V446Q527 455 508 468T464 496T408 523T343 544V410Q384 396 423 378T494 334T545 273T564 189Q564 160 553 128T516 68T448 18T343 -9V-94H268ZM343 107Q353 109 366 113T391 124T411 144T419 176Q419 203 401 219T343 252V107ZM268 551Q241 549 219 536T196 494Q196 489 198 481T207 463T229 444T268 429V551Z"  />
<glyph unicode="%" horiz-adv-x="802" d="M218 453Q245 453 264 472T284 518Q284 545 265 564T218 584Q191 584 172 565T153 518Q153 491 172 472T218 453ZM218 686Q253 686 283 673T337 638T373 585T386 519Q386 484 373 454T337 400T284 364T218 351Q183 351 153 364T100 400T64 453T51 519Q51 554 64 584T99 637T152 673T218 686ZM107 -18L596 686H695L207 -18H107ZM583 317Q618 317 648 304T702 269T738 216T751 150Q751 115 738 85T702 31T649 -5T583 -18Q548 -18 518 -5T465 31T429 84T416 150Q416 185 429 215T464 268T517 304T583 317ZM583 84Q610 84 629 103T649 149Q649 176 630 195T583 215Q556 215 537 196T518 149Q518 122 537 103T583 84Z"  />
<glyph unicode="&amp;" horiz-adv-x="823" d="M762 348Q749 323 733 297T697 245T658 196T616 153L762 0H532L489 45Q441 13 386 2T283 -9Q221 -9 177 6T103 45T60 101T46 165Q46 190 52 212T76 255T122 301T196 356Q158 395 140 429T121 503Q121 539 136 572T180 630T253 671T352 686Q407 686 447 669T513 627T551 573T564 519Q564 465 528 421T433 348L524 251Q550 274 566 296T599 348H762ZM353 431Q360 434 372 440T397 457T419 482T428 515Q428 524 425 534T413 554T391 568T358 574Q339 574 326 569T306 555T295 538T291 520Q291 500 311 477T353 431ZM281 265Q240 239 228 218T216 183Q216 174 221 161T236 137T264 118T306 110Q341 110 365 121T400 140L281 265Z"  />
<glyph unicode="&apos;" horiz-adv-x="278" d="M238 677V559L207 415H72L40 559V677H238Z"  />
<glyph unicode="(" horiz-adv-x="385" d="M420 686Q394 658 360 618T295 521T243 392T222 225Q222 130 243 57T294 -71T359 -167T420 -235H291Q267 -217 225 -179T140 -82T68 52T37 223Q37 286 51 341T88 443T139 528T195 597T249 650T291 686H420Z"  />
<glyph unicode=")" horiz-adv-x="385" d="M-35 -235Q-9 -207 25 -167T90 -70T142 59T163 226Q163 321 142 394T91 522T26 617T-35 686H94Q110 674 135 653T188 602T245 534T296 448T333 346T348 228Q348 165 334 110T297 8T246 -77T190 -146T136 -199T94 -235H-35Z"  />
<glyph unicode="*" horiz-adv-x="563" d="M220 612Q212 634 211 641T209 653Q209 664 215 670T233 680T257 685T284 686Q289 686 300 686T324 682T345 673T355 655Q355 646 351 634T345 616L301 489Q309 485 312 483T323 474L428 555Q447 569 452 573T467 577Q471 577 476 576T487 570T499 555T513 526Q515 520 520 503T525 468Q525 445 509 441T466 437H335Q334 428 333 424T327 411L432 337Q461 317 466 309T471 296Q471 283 458 268T428 241T394 220T370 212Q357 212 350 225T334 264L296 387Q294 387 290 386T282 385Q278 385 274 386T268 387L227 263Q219 239 213 227T191 214Q180 214 163 222T130 244T102 271T90 296Q90 303 94 309T123 333L235 411Q231 419 230 423T227 437L93 436Q84 436 75 436T57 440T43 449T38 468Q38 481 42 500T54 536T70 566T90 579Q101 579 108 575T132 558L241 474Q247 481 250 483T261 489L220 612Z"  />
<glyph unicode="+" horiz-adv-x="667" d="M273 399V613H394V399H608V278H394V64H273V278H59V399H273Z"  />
<glyph unicode="&#x2c;" horiz-adv-x="302" d="M35 -137Q60 -128 75 -112T99 -77T110 -38T112 3Q72 14 54 39T35 99Q35 119 43 137T64 170T97 192T139 201Q172 201 196 187T235 151T257 101T265 47Q265 15 253 -19T214 -83T142 -136T35 -168V-137Z"  />
<glyph unicode="-" horiz-adv-x="490" d="M405 333V170H85V333H405Z"  />
<glyph unicode="." horiz-adv-x="281" d="M142 201Q164 201 183 193T216 170T238 137T246 96Q246 74 238 55T216 22T183 -1T142 -9Q121 -9 102 -1T68 21T45 55T36 96Q36 118 44 137T67 170T101 193T142 201Z"  />
<glyph unicode="/" horiz-adv-x="529" d="M514 686L146 -9H15L383 686H514Z"  />
<glyph unicode="0" horiz-adv-x="594" d="M33 338Q33 429 55 495T113 603T197 666T297 686Q349 686 396 666T480 604T539 495T561 338Q561 246 539 181T481 73T397 11T297 -9Q245 -9 198 11T114 73T55 180T33 338ZM226 338Q226 304 227 268T235 203T256 154T297 135Q324 135 338 154T359 202T367 268T368 338Q368 367 367 402T359 469T338 522T297 543Q270 543 256 522T235 470T227 403T226 338Z"  />
<glyph unicode="1" horiz-adv-x="594" d="M204 0V677H389V0H204Z"  />
<glyph unicode="2" horiz-adv-x="594" d="M555 0H41V13Q78 48 119 95T198 188Q220 214 242 242T283 300T312 362T324 429Q324 477 297 505T228 534Q177 534 136 508T63 448V608Q79 618 100 631T149 657T209 677T282 686Q329 686 369 672T440 631T487 565T504 477Q504 441 495 409T474 351T448 305T426 271Q385 210 336 152H555V0Z"  />
<glyph unicode="3" horiz-adv-x="594" d="M72 192Q84 181 101 170T138 148T180 132T227 125Q251 125 269 132T300 150T318 176T324 204Q324 242 295 267T211 294H189V403H215Q243 403 262 411T292 432T308 458T313 482Q313 497 307 511T290 536T263 553T228 560Q192 560 156 547T90 513V643Q125 657 170 671T275 686Q337 686 380 667T451 620T490 561T502 505Q502 482 494 459T474 416T445 380T410 354Q424 346 442 334T475 303T502 255T513 188Q513 132 491 95T434 34T361 1T289 -9Q262 -9 232 -5T173 5T118 21T72 40V192Z"  />
<glyph unicode="4" horiz-adv-x="594" d="M298 0V146H23V275L333 677H478V262H558V146H478V0H298ZM298 262V479L130 262H298Z"  />
<glyph unicode="5" horiz-adv-x="594" d="M492 534H250V418Q259 419 269 420T293 421Q346 421 388 404T459 358T504 291T520 212Q520 169 506 129T461 59T386 10T279 -9Q219 -9 162 6T54 56V202Q67 193 89 181T137 157T190 139T241 131Q269 131 286 140T314 161T327 187T331 211Q331 226 326 242T306 272T266 293T202 302Q162 302 138 295T100 282V677H492V534Z"  />
<glyph unicode="6" horiz-adv-x="594" d="M470 632Q420 590 375 544T298 449Q316 454 343 454Q387 454 427 439T497 395T544 325T562 234Q562 187 544 143T491 66T409 12T301 -9Q234 -9 184 13T101 73T50 159T33 259Q33 317 52 375T107 488T192 593T303 687L470 632ZM386 237Q386 262 378 279T358 307T330 323T299 328Q273 328 256 319T228 295T213 265T209 237Q209 198 233 171T296 143Q321 143 338 153T366 177T381 207T386 237Z"  />
<glyph unicode="7" horiz-adv-x="594" d="M112 41L319 527H45V677H558V657L269 -9L112 41Z"  />
<glyph unicode="8" horiz-adv-x="594" d="M142 349Q106 371 81 404T56 494Q56 521 67 554T106 616T180 666T297 686Q369 686 415 666T489 617T527 554T538 494Q538 437 514 405T452 349Q501 324 531 279T561 182Q561 164 553 132T517 68T437 14T297 -9Q208 -9 156 14T76 68T41 131T33 182Q33 234 62 279T142 349ZM297 391Q323 391 345 415T367 481Q367 493 364 508T354 538T333 562T299 572Q278 572 264 563T242 540T231 510T227 481Q227 440 249 416T297 391ZM298 99Q315 99 331 106T359 125T379 157T387 200Q387 225 379 243T357 274T328 293T297 300Q281 300 265 294T236 275T215 243T207 200Q207 173 215 154T237 123T266 105T298 99Z"  />
<glyph unicode="9" horiz-adv-x="594" d="M124 45Q174 87 219 133T296 228Q278 223 251 223Q207 223 167 238T97 282T50 352T32 443Q32 490 50 534T103 611T185 665T293 686Q360 686 410 663T493 603T544 517T561 418Q561 359 542 301T487 189T402 84T291 -10L124 45ZM208 440Q208 415 216 398T236 370T264 354T295 349Q321 349 338 358T366 382T381 412T385 440Q385 479 361 506T298 534Q273 534 256 524T228 500T213 470T208 440Z"  />
<glyph unicode=":" horiz-adv-x="281" d="M141 506Q162 506 180 498T213 476T236 443T245 401Q245 379 237 360T214 326T181 304T140 295Q119 295 100 303T67 325T44 359T36 400Q36 424 45 443T68 477T102 498T141 506ZM142 201Q164 201 183 193T216 170T238 137T246 96Q246 74 238 55T216 22T183 -1T142 -9Q121 -9 102 -1T68 21T45 55T36 96Q36 118 44 137T67 170T101 193T142 201Z"  />
<glyph unicode=";" horiz-adv-x="302" d="M35 -137Q60 -128 75 -112T99 -77T110 -38T112 3Q72 14 54 39T35 99Q35 114 41 131T60 164T92 190T139 201Q172 201 196 187T235 151T257 101T265 47Q265 15 253 -19T214 -83T142 -136T35 -168V-137ZM141 506Q162 506 180 498T213 476T236 443T245 401Q245 379 237 360T214 326T181 304T140 295Q119 295 100 303T67 325T44 359T36 400Q36 424 45 443T68 477T102 498T141 506Z"  />
<glyph unicode="&lt;" horiz-adv-x="667" d="M59 284V393L608 621V492L228 339L608 186V56L59 284Z"  />
<glyph unicode="=" horiz-adv-x="667" d="M608 516V395H59V516H608ZM608 280V159H59V280H608Z"  />
<glyph unicode="&gt;" horiz-adv-x="667" d="M608 393V284L59 56V186L439 339L59 492V621L608 393Z"  />
<glyph unicode="?" horiz-adv-x="385" d="M82 671Q100 676 122 681T175 686Q222 686 256 673T311 640T343 595T354 544Q354 521 351 503T338 468T310 430T263 385Q249 373 236 356T213 320T198 285T192 254Q192 221 155 221Q140 221 131 227T119 241Q116 248 115 258T112 279T110 299T109 315Q109 330 111 345T117 373T124 394T128 406Q132 416 138 428T149 453T159 477T163 498Q163 504 161 512T153 529T134 542T102 548Q82 548 69 544T44 535H36L82 671ZM158 201Q180 201 199 193T232 170T254 137T262 96Q262 74 254 55T232 22T199 -1T158 -9Q137 -9 118 -1T84 21T61 55T52 96Q52 118 60 137T83 170T117 193T158 201Z"  />
<glyph unicode="@" horiz-adv-x="961" d="M954 -20Q924 -82 877 -123T774 -189T656 -224T530 -235Q477 -235 412 -226T277 -190Q211 -164 164 -121T87 -26T43 85T29 202Q29 290 58 376T147 532T300 643T521 686Q619 686 695 657T824 577T903 460T930 319Q930 252 907 190T841 79T741 1T614 -29Q590 -29 575 -25T549 -14T533 4T524 26Q518 20 508 11T481 -7T443 -22T393 -29Q354 -29 321 -15T263 25T224 90T210 177Q210 225 226 280T275 382T356 460T468 491Q478 491 493 490T527 482T563 462T596 426L607 479H734L662 135Q658 117 657 108T655 92Q655 84 657 79T663 72T670 70T674 69Q691 69 719 87T775 139T822 219T842 323Q842 363 827 411T775 500T676 570T519 598Q434 598 372 577T264 522T191 445T146 357T123 270T117 197Q117 138 136 77T203 -34T328 -115T522 -147Q605 -147 662 -133T758 -98T818 -56T852 -20H954ZM340 171Q340 139 347 118T366 84T392 65T420 59Q460 59 487 86T531 150T555 228T563 293Q563 298 562 316T552 354T527 389T480 405Q442 405 416 381T372 321T348 245T340 171Z"  />
<glyph unicode="A" horiz-adv-x="833" d="M270 137L214 0H5L304 677H530L828 0H619L564 137H270ZM517 255L418 502L318 255H517Z"  />
<glyph unicode="B" horiz-adv-x="749" d="M412 677Q477 677 523 665T599 631T642 580T656 518Q656 487 647 462T623 419T593 388T561 369Q592 357 618 341T663 304T692 255T703 192Q703 149 688 114T644 54T573 14T476 0H85V677H412ZM289 563V401H333Q365 401 389 404T431 415T456 440T465 482Q465 508 456 524T429 548T388 560T332 563H289ZM289 287V114H372Q498 114 498 200Q498 287 372 287H289Z"  />
<glyph unicode="C" horiz-adv-x="743" d="M691 51Q624 16 558 4T424 -9Q334 -9 263 16T143 87T67 197T41 339Q41 429 72 494T157 602T280 665T427 686Q470 686 508 681T580 668T640 651T688 635V455Q674 464 653 476T604 500T544 520T473 528Q429 528 389 515T318 477T268 417T249 336Q249 297 264 263T308 204T376 164T462 149Q503 149 538 157T602 176T653 200T691 222V51Z"  />
<glyph unicode="D" horiz-adv-x="822" d="M366 677Q430 677 477 670T559 650T619 623T663 593Q711 554 746 487T781 326Q781 266 768 222T735 145T693 92T654 57Q625 34 591 23T525 6T471 1T440 0H85V677H366ZM289 140H376Q403 140 437 145T502 170T552 228T573 335Q573 402 553 443T502 505T438 534T376 541H289V140Z"  />
<glyph unicode="E" horiz-adv-x="647" d="M595 136V0H85V677H587V541H289V417H573V281H289V136H595Z"  />
<glyph unicode="F" horiz-adv-x="622" d="M570 677V541H289V410H570V274H289V0H85V677H570Z"  />
<glyph unicode="G" horiz-adv-x="799" d="M710 477Q695 486 674 496T626 517T563 533T485 540Q413 540 367 519T295 466T259 399T249 337Q249 299 262 265T302 205T369 163T462 147Q488 147 508 150T545 157V237H453V373H723V48Q693 37 669 29T614 13Q576 4 528 -2T424 -9Q349 -9 280 11T158 74T73 182T41 340Q41 374 47 410T66 480T100 546T151 600Q187 628 223 645T295 671T366 683T435 686Q486 686 529 681T606 667T667 651T710 637V477Z"  />
<glyph unicode="H" horiz-adv-x="885" d="M289 264V0H85V677H289V428H596V677H800V0H596V264H289Z"  />
<glyph unicode="I" horiz-adv-x="376" d="M290 677V0H86V677H290Z"  />
<glyph unicode="J" horiz-adv-x="396" d="M310 677V84Q310 30 305 -23T276 -120T208 -190T81 -217Q55 -217 40 -215T8 -210L-23 -47Q3 -46 24 -45T60 -38T86 -21T101 10Q103 19 104 38T105 79T106 121T106 153V677H310Z"  />
<glyph unicode="K" horiz-adv-x="801" d="M289 677V374L534 677H756L504 360L797 0H548L289 317V0H85V677H289Z"  />
<glyph unicode="L" horiz-adv-x="633" d="M289 677V162H599V0H85V677H289Z"  />
<glyph unicode="M" horiz-adv-x="958" d="M85 677H270L478 423L687 677H872V0H668V392L484 165H468L283 392V0H85V677Z"  />
<glyph unicode="N" horiz-adv-x="905" d="M266 677L616 302V677H820V0H638L287 377V0H85V677H266Z"  />
<glyph unicode="O" horiz-adv-x="851" d="M809 339Q809 269 785 206T713 95T593 19T425 -9Q326 -9 254 21T134 99T64 210T41 339Q41 405 63 467T133 578T253 656T425 686Q522 686 594 658T714 581T785 471T809 339ZM249 339Q249 301 261 269T295 214T350 178T425 165Q467 165 500 178T555 214T589 269T601 339Q601 376 590 408T556 463T500 499T425 512Q341 512 295 464T249 339Z"  />
<glyph unicode="P" horiz-adv-x="699" d="M423 677Q494 677 541 657T618 605T659 536T671 464Q671 430 659 393T618 325T542 274T423 254H289V0H85V677H423ZM289 547V384H333Q369 384 394 387T434 399T456 423T463 463Q463 512 434 529T332 547H289Z"  />
<glyph unicode="Q" horiz-adv-x="851" d="M838 -49L695 -179Q607 -160 524 -128T362 -52Q332 -35 309 -20T264 16Q225 30 186 56T114 122T62 216T41 339Q41 405 63 467T133 578T253 656T425 686Q525 686 597 657T717 578T786 467T809 339Q809 274 791 223T744 132T676 64T596 19Q613 11 637 1T691 -18T756 -32T832 -38L838 -49ZM249 339Q249 301 261 269T295 214T350 178T425 165Q467 165 500 178T555 214T589 269T601 339Q601 376 590 408T556 463T500 499T425 512Q341 512 295 464T249 339Z"  />
<glyph unicode="R" horiz-adv-x="748" d="M432 677Q500 677 546 655T619 601T659 533T671 467Q671 424 658 394T626 345T589 314T560 298Q574 289 586 281T610 257T637 216T672 147L740 0H521L468 120Q445 171 427 200T390 243T354 260T312 264H289V0H85V677H432ZM289 547V384H333Q369 384 394 387T434 400T456 424T463 463Q463 511 432 529T332 547H289Z"  />
<glyph unicode="S" horiz-adv-x="612" d="M529 470Q514 480 493 493T446 519T390 539T327 547Q285 547 270 531T255 496Q255 475 272 461T333 426Q384 402 425 380T496 332T542 274T558 197Q558 149 539 111T486 46T405 5T302 -9Q295 -9 275 -8T223 -2T151 14T64 45V211Q78 202 99 190T148 165T206 145T271 137Q301 137 318 144T343 159T352 176T354 187Q354 202 346 214T323 236T291 254T251 272Q215 287 181 306T119 350T75 410T58 490Q58 529 72 564T117 627T193 670T302 686Q350 686 389 679T458 661T505 642T529 629V470Z"  />
<glyph unicode="T" horiz-adv-x="768" d="M734 677V512H486V0H282V512H34V677H734Z"  />
<glyph unicode="U" horiz-adv-x="865" d="M279 677V356Q279 303 290 266T322 206T371 172T433 161Q466 161 494 171T542 205T574 265T586 355V677H790V303Q790 211 756 151T668 56T553 6T433 -9Q395 -9 354 -3T273 17T197 55T134 113T91 195T75 303V677H279Z"  />
<glyph unicode="V" horiz-adv-x="755" d="M220 677L375 286L534 677H747L442 -9H307L8 677H220Z"  />
<glyph unicode="W" horiz-adv-x="1190" d="M219 677L360 302L521 677H667L825 302L972 677H1181L888 -9H770L594 390L414 -9H295L8 677H219Z"  />
<glyph unicode="X" horiz-adv-x="854" d="M279 677L325 620Q334 609 345 595T369 564T395 530T421 497Q441 527 462 556T506 613L559 677H815L552 352L849 0H587L515 85Q512 89 501 102T475 133T446 169T421 201Q400 173 386 154T362 122T343 98T325 76L263 0H5L292 352L18 677H279Z"  />
<glyph unicode="Y" horiz-adv-x="751" d="M218 677L373 464L529 677H745L480 310V0H276V306L6 677H218Z"  />
<glyph unicode="Z" horiz-adv-x="729" d="M19 0L369 515H48V677H706L357 162H706V0H19Z"  />
<glyph unicode="[" horiz-adv-x="448" d="M425 677V562H247V-111H425V-226H80V677H425Z"  />
<glyph unicode="\" horiz-adv-x="529" d="M146 686L514 -9H383L15 686H146Z"  />
<glyph unicode="]" horiz-adv-x="448" d="M368 -226H23V-111H201V562H23V677H368V-226Z"  />
<glyph unicode="^" horiz-adv-x="660" d="M398 677L597 280H425L331 520L236 280H63L262 677H398Z"  />
<glyph unicode="_" horiz-adv-x="500" d="M506 -75V-125H-6V-75H506Z"  />
<glyph unicode="`" horiz-adv-x="333" d="M180 563L0 718H190L274 563H180Z"  />
<glyph unicode="a" horiz-adv-x="571" d="M52 438Q102 473 162 489T286 506Q397 506 450 463T503 349V157Q503 131 508 117T527 103Q540 103 552 108T572 117V25Q546 14 510 3T422 -9Q397 -9 382 -4T357 10T344 28T337 44Q327 36 314 27T282 9T240 -4T183 -9Q139 -9 111 3T65 33T42 74T35 116Q35 152 49 177T89 222T148 254T224 281Q252 290 269 295T296 304T313 310T327 317Q327 331 325 344T315 369T292 387T249 394Q217 394 189 386T135 365T89 336T52 303V438ZM327 238Q301 227 279 217T241 196T216 170T207 137Q207 110 222 98T255 86Q265 86 276 90T296 99T314 110T327 120V238Z"  />
<glyph unicode="b" horiz-adv-x="637" d="M55 677H231V468Q247 480 281 493T364 506Q427 506 472 484T546 424T588 340T602 245Q602 176 581 128T526 50T453 5T376 -9Q344 -9 320 -3T279 11T250 29T231 45V0H55V677ZM231 158Q244 146 265 135T320 123Q329 123 345 127T378 144T405 182T417 249Q417 283 409 308T386 349T355 372T320 380Q291 380 267 368T231 348V158Z"  />
<glyph unicode="c" horiz-adv-x="511" d="M474 339Q462 343 446 347T411 356T374 363T340 366Q320 366 299 360T261 341T232 305T220 250Q220 218 231 196T260 159T299 138T340 131Q371 131 410 141T482 161V23Q452 12 413 2T314 -9Q255 -9 211 5T136 41T86 92T55 149T39 204T35 250Q35 269 39 295T54 350T85 406T136 456T211 492T314 506Q373 506 409 497T474 477V339Z"  />
<glyph unicode="d" horiz-adv-x="637" d="M406 0V45Q398 39 387 30T358 12T317 -3T261 -9Q223 -9 183 5T110 49T56 128T35 245Q35 293 48 340T91 424T165 483T273 506Q330 506 359 493T406 468V677H582V0H406ZM406 348Q386 359 366 369T317 380Q276 380 248 346T220 249Q220 213 229 189T252 150T283 129T317 123Q354 123 375 136T406 158V348Z"  />
<glyph unicode="e" horiz-adv-x="596" d="M566 206H216Q226 159 266 131T357 103Q408 103 457 117T553 153V44Q543 39 524 30T476 13T408 -2T320 -9Q249 -9 196 11T107 67T53 149T35 251Q35 305 53 351T106 432T195 486T320 506Q362 506 405 493T484 449T543 367T566 241V206ZM401 293Q401 341 378 369T309 398Q266 398 239 370T211 293H401Z"  />
<glyph unicode="f" horiz-adv-x="369" d="M264 352V0H88V352H7V471H88V480Q88 515 98 551T132 618T198 667T301 686Q328 686 350 683T389 677V551Q375 554 358 557T324 560Q296 560 280 542T264 489V471H353V352H264Z"  />
<glyph unicode="g" horiz-adv-x="563" d="M556 391H469Q483 379 499 355T515 293Q515 262 502 234T465 184T403 148T318 131Q309 131 299 130T279 125T264 115T257 98Q257 80 276 76T346 67Q358 66 377 64T418 57T460 42T499 17T526 -22T537 -77Q537 -111 524 -140T481 -190T402 -223T282 -235Q212 -235 163 -225T84 -198T39 -156T25 -104Q25 -97 28 -82T43 -50T78 -19T143 0Q125 7 113 25T100 63Q100 73 103 85T115 110T138 133T176 147Q152 153 128 165T84 198T52 245T39 307Q39 357 58 393T110 452T187 486T283 497H556V391ZM192 305Q192 273 214 250T274 226Q312 226 337 250T362 307Q362 326 355 341T335 368T309 384T279 390Q257 390 241 382T214 361T198 333T192 305ZM290 -41Q229 -41 202 -53T175 -95Q175 -116 189 -127T223 -144T260 -150T287 -151Q335 -151 366 -137T397 -93Q397 -74 384 -64T353 -48T317 -42T290 -41Z"  />
<glyph unicode="h" horiz-adv-x="636" d="M232 677V426Q278 475 322 490T408 506Q448 506 481 495T538 460T574 397T587 305V0H411V258Q411 259 411 277T407 315T386 353T339 370Q319 370 303 362T274 342T250 317T232 292V0H56V677H232Z"  />
<glyph unicode="i" horiz-adv-x="306" d="M241 497V0H65V497H241ZM153 686Q184 686 205 665T227 612Q227 581 206 560T153 538Q122 538 101 559T79 612Q79 643 100 664T153 686Z"  />
<glyph unicode="j" horiz-adv-x="306" d="M241 497V-29Q241 -88 221 -127T172 -191T109 -225T50 -235L-9 -101Q16 -93 30 -82T52 -54T62 -10T65 53V497H241ZM153 686Q184 686 205 665T227 612Q227 581 206 560T153 538Q122 538 101 559T79 612Q79 643 100 664T153 686Z"  />
<glyph unicode="k" horiz-adv-x="647" d="M233 677V280L407 497H618L424 265L647 0H424L233 236V0H55V677H233Z"  />
<glyph unicode="l" horiz-adv-x="306" d="M241 677V0H65V677H241Z"  />
<glyph unicode="m" horiz-adv-x="990" d="M942 0H766V265Q766 370 694 370Q672 370 655 361T624 338T601 312T587 292V0H411V265Q411 288 408 307T396 341T374 362T338 370Q317 370 301 362T272 341T250 316T232 292V0H56V497H232V426Q270 467 311 486T407 506Q431 506 455 501T500 485T540 456T570 409Q610 454 655 480T763 506Q855 506 898 453T942 303V0Z"  />
<glyph unicode="n" horiz-adv-x="636" d="M232 497V426Q274 471 316 488T408 506Q477 506 514 479T567 416T585 345T587 292V0H411V258Q411 270 411 289T404 326T382 357T339 370Q317 370 300 361T269 339T247 313T232 292V0H56V497H232Z"  />
<glyph unicode="o" horiz-adv-x="640" d="M320 506Q391 506 444 486T533 432T587 350T605 249Q605 195 587 148T534 66T445 11T320 -9Q249 -9 196 11T107 65T53 147T35 249Q35 303 53 350T106 431T195 486T320 506ZM320 375Q270 375 245 341T220 249Q220 192 245 157T320 122Q370 122 395 157T420 249Q420 306 395 340T320 375Z"  />
<glyph unicode="p" horiz-adv-x="637" d="M231 497V452Q238 458 250 467T279 485T320 500T376 506Q413 506 453 492T526 448T580 369T602 252Q602 204 589 157T546 73T472 14T364 -9Q307 -9 278 4T231 29V-226H55V497H231ZM231 149Q251 138 271 128T320 117Q361 117 389 151T417 248Q417 284 408 308T385 347T354 368T320 374Q301 374 287 370T261 361T243 349T231 339V149Z"  />
<glyph unicode="q" horiz-adv-x="637" d="M582 -226H406V29Q389 18 360 5T273 -9Q210 -9 165 13T91 73T49 157T35 252Q35 321 56 369T110 447T183 492T261 506Q293 506 317 500T358 486T386 468T406 452V497H582V-226ZM406 339Q401 343 394 349T376 360T351 370T317 374Q300 374 283 368T252 347T229 308T220 248Q220 185 248 151T317 117Q345 117 365 127T406 149V339Z"  />
<glyph unicode="r" horiz-adv-x="493" d="M231 497V377Q237 393 250 415T284 458T330 492T388 506Q423 506 446 495T493 470L428 294Q408 314 389 323T347 332Q330 332 315 327T285 309T258 273T231 214V0H55V497H231Z"  />
<glyph unicode="s" horiz-adv-x="484" d="M419 344Q411 348 398 356T366 373T324 387T275 394Q258 394 248 390T232 380T224 368T222 359Q222 354 223 349T231 338T250 326T286 310Q331 293 361 276T410 239T437 196T445 145Q445 113 434 85T398 36T336 3T246 -9Q184 -9 138 3T54 30V155Q81 139 119 121T203 103Q227 103 248 110T269 139Q269 148 264 156T246 172T213 189T163 211Q143 220 123 233T85 264T57 305T46 357Q46 383 58 409T95 457T158 492T248 506Q252 506 268 506T308 501T361 489T419 466V344Z"  />
<glyph unicode="t" horiz-adv-x="469" d="M435 375H267V216Q267 200 268 185T276 158T297 139T338 131Q367 131 393 141T448 166V29Q436 23 418 17T377 4T330 -5T281 -9Q182 -9 137 39T91 177V375H11V406L247 646H267V497H435V375Z"  />
<glyph unicode="u" horiz-adv-x="636" d="M404 0V71Q369 33 329 12T228 -9Q159 -9 122 18T69 81T51 152T49 205V497H225V239Q225 227 225 208T232 171T253 140T297 127Q319 127 337 136T368 159T390 185T404 205V497H580V0H404Z"  />
<glyph unicode="v" horiz-adv-x="583" d="M192 497L295 237L409 497H580L354 0H224L3 497H192Z"  />
<glyph unicode="w" horiz-adv-x="854" d="M185 497L276 246L373 497H485L583 246L671 497H847L651 0H540L429 271L319 0H208L7 497H185Z"  />
<glyph unicode="x" horiz-adv-x="615" d="M221 497L313 362L406 497H598L410 261L610 0H393L297 141L201 0H9L201 244L5 497H221Z"  />
<glyph unicode="y" horiz-adv-x="583" d="M202 497L303 250L418 497H589L251 -226H73L210 65L13 497H202Z"  />
<glyph unicode="z" horiz-adv-x="552" d="M34 497H529V481L291 130H524V0H14V16L252 367H34V497Z"  />
<glyph unicode="{" horiz-adv-x="385" d="M370 -235H325Q252 -235 211 -220T150 -176T126 -105T121 -9Q121 39 116 71T100 121T69 148T21 156V295Q48 295 67 302T99 326T116 370T122 439Q122 497 125 543T147 620T207 669T325 686H370V550Q340 550 321 547T292 534T277 504T273 451Q273 408 270 372T258 306T231 257T185 225Q213 211 230 195T257 156T270 101T273 22Q273 -18 275 -42T287 -78T316 -95T370 -99V-235Z"  />
<glyph unicode="|" horiz-adv-x="292" d="M207 686V-235H86V686H207Z"  />
<glyph unicode="}" horiz-adv-x="385" d="M15 686H60Q133 686 174 671T235 627T259 556T264 460Q264 412 269 380T285 330T316 303T364 295V156Q337 156 318 149T286 125T269 81T263 12Q263 -46 260 -92T238 -169T178 -218T60 -235H15V-99Q45 -99 64 -96T93 -83T108 -53T112 0Q112 43 115 79T127 145T154 194T200 226Q172 240 155 256T128 295T115 350T112 429Q112 469 110 492T97 529T68 546T15 550V686Z"  />
<glyph unicode="~" horiz-adv-x="667" d="M59 369Q66 375 81 387T116 410T163 429T219 438Q226 438 236 438T261 433T297 421T351 397Q391 377 415 369T463 361Q490 361 513 370T556 392T588 416T608 433V309Q561 268 522 254T452 240Q438 240 425 241T396 248T359 262T308 286Q265 307 245 312T210 317Q182 317 143 302T59 244V369Z"  />
<glyph unicode="&#xA0;" horiz-adv-x="297" />
<glyph unicode="&#xA1;" horiz-adv-x="302" d="M150 228Q167 227 175 222T189 204Q199 184 210 148T232 71T249 -12T256 -85Q256 -128 246 -157T219 -203T185 -227T150 -235Q134 -235 116 -228T82 -203T56 -157T46 -85Q46 -54 52 -13T68 70T89 148T111 204Q117 216 125 221T150 228ZM150 250Q128 250 109 258T76 280T54 314T46 355Q46 377 54 396T76 429T109 451T150 460Q171 460 190 452T224 429T247 396T256 355Q256 333 248 314T225 281T191 258T150 250Z"  />
<glyph unicode="&#xA2;" horiz-adv-x="521" d="M481 344Q464 352 444 359T407 368L330 126Q352 123 375 125T420 134T460 147T489 159V24Q456 12 408 0T288 -7L232 -187H173L232 1Q184 14 148 38T89 95T55 166T43 244Q43 280 54 325T96 410T181 478T322 506Q349 506 366 505T391 501L439 652H498L446 489Q455 487 464 484T481 477V344ZM352 375Q318 375 293 364T250 333T224 291T215 244Q215 218 222 200T238 169T258 149T276 137L352 375Z"  />
<glyph unicode="&#xA3;" horiz-adv-x="573" d="M43 403H140Q155 442 166 470T189 520T212 560T241 598Q285 648 332 667T426 686Q446 686 457 684T480 678L553 526Q538 531 520 536T477 541Q442 541 419 528T379 495T353 451T333 403H410V274H292L260 151Q271 154 278 155T292 158T304 159T319 160Q339 160 354 159T388 152Q413 146 425 145T457 143Q486 143 499 148T524 161V5Q511 0 494 -4T440 -9Q411 -9 384 -7T329 0Q314 2 303 3T281 6T260 7T233 8Q201 8 176 7T129 3T85 -2T39 -9Q47 34 52 63T66 127Q74 161 80 193T98 258L103 274H43V403Z"  />
<glyph unicode="&#xA4;" horiz-adv-x="552" d="M16 503L106 601L174 536Q176 537 183 541T203 549T234 558T276 562Q300 562 317 558T348 550T368 541T378 536L443 601L536 507L472 442Q486 414 491 388T496 340Q496 318 491 292T472 239L536 174L443 80L378 144Q364 138 338 130T276 121Q241 121 214 130T174 144L114 80L16 174L78 239Q61 273 58 301T55 341Q55 375 62 400T78 442L16 503ZM189 341Q189 323 196 307T215 280T242 261T276 254Q294 254 309 261T336 279T355 307T362 341Q362 359 355 375T337 402T310 421T276 428Q240 428 215 403T189 341Z"  />
<glyph unicode="&#xA5;" horiz-adv-x="751" d="M714 390V306H479V208H714V124H479V0H276V124H37V208H276V306H37V390H215L6 677H253L391 464L529 677H745L537 390H714Z"  />
<glyph unicode="&#xA6;" horiz-adv-x="292" d="M207 163V-235H86V163H207ZM207 686V288H86V686H207Z"  />
<glyph unicode="&#xA7;" horiz-adv-x="615" d="M130 431Q115 448 102 469T88 529Q88 552 98 579T133 630T203 670T314 686Q367 686 405 676T469 650T507 613T520 569Q520 558 517 545T504 520T481 500T444 492Q439 492 430 493T411 498T390 513T370 540Q355 568 343 579T304 591Q278 591 259 579T240 544Q240 531 246 521T267 499T307 474T371 440Q417 416 454 392T516 339T555 279T569 204Q569 168 560 140T537 89T510 52T486 28Q499 11 513 -13T528 -81Q528 -129 505 -159T448 -206T375 -229T305 -235Q261 -235 223 -226T157 -202T112 -165T95 -117Q95 -93 112 -72T167 -51Q184 -51 197 -56T219 -68T235 -84T246 -99Q257 -116 269 -128T311 -140Q319 -140 330 -138T351 -130T369 -115T376 -90Q376 -79 373 -70T356 -48T312 -18T230 28Q173 58 137 87T81 144T54 201T46 257Q46 286 54 311T74 357T101 396T130 431ZM211 359Q201 352 189 339T176 300Q176 285 183 270T203 241T230 214T260 190Q268 184 290 171T336 142T383 113T415 93Q423 103 434 120T445 160Q445 186 427 210T377 259T302 307T211 359Z"  />
<glyph unicode="&#xA8;" horiz-adv-x="333" d="M-25 630Q-25 657 -6 677T42 697Q71 697 90 677T109 630Q109 602 90 583T42 563Q13 563 -6 583T-25 630ZM224 630Q224 657 243 677T291 697Q320 697 339 677T358 630Q358 602 339 583T291 563Q262 563 243 583T224 630Z"  />
<glyph unicode="&#xA9;" horiz-adv-x="802" d="M588 244Q584 231 575 208T545 161T490 121T403 104Q353 104 315 121T252 167T213 235T200 315Q200 361 215 399T258 465T323 508T404 523Q433 523 462 516T515 492T558 450T584 388L488 373Q486 379 482 392T469 418T443 441T399 451Q375 451 358 441T330 412T314 370T309 317Q309 304 310 280T320 233T347 193T400 175Q422 175 437 184T462 206T479 236T488 268L588 244ZM401 686Q477 686 545 657T664 578T744 460T774 314Q774 237 745 169T665 51T546 -29T401 -59Q324 -59 256 -30T138 50T58 169T28 314Q28 392 57 460T138 578T257 657T401 686ZM401 614Q339 614 285 591T189 527T124 432T100 314Q100 252 123 197T188 101T284 37T401 13Q464 13 518 36T614 101T678 197T702 314Q702 377 678 431T613 526T518 590T401 614Z"  />
<glyph unicode="&#xAA;" horiz-adv-x="375" d="M31 643Q69 663 107 674T189 686Q239 686 269 674T317 642Q331 626 333 608T335 576V470Q335 453 337 449T345 445Q356 445 380 455V386Q371 382 363 378T344 371T319 365T286 363Q260 363 246 372T220 392Q202 381 180 372T118 363Q89 363 70 371T40 391T24 417T19 445Q19 481 38 503T85 536Q111 546 145 554T210 569Q210 589 197 597T164 605Q152 605 139 604T110 596T74 578T31 545V643ZM209 509Q170 495 157 484T143 458Q143 445 151 440T168 434Q179 434 188 439T209 452V509Z"  />
<glyph unicode="&#xAB;" horiz-adv-x="637" d="M178 243L332 0H169L15 243L169 484H332L178 243ZM462 243L615 0H452L298 243L452 484H615L462 243Z"  />
<glyph unicode="&#xAC;" horiz-adv-x="667" d="M608 516V159H487V395H59V516H608Z"  />
<glyph unicode="&#xAD;" horiz-adv-x="490" d="M405 333V170H85V333H405Z"  />
<glyph unicode="&#xAE;" horiz-adv-x="802" d="M401 686Q477 686 545 657T664 578T744 460T774 314Q774 237 745 169T665 51T546 -29T401 -59Q324 -59 256 -30T138 50T58 169T28 314Q28 392 57 460T138 578T257 657T401 686ZM401 614Q339 614 285 591T189 527T124 432T100 314Q100 252 123 197T188 101T284 37T401 13Q464 13 518 36T614 101T678 197T702 314Q702 377 678 431T613 526T518 590T401 614ZM410 513Q440 513 466 507T512 488T543 453T554 400Q554 370 543 350T514 317T479 298T446 289Q464 280 477 270T500 246T519 217T539 182L576 114H459Q426 182 403 220T366 266Q360 269 350 271T331 273V114H232V513H410ZM331 344H374Q409 344 430 354T452 394Q452 420 431 432T378 444H331V344Z"  />
<glyph unicode="&#xAF;" horiz-adv-x="333" d="M-22 574V694H355V574H-22Z"  />
<glyph unicode="&#xB0;" horiz-adv-x="399" d="M199 686Q228 686 253 675T298 646T328 602T339 547Q339 518 328 493T298 448T254 418T199 407Q170 407 145 418T101 448T71 492T60 547Q60 576 71 601T101 645T145 675T199 686ZM199 596Q179 596 165 582T150 546Q150 526 164 512T199 497Q219 497 234 511T249 546Q249 567 234 581T199 596Z"  />
<glyph unicode="&#xB1;" horiz-adv-x="667" d="M608 121V0H59V121H608ZM273 515V729H394V515H608V394H394V180H273V394H59V515H273Z"  />
<glyph unicode="&#xB2;" horiz-adv-x="354" d="M335 333H20V350Q44 370 66 391T111 434Q143 466 165 494T187 553Q187 573 174 585T136 597Q118 597 102 591T71 577T47 560T33 548V646Q58 660 90 673T168 686Q204 686 230 677T272 652T297 617T305 576Q305 533 281 500T216 423H335V333Z"  />
<glyph unicode="&#xB3;" horiz-adv-x="354" d="M38 447Q63 428 85 418T136 408Q156 408 172 416T188 440Q188 452 181 459T162 471T136 476T107 478V546Q119 546 132 546T156 550T174 559T181 578Q181 589 170 599T134 610Q126 610 104 606T49 582V663Q62 668 95 677T164 686Q200 686 226 677T269 654T295 623T303 590Q303 570 293 551T258 515Q310 485 310 432Q310 407 299 388T268 355T222 335T167 328Q149 328 131 330T95 337T63 345T38 354V447Z"  />
<glyph unicode="&#xB4;" horiz-adv-x="333" d="M165 718H355L175 563H81L165 718Z"  />
<glyph unicode="&#xB5;" horiz-adv-x="636" d="M225 -226H49V497H225V237Q225 223 226 204T233 168T255 139T297 127Q317 127 333 134T362 153T385 178T404 203V497H580V0H404V27Q393 16 373 4T309 -9Q276 -9 259 -2T225 15V-226Z"  />
<glyph unicode="&#xB6;" horiz-adv-x="583" d="M362 -235H294V208Q286 208 270 209T232 213T188 223T143 239Q113 254 90 276T52 325T29 382T21 444Q21 513 49 563T119 639Q162 666 222 671T360 677H571V609H506V-235H438V609H362V-235Z"  />
<glyph unicode="&#xB7;" horiz-adv-x="281" d="M142 444Q164 444 183 436T216 413T238 380T246 339Q246 317 238 298T216 265T183 242T142 234Q121 234 102 242T68 264T45 298T36 339Q36 361 44 380T67 413T101 436T142 444Z"  />
<glyph unicode="&#xB8;" horiz-adv-x="333" d="M216 10L197 -29Q237 -39 258 -60T280 -113Q280 -132 272 -149T244 -180T194 -202T119 -210H23V-143Q41 -143 58 -142T89 -136T111 -125T120 -104Q120 -89 110 -82T73 -73L134 10H216Z"  />
<glyph unicode="&#xB9;" horiz-adv-x="354" d="M116 333V677H238V333H116Z"  />
<glyph unicode="&#xBA;" horiz-adv-x="406" d="M201 686Q247 686 283 674T343 639T381 588T394 524Q394 490 381 461T344 410T283 376T201 363Q155 363 120 375T60 409T24 460T12 524Q12 558 24 587T60 639T119 673T201 686ZM201 595Q171 595 158 577T144 524Q144 489 157 472T201 454Q262 454 262 524Q262 595 201 595Z"  />
<glyph unicode="&#xBB;" horiz-adv-x="637" d="M468 484L622 243L468 0H305L459 243L305 484H468ZM185 484L339 243L185 0H22L175 243L22 484H185Z"  />
<glyph unicode="&#xBC;" horiz-adv-x="812" d="M638 0V72H467V146L655 348H747V143H794V72H747V0H638ZM638 143V236L551 143H638ZM686 686L223 -24H122L585 686H686ZM116 333V677H238V333H116Z"  />
<glyph unicode="&#xBD;" horiz-adv-x="812" d="M116 333V677H238V333H116ZM664 686L201 -24H100L563 686H664ZM793 0H478V17Q502 37 524 58T569 101Q601 133 623 161T645 220Q645 236 634 250T594 264Q579 264 564 259T535 247T510 231T491 215V313Q517 327 549 340T626 353Q669 353 696 341T738 312T758 275T763 243Q763 200 739 167T674 90H793V0Z"  />
<glyph unicode="&#xBE;" horiz-adv-x="812" d="M38 447Q63 428 85 418T136 408Q156 408 172 416T188 440Q188 452 181 459T162 471T136 476T107 478V546Q119 546 132 546T156 550T174 559T181 578Q181 589 170 599T134 610Q126 610 104 606T49 582V663Q62 668 95 677T164 686Q200 686 226 677T269 654T295 623T303 590Q303 570 293 551T258 515Q310 485 310 432Q310 407 299 388T268 355T222 335T167 328Q149 328 131 330T95 337T63 345T38 354V447ZM638 0V72H467V146L655 348H747V143H794V72H747V0H638ZM638 143V236L551 143H638ZM694 686L231 -24H130L593 686H694Z"  />
<glyph unicode="&#xBF;" horiz-adv-x="385" d="M303 -220Q285 -225 263 -230T210 -235Q163 -235 129 -222T73 -189T41 -144T31 -93Q31 -71 34 -53T47 -17T75 20T122 66Q138 81 151 99T174 135T188 170T193 197Q193 230 230 230Q245 230 254 224T266 210Q269 203 270 193T273 172T275 152T276 136Q276 121 274 106T268 78T261 57T257 45Q253 35 247 23T236 -2T226 -26T222 -47Q222 -53 224 -61T232 -78T251 -91T283 -97Q303 -97 316 -93T341 -84H349L303 -220ZM227 250Q205 250 186 258T153 280T131 314T123 355Q123 377 131 396T153 429T186 451T227 460Q248 460 267 452T301 429T324 396T333 355Q333 333 325 314T302 281T268 258T227 250Z"  />
<glyph unicode="&#xC0;" horiz-adv-x="833" d="M270 137L214 0H5L304 677H530L828 0H619L564 137H270ZM517 255L418 502L318 255H517ZM430 723L250 878H440L524 723H430Z"  />
<glyph unicode="&#xC1;" horiz-adv-x="833" d="M270 137L214 0H5L304 677H530L828 0H619L564 137H270ZM517 255L418 502L318 255H517ZM415 878H605L425 723H331L415 878Z"  />
<glyph unicode="&#xC2;" horiz-adv-x="833" d="M270 137L214 0H5L304 677H530L828 0H619L564 137H270ZM517 255L418 502L318 255H517ZM505 723L417 813L328 723H223L312 892H521L610 723H505Z"  />
<glyph unicode="&#xC3;" horiz-adv-x="833" d="M270 137L214 0H5L304 677H530L828 0H619L564 137H270ZM517 255L418 502L318 255H517ZM610 879Q610 803 579 763T495 723Q476 723 454 729T411 744T372 758T341 765Q319 765 311 751T301 723H223Q223 765 234 795T262 843T299 870T337 879Q355 879 377 873T422 858Q444 850 463 843T493 836Q513 836 522 850T531 879H610Z"  />
<glyph unicode="&#xC4;" horiz-adv-x="833" d="M270 137L214 0H5L304 677H530L828 0H619L564 137H270ZM517 255L418 502L318 255H517ZM225 790Q225 817 244 837T292 857Q321 857 340 837T359 790Q359 762 340 743T292 723Q263 723 244 743T225 790ZM474 790Q474 817 493 837T541 857Q570 857 589 837T608 790Q608 762 589 743T541 723Q512 723 493 743T474 790Z"  />
<glyph unicode="&#xC5;" horiz-adv-x="833" d="M270 137L214 0H5L304 677H530L828 0H619L564 137H270ZM517 255L418 502L318 255H517ZM416 923Q437 923 455 915T487 894T509 862T517 823Q517 802 509 784T488 752T456 730T416 722Q395 722 377 730T345 751T324 783T316 823Q316 844 323 862T344 893T376 915T416 923ZM416 875Q394 875 379 860T364 823Q364 801 379 786T416 770Q438 770 453 785T469 823Q469 845 454 860T416 875Z"  />
<glyph unicode="&#xC6;" horiz-adv-x="1113" d="M1054 677V541H759V417H1037V281H759V136H1061V0H555V252H360L212 0H5L433 677H1054ZM555 582L430 369H555V582Z"  />
<glyph unicode="&#xC7;" horiz-adv-x="743" d="M447 -29Q474 -34 490 -45T516 -68T528 -93T531 -113Q531 -148 502 -174T416 -207Q405 -208 396 -209T373 -210T335 -210T274 -210V-143Q290 -143 307 -143T338 -138T361 -126T370 -104Q370 -84 355 -80T323 -73L372 -6Q274 4 211 39T109 124T56 230T41 339Q41 426 71 491T154 599T277 664T427 686Q470 686 508 681T580 668T640 651T688 635V455Q674 464 653 476T604 500T544 520T473 528Q432 528 392 516T320 480T269 420T249 336Q249 295 266 261T312 202T380 163T462 149Q503 149 538 157T602 176T653 200T691 222V51Q656 33 623 22T559 5T503 -4T457 -8L447 -29Z"  />
<glyph unicode="&#xC8;" horiz-adv-x="647" d="M595 136V0H85V677H587V541H289V417H573V281H289V136H595ZM352 723L172 878H362L446 723H352Z"  />
<glyph unicode="&#xC9;" horiz-adv-x="647" d="M595 136V0H85V677H587V541H289V417H573V281H289V136H595ZM337 878H527L347 723H253L337 878Z"  />
<glyph unicode="&#xCA;" horiz-adv-x="647" d="M595 136V0H85V677H587V541H289V417H573V281H289V136H595ZM427 723L339 813L250 723H145L234 892H443L532 723H427Z"  />
<glyph unicode="&#xCB;" horiz-adv-x="647" d="M595 136V0H85V677H587V541H289V417H573V281H289V136H595ZM147 790Q147 817 166 837T214 857Q243 857 262 837T281 790Q281 762 262 743T214 723Q185 723 166 743T147 790ZM396 790Q396 817 415 837T463 857Q492 857 511 837T530 790Q530 762 511 743T463 723Q434 723 415 743T396 790Z"  />
<glyph unicode="&#xCC;" horiz-adv-x="376" d="M290 677V0H86V677H290ZM202 723L22 878H212L296 723H202Z"  />
<glyph unicode="&#xCD;" horiz-adv-x="376" d="M290 677V0H86V677H290ZM187 878H377L197 723H103L187 878Z"  />
<glyph unicode="&#xCE;" horiz-adv-x="376" d="M290 677V0H86V677H290ZM277 723L189 813L100 723H-5L84 892H293L382 723H277Z"  />
<glyph unicode="&#xCF;" horiz-adv-x="376" d="M290 677V0H86V677H290ZM-3 790Q-3 817 16 837T64 857Q93 857 112 837T131 790Q131 762 112 743T64 723Q35 723 16 743T-3 790ZM246 790Q246 817 265 837T313 857Q342 857 361 837T380 790Q380 762 361 743T313 723Q284 723 265 743T246 790Z"  />
<glyph unicode="&#xD0;" horiz-adv-x="822" d="M366 677Q430 677 477 670T559 650T619 623T663 593Q711 554 746 487T781 326Q781 266 768 222T735 145T693 92T654 57Q625 34 591 23T525 6T471 1T440 0H85V286H10V391H85V677H366ZM289 391H428V286H289V140H376Q403 140 437 145T502 170T552 228T573 335Q573 402 553 443T502 505T438 534T376 541H289V391Z"  />
<glyph unicode="&#xD1;" horiz-adv-x="905" d="M266 677L616 302V677H820V0H638L287 377V0H85V677H266ZM646 879Q646 803 615 763T531 723Q512 723 490 729T447 744T408 758T377 765Q355 765 347 751T337 723H259Q259 765 270 795T298 843T335 870T373 879Q391 879 413 873T458 858Q480 850 499 843T529 836Q549 836 558 850T567 879H646Z"  />
<glyph unicode="&#xD2;" horiz-adv-x="851" d="M809 339Q809 269 785 206T713 95T593 19T425 -9Q326 -9 254 21T134 99T64 210T41 339Q41 405 63 467T133 578T253 656T425 686Q522 686 594 658T714 581T785 471T809 339ZM249 339Q249 301 261 269T295 214T350 178T425 165Q467 165 500 178T555 214T589 269T601 339Q601 376 590 408T556 463T500 499T425 512Q341 512 295 464T249 339ZM439 723L259 878H449L533 723H439Z"  />
<glyph unicode="&#xD3;" horiz-adv-x="851" d="M809 339Q809 269 785 206T713 95T593 19T425 -9Q326 -9 254 21T134 99T64 210T41 339Q41 405 63 467T133 578T253 656T425 686Q522 686 594 658T714 581T785 471T809 339ZM249 339Q249 301 261 269T295 214T350 178T425 165Q467 165 500 178T555 214T589 269T601 339Q601 376 590 408T556 463T500 499T425 512Q341 512 295 464T249 339ZM424 878H614L434 723H340L424 878Z"  />
<glyph unicode="&#xD4;" horiz-adv-x="851" d="M809 339Q809 269 785 206T713 95T593 19T425 -9Q326 -9 254 21T134 99T64 210T41 339Q41 405 63 467T133 578T253 656T425 686Q522 686 594 658T714 581T785 471T809 339ZM249 339Q249 301 261 269T295 214T350 178T425 165Q467 165 500 178T555 214T589 269T601 339Q601 376 590 408T556 463T500 499T425 512Q341 512 295 464T249 339ZM514 723L426 813L337 723H232L321 892H530L619 723H514Z"  />
<glyph unicode="&#xD5;" horiz-adv-x="851" d="M809 339Q809 269 785 206T713 95T593 19T425 -9Q326 -9 254 21T134 99T64 210T41 339Q41 405 63 467T133 578T253 656T425 686Q522 686 594 658T714 581T785 471T809 339ZM249 339Q249 301 261 269T295 214T350 178T425 165Q467 165 500 178T555 214T589 269T601 339Q601 376 590 408T556 463T500 499T425 512Q341 512 295 464T249 339ZM619 879Q619 803 588 763T504 723Q485 723 463 729T420 744T381 758T350 765Q328 765 320 751T310 723H232Q232 765 243 795T271 843T308 870T346 879Q364 879 386 873T431 858Q453 850 472 843T502 836Q522 836 531 850T540 879H619Z"  />
<glyph unicode="&#xD6;" horiz-adv-x="851" d="M809 339Q809 269 785 206T713 95T593 19T425 -9Q326 -9 254 21T134 99T64 210T41 339Q41 405 63 467T133 578T253 656T425 686Q522 686 594 658T714 581T785 471T809 339ZM249 339Q249 301 261 269T295 214T350 178T425 165Q467 165 500 178T555 214T589 269T601 339Q601 376 590 408T556 463T500 499T425 512Q341 512 295 464T249 339ZM234 790Q234 817 253 837T301 857Q330 857 349 837T368 790Q368 762 349 743T301 723Q272 723 253 743T234 790ZM483 790Q483 817 502 837T550 857Q579 857 598 837T617 790Q617 762 598 743T550 723Q521 723 502 743T483 790Z"  />
<glyph unicode="&#xD7;" horiz-adv-x="667" d="M334 425L509 600L595 514L419 339L595 163L509 78L334 253L158 78L72 163L248 339L72 514L158 600L334 425Z"  />
<glyph unicode="&#xD8;" horiz-adv-x="851" d="M103 -39L46 20L132 102Q88 150 65 207T41 339Q41 405 63 467T133 578T253 656T425 686Q479 686 520 678T590 660T638 638T668 619L748 695L805 637L729 564Q753 537 768 508T793 449T805 392T809 339Q809 273 787 211T717 100T597 21T425 -9Q401 -9 373 -7T314 2T254 20T195 50L103 -39ZM335 185Q358 173 384 169T426 165Q468 165 500 178T555 214T589 269T601 338Q601 364 596 385T583 424L335 185ZM529 485Q506 500 480 506T425 512Q381 512 349 499T294 462T260 407T249 340Q249 336 249 326T252 302T260 272T275 240L529 485Z"  />
<glyph unicode="&#xD9;" horiz-adv-x="865" d="M279 677V356Q279 303 290 266T322 206T371 172T433 161Q466 161 494 171T542 205T574 265T586 355V677H790V303Q790 211 756 151T668 56T553 6T433 -9Q395 -9 354 -3T273 17T197 55T134 113T91 195T75 303V677H279ZM446 723L266 878H456L540 723H446Z"  />
<glyph unicode="&#xDA;" horiz-adv-x="865" d="M279 677V356Q279 303 290 266T322 206T371 172T433 161Q466 161 494 171T542 205T574 265T586 355V677H790V303Q790 211 756 151T668 56T553 6T433 -9Q395 -9 354 -3T273 17T197 55T134 113T91 195T75 303V677H279ZM431 878H621L441 723H347L431 878Z"  />
<glyph unicode="&#xDB;" horiz-adv-x="865" d="M279 677V356Q279 303 290 266T322 206T371 172T433 161Q466 161 494 171T542 205T574 265T586 355V677H790V303Q790 211 756 151T668 56T553 6T433 -9Q395 -9 354 -3T273 17T197 55T134 113T91 195T75 303V677H279ZM521 723L433 813L344 723H239L328 892H537L626 723H521Z"  />
<glyph unicode="&#xDC;" horiz-adv-x="865" d="M279 677V356Q279 303 290 266T322 206T371 172T433 161Q466 161 494 171T542 205T574 265T586 355V677H790V303Q790 211 756 151T668 56T553 6T433 -9Q395 -9 354 -3T273 17T197 55T134 113T91 195T75 303V677H279ZM241 790Q241 817 260 837T308 857Q337 857 356 837T375 790Q375 762 356 743T308 723Q279 723 260 743T241 790ZM490 790Q490 817 509 837T557 857Q586 857 605 837T624 790Q624 762 605 743T557 723Q528 723 509 743T490 790Z"  />
<glyph unicode="&#xDD;" horiz-adv-x="751" d="M218 677L373 464L529 677H745L480 310V0H276V306L6 677H218ZM374 878H564L384 723H290L374 878Z"  />
<glyph unicode="&#xDE;" horiz-adv-x="699" d="M289 677V550H423Q487 550 534 532T611 485T656 417T671 337Q671 296 657 258T612 191T534 145T423 127H289V0H85V677H289ZM289 420V257H333Q365 257 389 259T429 270T454 294T463 336Q463 362 454 378T428 404T387 416T332 420H289Z"  />
<glyph unicode="&#xDF;" horiz-adv-x="661" d="M73 442Q73 469 74 492T78 536T89 573T109 606Q121 621 140 635T188 660T253 679T338 686Q409 686 456 670T531 630T572 575T584 516Q584 485 575 463T552 426T525 402T502 388Q566 360 593 311T620 201Q620 150 602 111T555 45T491 5T419 -9Q393 -9 371 -5T326 4V126Q343 125 363 125T405 140Q425 154 434 180T444 232Q444 262 436 281T413 312T378 329T335 335V433Q359 433 374 440T399 459T413 483T417 508Q417 521 412 534T397 559T371 578T334 585Q287 585 268 557T249 482V0H73V442Z"  />
<glyph unicode="&#xE0;" horiz-adv-x="571" d="M52 438Q102 473 162 489T286 506Q397 506 450 463T503 349V157Q503 131 508 117T527 103Q540 103 552 108T572 117V25Q546 14 510 3T422 -9Q397 -9 382 -4T357 10T344 28T337 44Q327 36 314 27T282 9T240 -4T183 -9Q139 -9 111 3T65 33T42 74T35 116Q35 152 49 177T89 222T148 254T224 281Q252 290 269 295T296 304T313 310T327 317Q327 331 325 344T315 369T292 387T249 394Q217 394 189 386T135 365T89 336T52 303V438ZM327 238Q301 227 279 217T241 196T216 170T207 137Q207 110 222 98T255 86Q265 86 276 90T296 99T314 110T327 120V238ZM299 563L119 718H309L393 563H299Z"  />
<glyph unicode="&#xE1;" horiz-adv-x="571" d="M52 438Q102 473 162 489T286 506Q397 506 450 463T503 349V157Q503 131 508 117T527 103Q540 103 552 108T572 117V25Q546 14 510 3T422 -9Q397 -9 382 -4T357 10T344 28T337 44Q327 36 314 27T282 9T240 -4T183 -9Q139 -9 111 3T65 33T42 74T35 116Q35 152 49 177T89 222T148 254T224 281Q252 290 269 295T296 304T313 310T327 317Q327 331 325 344T315 369T292 387T249 394Q217 394 189 386T135 365T89 336T52 303V438ZM327 238Q301 227 279 217T241 196T216 170T207 137Q207 110 222 98T255 86Q265 86 276 90T296 99T314 110T327 120V238ZM284 718H474L294 563H200L284 718Z"  />
<glyph unicode="&#xE2;" horiz-adv-x="571" d="M52 438Q102 473 162 489T286 506Q397 506 450 463T503 349V157Q503 131 508 117T527 103Q540 103 552 108T572 117V25Q546 14 510 3T422 -9Q397 -9 382 -4T357 10T344 28T337 44Q327 36 314 27T282 9T240 -4T183 -9Q139 -9 111 3T65 33T42 74T35 116Q35 152 49 177T89 222T148 254T224 281Q252 290 269 295T296 304T313 310T327 317Q327 331 325 344T315 369T292 387T249 394Q217 394 189 386T135 365T89 336T52 303V438ZM327 238Q301 227 279 217T241 196T216 170T207 137Q207 110 222 98T255 86Q265 86 276 90T296 99T314 110T327 120V238ZM364 563L276 653L187 563H82L171 732H380L469 563H364Z"  />
<glyph unicode="&#xE3;" horiz-adv-x="571" d="M52 438Q102 473 162 489T286 506Q397 506 450 463T503 349V157Q503 131 508 117T527 103Q540 103 552 108T572 117V25Q546 14 510 3T422 -9Q397 -9 382 -4T357 10T344 28T337 44Q327 36 314 27T282 9T240 -4T183 -9Q139 -9 111 3T65 33T42 74T35 116Q35 152 49 177T89 222T148 254T224 281Q252 290 269 295T296 304T313 310T327 317Q327 331 325 344T315 369T292 387T249 394Q217 394 189 386T135 365T89 336T52 303V438ZM327 238Q301 227 279 217T241 196T216 170T207 137Q207 110 222 98T255 86Q265 86 276 90T296 99T314 110T327 120V238ZM479 719Q479 643 448 603T364 563Q345 563 323 569T280 584T241 598T210 605Q188 605 180 591T170 563H92Q92 605 103 635T131 683T168 710T206 719Q224 719 246 713T291 698Q313 690 332 683T362 676Q382 676 391 690T400 719H479Z"  />
<glyph unicode="&#xE4;" horiz-adv-x="571" d="M52 438Q102 473 162 489T286 506Q397 506 450 463T503 349V157Q503 131 508 117T527 103Q540 103 552 108T572 117V25Q546 14 510 3T422 -9Q397 -9 382 -4T357 10T344 28T337 44Q327 36 314 27T282 9T240 -4T183 -9Q139 -9 111 3T65 33T42 74T35 116Q35 152 49 177T89 222T148 254T224 281Q252 290 269 295T296 304T313 310T327 317Q327 331 325 344T315 369T292 387T249 394Q217 394 189 386T135 365T89 336T52 303V438ZM327 238Q301 227 279 217T241 196T216 170T207 137Q207 110 222 98T255 86Q265 86 276 90T296 99T314 110T327 120V238ZM94 630Q94 657 113 677T161 697Q190 697 209 677T228 630Q228 602 209 583T161 563Q132 563 113 583T94 630ZM343 630Q343 657 362 677T410 697Q439 697 458 677T477 630Q477 602 458 583T410 563Q381 563 362 583T343 630Z"  />
<glyph unicode="&#xE5;" horiz-adv-x="571" d="M52 438Q102 473 162 489T286 506Q397 506 450 463T503 349V157Q503 131 508 117T527 103Q540 103 552 108T572 117V25Q546 14 510 3T422 -9Q397 -9 382 -4T357 10T344 28T337 44Q327 36 314 27T282 9T240 -4T183 -9Q139 -9 111 3T65 33T42 74T35 116Q35 152 49 177T89 222T148 254T224 281Q252 290 269 295T296 304T313 310T327 317Q327 331 325 344T315 369T292 387T249 394Q217 394 189 386T135 365T89 336T52 303V438ZM327 238Q301 227 279 217T241 196T216 170T207 137Q207 110 222 98T255 86Q265 86 276 90T296 99T314 110T327 120V238ZM285 763Q306 763 324 755T356 734T378 702T386 663Q386 642 378 624T357 592T325 570T285 562Q264 562 246 570T214 591T193 623T185 663Q185 684 192 702T213 733T245 755T285 763ZM285 715Q263 715 248 700T233 663Q233 641 248 626T285 610Q307 610 322 625T338 663Q338 685 323 700T285 715Z"  />
<glyph unicode="&#xE6;" horiz-adv-x="834" d="M52 438Q68 448 90 459T138 481T197 499T266 506Q326 506 363 491T423 462Q431 468 442 475T471 489T510 501T562 506Q607 506 650 491T727 443T783 361T804 241V206H484Q486 172 504 152T544 121T589 107T622 103Q651 103 692 113T793 154V42Q741 19 686 5T574 -9Q519 -9 467 6T370 54Q318 19 270 5T175 -9Q140 -9 114 2T71 30T44 70T35 117Q35 157 55 185T105 232T166 262T221 280Q246 287 261 292T286 300T303 306T321 313Q321 335 319 350T310 375T288 389T249 394Q217 394 190 387T138 367T93 339T52 306V438ZM321 237Q293 224 272 214T237 192T215 169T208 139Q208 132 210 123T217 106T230 92T253 86Q279 86 295 96T321 116V237ZM640 293Q639 307 636 325T625 360T601 387T561 398Q526 398 504 373T481 293H640Z"  />
<glyph unicode="&#xE7;" horiz-adv-x="511" d="M331 -29Q358 -34 374 -45T399 -68T411 -93T414 -113Q414 -157 375 -183T259 -210H157V-143Q174 -143 191 -143T222 -138T245 -126T254 -104Q254 -94 249 -88T237 -79T221 -75T207 -73L257 -5Q189 4 146 34T78 103T44 181T35 250Q35 269 39 295T54 350T85 406T136 456T211 492T314 506Q373 506 409 497T474 477V339Q462 343 446 347T411 356T374 363T340 366Q320 366 299 360T261 341T232 305T220 250Q220 218 231 196T260 159T299 138T340 131Q371 131 410 141T482 161V23Q467 18 454 13T424 5T389 -2T341 -8L331 -29Z"  />
<glyph unicode="&#xE8;" horiz-adv-x="596" d="M566 206H216Q226 159 266 131T357 103Q408 103 457 117T553 153V44Q543 39 524 30T476 13T408 -2T320 -9Q249 -9 196 11T107 67T53 149T35 251Q35 305 53 351T106 432T195 486T320 506Q362 506 405 493T484 449T543 367T566 241V206ZM401 293Q401 341 378 369T309 398Q266 398 239 370T211 293H401ZM312 563L132 718H322L406 563H312Z"  />
<glyph unicode="&#xE9;" horiz-adv-x="596" d="M566 206H216Q226 159 266 131T357 103Q408 103 457 117T553 153V44Q543 39 524 30T476 13T408 -2T320 -9Q249 -9 196 11T107 67T53 149T35 251Q35 305 53 351T106 432T195 486T320 506Q362 506 405 493T484 449T543 367T566 241V206ZM401 293Q401 341 378 369T309 398Q266 398 239 370T211 293H401ZM297 718H487L307 563H213L297 718Z"  />
<glyph unicode="&#xEA;" horiz-adv-x="596" d="M566 206H216Q226 159 266 131T357 103Q408 103 457 117T553 153V44Q543 39 524 30T476 13T408 -2T320 -9Q249 -9 196 11T107 67T53 149T35 251Q35 305 53 351T106 432T195 486T320 506Q362 506 405 493T484 449T543 367T566 241V206ZM401 293Q401 341 378 369T309 398Q266 398 239 370T211 293H401ZM387 563L299 653L210 563H105L194 732H403L492 563H387Z"  />
<glyph unicode="&#xEB;" horiz-adv-x="596" d="M566 206H216Q226 159 266 131T357 103Q408 103 457 117T553 153V44Q543 39 524 30T476 13T408 -2T320 -9Q249 -9 196 11T107 67T53 149T35 251Q35 305 53 351T106 432T195 486T320 506Q362 506 405 493T484 449T543 367T566 241V206ZM401 293Q401 341 378 369T309 398Q266 398 239 370T211 293H401ZM107 630Q107 657 126 677T174 697Q203 697 222 677T241 630Q241 602 222 583T174 563Q145 563 126 583T107 630ZM356 630Q356 657 375 677T423 697Q452 697 471 677T490 630Q490 602 471 583T423 563Q394 563 375 583T356 630Z"  />
<glyph unicode="&#xEC;" horiz-adv-x="306" d="M241 497V0H65V497H241ZM167 563L-13 718H177L261 563H167Z"  />
<glyph unicode="&#xED;" horiz-adv-x="306" d="M241 497V0H65V497H241ZM142 718H332L152 563H58L142 718Z"  />
<glyph unicode="&#xEE;" horiz-adv-x="306" d="M241 497V0H65V497H241ZM242 563L154 653L65 563H-40L49 732H258L347 563H242Z"  />
<glyph unicode="&#xEF;" horiz-adv-x="306" d="M241 497V0H65V497H241ZM-38 630Q-38 657 -19 677T29 697Q58 697 77 677T96 630Q96 602 77 583T29 563Q0 563 -19 583T-38 630ZM211 630Q211 657 230 677T278 697Q307 697 326 677T345 630Q345 602 326 583T278 563Q249 563 230 583T211 630Z"  />
<glyph unicode="&#xF0;" horiz-adv-x="640" d="M261 686Q287 678 310 670T356 647L479 686L495 635L414 607Q432 593 455 573T504 521Q551 463 578 398T605 254Q605 197 587 149T534 66T447 11T328 -9Q240 -9 183 16T93 78T48 160T35 243Q35 309 58 356T117 435T200 482T291 497Q314 497 330 493T360 484Q347 504 326 528T288 567L129 514L113 567L234 607Q229 611 224 614T212 621T192 632T160 647L261 686ZM320 375Q270 375 245 341T220 249Q220 192 245 157T320 122Q370 122 395 157T420 249Q420 306 395 340T320 375Z"  />
<glyph unicode="&#xF1;" horiz-adv-x="636" d="M232 497V426Q274 471 316 488T408 506Q477 506 514 479T567 416T585 345T587 292V0H411V258Q411 270 411 289T404 326T382 357T339 370Q317 370 300 361T269 339T247 313T232 292V0H56V497H232ZM512 719Q512 643 481 603T397 563Q378 563 356 569T313 584T274 598T243 605Q221 605 213 591T203 563H125Q125 605 136 635T164 683T201 710T239 719Q257 719 279 713T324 698Q346 690 365 683T395 676Q415 676 424 690T433 719H512Z"  />
<glyph unicode="&#xF2;" horiz-adv-x="640" d="M320 506Q391 506 444 486T533 432T587 350T605 249Q605 195 587 148T534 66T445 11T320 -9Q249 -9 196 11T107 65T53 147T35 249Q35 303 53 350T106 431T195 486T320 506ZM320 375Q270 375 245 341T220 249Q220 192 245 157T320 122Q370 122 395 157T420 249Q420 306 395 340T320 375ZM334 563L154 718H344L428 563H334Z"  />
<glyph unicode="&#xF3;" horiz-adv-x="640" d="M320 506Q391 506 444 486T533 432T587 350T605 249Q605 195 587 148T534 66T445 11T320 -9Q249 -9 196 11T107 65T53 147T35 249Q35 303 53 350T106 431T195 486T320 506ZM320 375Q270 375 245 341T220 249Q220 192 245 157T320 122Q370 122 395 157T420 249Q420 306 395 340T320 375ZM319 718H509L329 563H235L319 718Z"  />
<glyph unicode="&#xF4;" horiz-adv-x="640" d="M320 506Q391 506 444 486T533 432T587 350T605 249Q605 195 587 148T534 66T445 11T320 -9Q249 -9 196 11T107 65T53 147T35 249Q35 303 53 350T106 431T195 486T320 506ZM320 375Q270 375 245 341T220 249Q220 192 245 157T320 122Q370 122 395 157T420 249Q420 306 395 340T320 375ZM409 563L321 653L232 563H127L216 732H425L514 563H409Z"  />
<glyph unicode="&#xF5;" horiz-adv-x="640" d="M320 506Q391 506 444 486T533 432T587 350T605 249Q605 195 587 148T534 66T445 11T320 -9Q249 -9 196 11T107 65T53 147T35 249Q35 303 53 350T106 431T195 486T320 506ZM320 375Q270 375 245 341T220 249Q220 192 245 157T320 122Q370 122 395 157T420 249Q420 306 395 340T320 375ZM514 719Q514 643 483 603T399 563Q380 563 358 569T315 584T276 598T245 605Q223 605 215 591T205 563H127Q127 605 138 635T166 683T203 710T241 719Q259 719 281 713T326 698Q348 690 367 683T397 676Q417 676 426 690T435 719H514Z"  />
<glyph unicode="&#xF6;" horiz-adv-x="640" d="M320 506Q391 506 444 486T533 432T587 350T605 249Q605 195 587 148T534 66T445 11T320 -9Q249 -9 196 11T107 65T53 147T35 249Q35 303 53 350T106 431T195 486T320 506ZM320 375Q270 375 245 341T220 249Q220 192 245 157T320 122Q370 122 395 157T420 249Q420 306 395 340T320 375ZM129 630Q129 657 148 677T196 697Q225 697 244 677T263 630Q263 602 244 583T196 563Q167 563 148 583T129 630ZM378 630Q378 657 397 677T445 697Q474 697 493 677T512 630Q512 602 493 583T445 563Q416 563 397 583T378 630Z"  />
<glyph unicode="&#xF7;" horiz-adv-x="667" d="M608 395V281H59V395H608ZM333 63Q304 63 283 84T262 135Q262 164 283 185T333 206Q362 206 383 185T405 135Q405 106 384 85T333 63ZM333 470Q304 470 283 491T262 541Q262 570 283 591T333 613Q362 613 383 592T405 541Q405 512 384 491T333 470Z"  />
<glyph unicode="&#xF8;" horiz-adv-x="640" d="M551 546L593 508L529 436Q568 399 586 351T605 249Q605 208 591 163T545 79T458 16T323 -9Q286 -9 259 -5T212 5T179 17T158 28L89 -49L47 -12L112 61Q107 66 101 72T84 91Q60 121 48 161T35 246Q35 295 51 342T102 425T190 484T319 506Q362 506 403 498T482 470L551 546ZM380 357Q362 372 346 374T322 377Q294 377 275 367T243 338T226 297T220 248Q220 237 222 221T229 189L380 357ZM261 141Q288 120 321 120Q336 120 353 125T386 146T410 186T420 253Q420 278 417 290T412 308L261 141Z"  />
<glyph unicode="&#xF9;" horiz-adv-x="636" d="M404 0V71Q369 33 329 12T228 -9Q159 -9 122 18T69 81T51 152T49 205V497H225V239Q225 227 225 208T232 171T253 140T297 127Q319 127 337 136T368 159T390 185T404 205V497H580V0H404ZM332 563L152 718H342L426 563H332Z"  />
<glyph unicode="&#xFA;" horiz-adv-x="636" d="M404 0V71Q369 33 329 12T228 -9Q159 -9 122 18T69 81T51 152T49 205V497H225V239Q225 227 225 208T232 171T253 140T297 127Q319 127 337 136T368 159T390 185T404 205V497H580V0H404ZM327 718H517L337 563H243L327 718Z"  />
<glyph unicode="&#xFB;" horiz-adv-x="636" d="M404 0V71Q369 33 329 12T228 -9Q159 -9 122 18T69 81T51 152T49 205V497H225V239Q225 227 225 208T232 171T253 140T297 127Q319 127 337 136T368 159T390 185T404 205V497H580V0H404ZM407 563L319 653L230 563H125L214 732H423L512 563H407Z"  />
<glyph unicode="&#xFC;" horiz-adv-x="636" d="M404 0V71Q369 33 329 12T228 -9Q159 -9 122 18T69 81T51 152T49 205V497H225V239Q225 227 225 208T232 171T253 140T297 127Q319 127 337 136T368 159T390 185T404 205V497H580V0H404ZM127 630Q127 657 146 677T194 697Q223 697 242 677T261 630Q261 602 242 583T194 563Q165 563 146 583T127 630ZM376 630Q376 657 395 677T443 697Q472 697 491 677T510 630Q510 602 491 583T443 563Q414 563 395 583T376 630Z"  />
<glyph unicode="&#xFD;" horiz-adv-x="583" d="M202 497L303 250L418 497H589L251 -226H73L210 65L13 497H202ZM290 718H480L300 563H206L290 718Z"  />
<glyph unicode="&#xFE;" horiz-adv-x="637" d="M231 677V452Q238 458 250 467T279 485T320 500T376 506Q413 506 453 492T526 448T580 369T602 252Q602 204 589 157T546 73T472 14T364 -9Q307 -9 278 4T231 29V-226H55V677H231ZM231 149Q251 138 271 128T320 117Q361 117 389 151T417 248Q417 284 408 308T385 347T354 368T320 374Q301 374 287 370T261 361T243 349T231 339V149Z"  />
<glyph unicode="&#xFF;" horiz-adv-x="583" d="M202 497L303 250L418 497H589L251 -226H73L210 65L13 497H202ZM100 630Q100 657 119 677T167 697Q196 697 215 677T234 630Q234 602 215 583T167 563Q138 563 119 583T100 630ZM349 630Q349 657 368 677T416 697Q445 697 464 677T483 630Q483 602 464 583T416 563Q387 563 368 583T349 630Z"  />
<glyph unicode="&#x100;" horiz-adv-x="833" d="M270 137L214 0H5L304 677H530L828 0H619L564 137H270ZM517 255L418 502L318 255H517ZM228 734V854H605V734H228Z"  />
<glyph unicode="&#x101;" horiz-adv-x="571" d="M52 438Q102 473 162 489T286 506Q397 506 450 463T503 349V157Q503 131 508 117T527 103Q540 103 552 108T572 117V25Q546 14 510 3T422 -9Q397 -9 382 -4T357 10T344 28T337 44Q327 36 314 27T282 9T240 -4T183 -9Q139 -9 111 3T65 33T42 74T35 116Q35 152 49 177T89 222T148 254T224 281Q252 290 269 295T296 304T313 310T327 317Q327 331 325 344T315 369T292 387T249 394Q217 394 189 386T135 365T89 336T52 303V438ZM327 238Q301 227 279 217T241 196T216 170T207 137Q207 110 222 98T255 86Q265 86 276 90T296 99T314 110T327 120V238ZM97 574V694H474V574H97Z"  />
<glyph unicode="&#x102;" horiz-adv-x="833" d="M270 137L214 0H5L304 677H530L828 0H619L564 137H270ZM517 255L418 502L318 255H517ZM319 892Q321 887 327 876T344 853T373 832T417 823Q444 823 461 831T489 850T505 873T514 892H601Q597 861 582 831T543 776T487 738T416 723Q381 723 349 736T292 772T251 825T232 892H319Z"  />
<glyph unicode="&#x103;" horiz-adv-x="571" d="M52 438Q102 473 162 489T286 506Q397 506 450 463T503 349V157Q503 131 508 117T527 103Q540 103 552 108T572 117V25Q546 14 510 3T422 -9Q397 -9 382 -4T357 10T344 28T337 44Q327 36 314 27T282 9T240 -4T183 -9Q139 -9 111 3T65 33T42 74T35 116Q35 152 49 177T89 222T148 254T224 281Q252 290 269 295T296 304T313 310T327 317Q327 331 325 344T315 369T292 387T249 394Q217 394 189 386T135 365T89 336T52 303V438ZM327 238Q301 227 279 217T241 196T216 170T207 137Q207 110 222 98T255 86Q265 86 276 90T296 99T314 110T327 120V238ZM188 732Q190 727 196 716T213 693T242 672T286 663Q313 663 330 671T358 690T374 713T383 732H470Q466 701 451 671T412 616T356 578T285 563Q250 563 218 576T161 612T120 665T101 732H188Z"  />
<glyph unicode="&#x104;" horiz-adv-x="833" d="M619 0L564 137H270L214 0H5L304 677H530L828 0H760Q757 -13 756 -21T754 -41Q754 -59 761 -72T779 -93T805 -106T835 -110Q847 -110 855 -109T866 -107V-197Q841 -207 816 -208T770 -209Q746 -209 725 -201T688 -177T663 -142T654 -98Q654 -58 660 -32T669 0H619ZM517 255L418 502L318 255H517Z"  />
<glyph unicode="&#x105;" horiz-adv-x="571" d="M52 438Q102 473 162 489T286 506Q397 506 450 463T503 349V157Q503 131 508 117T527 103Q540 103 552 108T572 117V25Q552 17 526 8T464 -6Q456 -28 456 -50Q456 -67 472 -82T514 -98Q532 -98 539 -97T557 -91V-175Q537 -185 517 -190T470 -195Q425 -195 395 -166T364 -80Q364 -61 368 -42T382 -3Q357 5 349 19T337 44Q327 36 314 27T282 9T240 -4T183 -9Q139 -9 111 3T65 33T42 74T35 116Q35 152 49 177T89 222T148 254T224 281Q252 290 269 295T296 304T313 310T327 317Q327 331 325 344T315 369T292 387T249 394Q217 394 189 386T135 365T89 336T52 303V438ZM327 238Q301 227 279 217T241 196T216 170T207 137Q207 110 222 98T255 86Q265 86 276 90T296 99T314 110T327 120V238Z"  />
<glyph unicode="&#x106;" horiz-adv-x="743" d="M691 51Q624 16 558 4T424 -9Q334 -9 263 16T143 87T67 197T41 339Q41 429 72 494T157 602T280 665T427 686Q470 686 508 681T580 668T640 651T688 635V455Q674 464 653 476T604 500T544 520T473 528Q429 528 389 515T318 477T268 417T249 336Q249 297 264 263T308 204T376 164T462 149Q503 149 538 157T602 176T653 200T691 222V51ZM418 878H608L428 723H334L418 878Z"  />
<glyph unicode="&#x107;" horiz-adv-x="511" d="M474 339Q462 343 446 347T411 356T374 363T340 366Q320 366 299 360T261 341T232 305T220 250Q220 218 231 196T260 159T299 138T340 131Q371 131 410 141T482 161V23Q452 12 413 2T314 -9Q255 -9 211 5T136 41T86 92T55 149T39 204T35 250Q35 269 39 295T54 350T85 406T136 456T211 492T314 506Q373 506 409 497T474 477V339ZM282 718H472L292 563H198L282 718Z"  />
<glyph unicode="&#x108;" horiz-adv-x="743" d="M691 51Q624 16 558 4T424 -9Q334 -9 263 16T143 87T67 197T41 339Q41 429 72 494T157 602T280 665T427 686Q470 686 508 681T580 668T640 651T688 635V455Q674 464 653 476T604 500T544 520T473 528Q429 528 389 515T318 477T268 417T249 336Q249 297 264 263T308 204T376 164T462 149Q503 149 538 157T602 176T653 200T691 222V51ZM511 723L423 813L334 723H229L318 892H527L616 723H511Z"  />
<glyph unicode="&#x109;" horiz-adv-x="511" d="M474 339Q462 343 446 347T411 356T374 363T340 366Q320 366 299 360T261 341T232 305T220 250Q220 218 231 196T260 159T299 138T340 131Q371 131 410 141T482 161V23Q452 12 413 2T314 -9Q255 -9 211 5T136 41T86 92T55 149T39 204T35 250Q35 269 39 295T54 350T85 406T136 456T211 492T314 506Q373 506 409 497T474 477V339ZM384 563L296 653L207 563H102L191 732H400L489 563H384Z"  />
<glyph unicode="&#x10A;" horiz-adv-x="743" d="M691 51Q624 16 558 4T424 -9Q334 -9 263 16T143 87T67 197T41 339Q41 429 72 494T157 602T280 665T427 686Q470 686 508 681T580 668T640 651T688 635V455Q674 464 653 476T604 500T544 520T473 528Q429 528 389 515T318 477T268 417T249 336Q249 297 264 263T308 204T376 164T462 149Q503 149 538 157T602 176T653 200T691 222V51ZM364 790Q364 817 383 837T431 857Q460 857 479 837T498 790Q498 762 479 743T431 723Q402 723 383 743T364 790Z"  />
<glyph unicode="&#x10B;" horiz-adv-x="511" d="M474 339Q462 343 446 347T411 356T374 363T340 366Q320 366 299 360T261 341T232 305T220 250Q220 218 231 196T260 159T299 138T340 131Q371 131 410 141T482 161V23Q452 12 413 2T314 -9Q255 -9 211 5T136 41T86 92T55 149T39 204T35 250Q35 269 39 295T54 350T85 406T136 456T211 492T314 506Q373 506 409 497T474 477V339ZM229 630Q229 657 248 677T296 697Q325 697 344 677T363 630Q363 602 344 583T296 563Q267 563 248 583T229 630Z"  />
<glyph unicode="&#x10C;" horiz-adv-x="743" d="M691 51Q624 16 558 4T424 -9Q334 -9 263 16T143 87T67 197T41 339Q41 429 72 494T157 602T280 665T427 686Q470 686 508 681T580 668T640 651T688 635V455Q674 464 653 476T604 500T544 520T473 528Q429 528 389 515T318 477T268 417T249 336Q249 297 264 263T308 204T376 164T462 149Q503 149 538 157T602 176T653 200T691 222V51ZM343 892L432 801L520 892H625L536 723H327L238 892H343Z"  />
<glyph unicode="&#x10D;" horiz-adv-x="511" d="M474 339Q462 343 446 347T411 356T374 363T340 366Q320 366 299 360T261 341T232 305T220 250Q220 218 231 196T260 159T299 138T340 131Q371 131 410 141T482 161V23Q452 12 413 2T314 -9Q255 -9 211 5T136 41T86 92T55 149T39 204T35 250Q35 269 39 295T54 350T85 406T136 456T211 492T314 506Q373 506 409 497T474 477V339ZM207 732L296 641L384 732H489L400 563H191L102 732H207Z"  />
<glyph unicode="&#x10E;" horiz-adv-x="822" d="M366 677Q430 677 477 670T559 650T619 623T663 593Q711 554 746 487T781 326Q781 266 768 222T735 145T693 92T654 57Q625 34 591 23T525 6T471 1T440 0H85V677H366ZM289 140H376Q403 140 437 145T502 170T552 228T573 335Q573 402 553 443T502 505T438 534T376 541H289V140ZM312 892L401 801L489 892H594L505 723H296L207 892H312Z"  />
<glyph unicode="&#x10F;" horiz-adv-x="837" d="M406 0V45Q398 39 387 30T358 12T317 -3T261 -9Q223 -9 183 5T110 49T56 128T35 245Q35 293 48 340T91 424T165 483T273 506Q330 506 359 493T406 468V677H582V0H406ZM406 348Q386 359 366 369T317 380Q276 380 248 346T220 249Q220 213 229 189T252 150T283 129T317 123Q354 123 375 136T406 158V348ZM629 379Q652 388 666 402T687 433T697 469T699 506Q663 517 646 539T629 593Q629 611 636 628T656 657T686 678T724 686Q754 686 775 673T811 640T831 595T838 546Q838 517 827 486T791 428T727 380T629 351V379Z"  />
<glyph unicode="&#x110;" horiz-adv-x="822" d="M366 677Q430 677 477 670T559 650T619 623T663 593Q711 554 746 487T781 326Q781 266 768 222T735 145T693 92T654 57Q625 34 591 23T525 6T471 1T440 0H85V286H10V391H85V677H366ZM289 391H428V286H289V140H376Q403 140 437 145T502 170T552 228T573 335Q573 402 553 443T502 505T438 534T376 541H289V391Z"  />
<glyph unicode="&#x111;" horiz-adv-x="637" d="M298 635H406V677H582V635H650V552H582V0H406V45Q398 39 387 30T358 12T317 -3T261 -9Q223 -9 183 5T110 49T56 128T35 245Q35 293 48 340T91 424T165 483T273 506Q330 506 359 493T406 468V552H298V635ZM406 348Q386 359 366 369T317 380Q276 380 248 346T220 249Q220 213 229 189T252 150T283 129T317 123Q354 123 375 136T406 158V348Z"  />
<glyph unicode="&#x112;" horiz-adv-x="647" d="M595 136V0H85V677H587V541H289V417H573V281H289V136H595ZM145 734V854H522V734H145Z"  />
<glyph unicode="&#x113;" horiz-adv-x="596" d="M566 206H216Q226 159 266 131T357 103Q408 103 457 117T553 153V44Q543 39 524 30T476 13T408 -2T320 -9Q249 -9 196 11T107 67T53 149T35 251Q35 305 53 351T106 432T195 486T320 506Q362 506 405 493T484 449T543 367T566 241V206ZM401 293Q401 341 378 369T309 398Q266 398 239 370T211 293H401ZM114 574V694H491V574H114Z"  />
<glyph unicode="&#x114;" horiz-adv-x="647" d="M595 136V0H85V677H587V541H289V417H573V281H289V136H595ZM236 892Q238 887 244 876T261 853T290 832T334 823Q361 823 378 831T406 850T422 873T431 892H518Q514 861 499 831T460 776T404 738T333 723Q298 723 266 736T209 772T168 825T149 892H236Z"  />
<glyph unicode="&#x115;" horiz-adv-x="596" d="M566 206H216Q226 159 266 131T357 103Q408 103 457 117T553 153V44Q543 39 524 30T476 13T408 -2T320 -9Q249 -9 196 11T107 67T53 149T35 251Q35 305 53 351T106 432T195 486T320 506Q362 506 405 493T484 449T543 367T566 241V206ZM401 293Q401 341 378 369T309 398Q266 398 239 370T211 293H401ZM205 732Q207 727 213 716T230 693T259 672T303 663Q330 663 347 671T375 690T391 713T400 732H487Q483 701 468 671T429 616T373 578T302 563Q267 563 235 576T178 612T137 665T118 732H205Z"  />
<glyph unicode="&#x116;" horiz-adv-x="647" d="M595 136V0H85V677H587V541H289V417H573V281H289V136H595ZM266 790Q266 817 285 837T333 857Q362 857 381 837T400 790Q400 762 381 743T333 723Q304 723 285 743T266 790Z"  />
<glyph unicode="&#x117;" horiz-adv-x="596" d="M566 206H216Q226 159 266 131T357 103Q408 103 457 117T553 153V44Q543 39 524 30T476 13T408 -2T320 -9Q249 -9 196 11T107 67T53 149T35 251Q35 305 53 351T106 432T195 486T320 506Q362 506 405 493T484 449T543 367T566 241V206ZM401 293Q401 341 378 369T309 398Q266 398 239 370T211 293H401ZM236 630Q236 657 255 677T303 697Q332 697 351 677T370 630Q370 602 351 583T303 563Q274 563 255 583T236 630Z"  />
<glyph unicode="&#x118;" horiz-adv-x="647" d="M85 0V677H587V541H289V417H573V281H289V136H595V0H489Q486 -13 485 -21T483 -41Q483 -59 490 -72T508 -93T534 -106T564 -110Q576 -110 584 -109T595 -107V-197Q570 -207 545 -208T499 -209Q475 -209 454 -201T417 -177T392 -142T383 -98Q383 -58 389 -32T398 0H85Z"  />
<glyph unicode="&#x119;" horiz-adv-x="596" d="M566 206H216Q226 159 266 131T357 103Q408 103 457 117T553 153V44Q539 36 509 23T430 1Q419 -23 419 -50Q419 -67 435 -82T477 -98Q495 -98 502 -97T520 -91V-175Q500 -185 480 -190T433 -195Q388 -195 358 -166T327 -80Q327 -62 330 -44T343 -8Q337 -9 332 -9T320 -9Q249 -9 196 11T107 67T53 149T35 251Q35 305 53 351T106 432T195 486T320 506Q362 506 405 493T484 449T543 367T566 241V206ZM401 293Q401 341 378 369T309 398Q266 398 239 370T211 293H401Z"  />
<glyph unicode="&#x11A;" horiz-adv-x="647" d="M595 136V0H85V677H587V541H289V417H573V281H289V136H595ZM245 892L334 801L422 892H527L438 723H229L140 892H245Z"  />
<glyph unicode="&#x11B;" horiz-adv-x="596" d="M566 206H216Q226 159 266 131T357 103Q408 103 457 117T553 153V44Q543 39 524 30T476 13T408 -2T320 -9Q249 -9 196 11T107 67T53 149T35 251Q35 305 53 351T106 432T195 486T320 506Q362 506 405 493T484 449T543 367T566 241V206ZM401 293Q401 341 378 369T309 398Q266 398 239 370T211 293H401ZM214 732L303 641L391 732H496L407 563H198L109 732H214Z"  />
<glyph unicode="&#x11C;" horiz-adv-x="799" d="M710 477Q695 486 674 496T626 517T563 533T485 540Q413 540 367 519T295 466T259 399T249 337Q249 299 262 265T302 205T369 163T462 147Q488 147 508 150T545 157V237H453V373H723V48Q693 37 669 29T614 13Q576 4 528 -2T424 -9Q349 -9 280 11T158 74T73 182T41 340Q41 374 47 410T66 480T100 546T151 600Q187 628 223 645T295 671T366 683T435 686Q486 686 529 681T606 667T667 651T710 637V477ZM518 723L430 813L341 723H236L325 892H534L623 723H518Z"  />
<glyph unicode="&#x11D;" horiz-adv-x="563" d="M556 391H469Q483 379 499 355T515 293Q515 262 502 234T465 184T403 148T318 131Q309 131 299 130T279 125T264 115T257 98Q257 80 276 76T346 67Q358 66 377 64T418 57T460 42T499 17T526 -22T537 -77Q537 -111 524 -140T481 -190T402 -223T282 -235Q212 -235 163 -225T84 -198T39 -156T25 -104Q25 -97 28 -82T43 -50T78 -19T143 0Q125 7 113 25T100 63Q100 73 103 85T115 110T138 133T176 147Q152 153 128 165T84 198T52 245T39 307Q39 357 58 393T110 452T187 486T283 497H556V391ZM192 305Q192 273 214 250T274 226Q312 226 337 250T362 307Q362 326 355 341T335 368T309 384T279 390Q257 390 241 382T214 361T198 333T192 305ZM290 -41Q229 -41 202 -53T175 -95Q175 -116 189 -127T223 -144T260 -150T287 -151Q335 -151 366 -137T397 -93Q397 -74 384 -64T353 -48T317 -42T290 -41ZM370 563L282 653L193 563H88L177 732H386L475 563H370Z"  />
<glyph unicode="&#x11E;" horiz-adv-x="799" d="M710 477Q695 486 674 496T626 517T563 533T485 540Q413 540 367 519T295 466T259 399T249 337Q249 299 262 265T302 205T369 163T462 147Q488 147 508 150T545 157V237H453V373H723V48Q693 37 669 29T614 13Q576 4 528 -2T424 -9Q349 -9 280 11T158 74T73 182T41 340Q41 374 47 410T66 480T100 546T151 600Q187 628 223 645T295 671T366 683T435 686Q486 686 529 681T606 667T667 651T710 637V477ZM342 892Q344 887 350 876T367 853T396 832T440 823Q467 823 484 831T512 850T528 873T537 892H624Q620 861 605 831T566 776T510 738T439 723Q404 723 372 736T315 772T274 825T255 892H342Z"  />
<glyph unicode="&#x11F;" horiz-adv-x="563" d="M556 391H469Q483 379 499 355T515 293Q515 262 502 234T465 184T403 148T318 131Q309 131 299 130T279 125T264 115T257 98Q257 80 276 76T346 67Q358 66 377 64T418 57T460 42T499 17T526 -22T537 -77Q537 -111 524 -140T481 -190T402 -223T282 -235Q212 -235 163 -225T84 -198T39 -156T25 -104Q25 -97 28 -82T43 -50T78 -19T143 0Q125 7 113 25T100 63Q100 73 103 85T115 110T138 133T176 147Q152 153 128 165T84 198T52 245T39 307Q39 357 58 393T110 452T187 486T283 497H556V391ZM192 305Q192 273 214 250T274 226Q312 226 337 250T362 307Q362 326 355 341T335 368T309 384T279 390Q257 390 241 382T214 361T198 333T192 305ZM290 -41Q229 -41 202 -53T175 -95Q175 -116 189 -127T223 -144T260 -150T287 -151Q335 -151 366 -137T397 -93Q397 -74 384 -64T353 -48T317 -42T290 -41ZM186 732Q188 727 194 716T211 693T240 672T284 663Q311 663 328 671T356 690T372 713T381 732H468Q464 701 449 671T410 616T354 578T283 563Q248 563 216 576T159 612T118 665T99 732H186Z"  />
<glyph unicode="&#x120;" horiz-adv-x="799" d="M710 477Q695 486 674 496T626 517T563 533T485 540Q413 540 367 519T295 466T259 399T249 337Q249 299 262 265T302 205T369 163T462 147Q488 147 508 150T545 157V237H453V373H723V48Q693 37 669 29T614 13Q576 4 528 -2T424 -9Q349 -9 280 11T158 74T73 182T41 340Q41 374 47 410T66 480T100 546T151 600Q187 628 223 645T295 671T366 683T435 686Q486 686 529 681T606 667T667 651T710 637V477ZM360 790Q360 817 379 837T427 857Q456 857 475 837T494 790Q494 762 475 743T427 723Q398 723 379 743T360 790Z"  />
<glyph unicode="&#x121;" horiz-adv-x="563" d="M556 391H469Q483 379 499 355T515 293Q515 262 502 234T465 184T403 148T318 131Q309 131 299 130T279 125T264 115T257 98Q257 80 276 76T346 67Q358 66 377 64T418 57T460 42T499 17T526 -22T537 -77Q537 -111 524 -140T481 -190T402 -223T282 -235Q212 -235 163 -225T84 -198T39 -156T25 -104Q25 -97 28 -82T43 -50T78 -19T143 0Q125 7 113 25T100 63Q100 73 103 85T115 110T138 133T176 147Q152 153 128 165T84 198T52 245T39 307Q39 357 58 393T110 452T187 486T283 497H556V391ZM192 305Q192 273 214 250T274 226Q312 226 337 250T362 307Q362 326 355 341T335 368T309 384T279 390Q257 390 241 382T214 361T198 333T192 305ZM290 -41Q229 -41 202 -53T175 -95Q175 -116 189 -127T223 -144T260 -150T287 -151Q335 -151 366 -137T397 -93Q397 -74 384 -64T353 -48T317 -42T290 -41ZM214 630Q214 657 233 677T281 697Q310 697 329 677T348 630Q348 602 329 583T281 563Q252 563 233 583T214 630Z"  />
<glyph unicode="&#x122;" horiz-adv-x="799" d="M710 477Q695 486 674 496T626 517T563 533T485 540Q413 540 367 519T295 466T259 399T249 337Q249 299 262 265T302 205T369 163T462 147Q488 147 508 150T545 157V237H453V373H723V48Q693 37 669 29T614 13Q576 4 528 -2T424 -9Q349 -9 280 11T158 74T73 182T41 340Q41 374 47 410T66 480T100 546T151 600Q187 628 223 645T295 671T366 683T435 686Q486 686 529 681T606 667T667 651T710 637V477ZM309 -169Q316 -170 321 -170T335 -170Q380 -170 395 -163T411 -138Q411 -129 404 -124T385 -115T358 -112T326 -111L331 -56H391Q433 -56 466 -60T523 -74T558 -103T570 -151Q570 -196 526 -218T410 -241Q384 -241 359 -237T309 -226V-169Z"  />
<glyph unicode="&#x123;" horiz-adv-x="563" d="M556 391H469Q483 379 499 355T515 293Q515 262 502 234T465 184T403 148T318 131Q309 131 299 130T279 125T264 115T257 98Q257 80 276 76T346 67Q358 66 377 64T418 57T460 42T499 17T526 -22T537 -77Q537 -111 524 -140T481 -190T402 -223T282 -235Q212 -235 163 -225T84 -198T39 -156T25 -104Q25 -97 28 -82T43 -50T78 -19T143 0Q125 7 113 25T100 63Q100 73 103 85T115 110T138 133T176 147Q152 153 128 165T84 198T52 245T39 307Q39 357 58 393T110 452T187 486T283 497H556V391ZM192 305Q192 273 214 250T274 226Q312 226 337 250T362 307Q362 326 355 341T335 368T309 384T279 390Q257 390 241 382T214 361T198 333T192 305ZM290 -41Q229 -41 202 -53T175 -95Q175 -116 189 -127T223 -144T260 -150T287 -151Q335 -151 366 -137T397 -93Q397 -74 384 -64T353 -48T317 -42T290 -41ZM361 748Q356 743 349 735T336 715T325 688T323 654Q338 648 346 640T359 624T364 609T365 599Q365 573 344 558T297 542Q283 542 269 547T242 562T222 588T214 626Q214 652 225 677T256 722T303 755T361 770V748Z"  />
<glyph unicode="&#x124;" horiz-adv-x="885" d="M289 264V0H85V677H289V428H596V677H800V0H596V264H289ZM531 723L443 813L354 723H249L338 892H547L636 723H531Z"  />
<glyph unicode="&#x125;" horiz-adv-x="636" d="M232 677V426Q278 475 322 490T408 506Q448 506 481 495T538 460T574 397T587 305V0H411V258Q411 259 411 277T407 315T386 353T339 370Q319 370 303 362T274 342T250 317T232 292V0H56V677H232ZM406 723L318 813L229 723H124L213 892H422L511 723H406Z"  />
<glyph unicode="&#x126;" horiz-adv-x="885" d="M85 612V677H289V612H596V677H800V612H872V507H800V0H596V264H289V0H85V507H13V612H85ZM596 428V507H289V428H596Z"  />
<glyph unicode="&#x127;" horiz-adv-x="636" d="M232 552V426Q278 475 322 490T408 506Q448 506 481 495T538 460T574 397T587 305V0H411V258Q411 259 411 277T407 315T386 353T339 370Q319 370 303 362T274 342T250 317T232 292V0H56V552H-12V635H56V677H232V635H428V552H232Z"  />
<glyph unicode="&#x128;" horiz-adv-x="376" d="M290 677V0H86V677H290ZM381 879Q381 803 350 763T266 723Q247 723 225 729T182 744T143 758T112 765Q90 765 82 751T72 723H-6Q-6 765 5 795T33 843T70 870T108 879Q126 879 148 873T193 858Q215 850 234 843T264 836Q284 836 293 850T302 879H381Z"  />
<glyph unicode="&#x129;" horiz-adv-x="306" d="M241 497V0H65V497H241ZM347 719Q347 643 316 603T232 563Q213 563 191 569T148 584T109 598T78 605Q56 605 48 591T38 563H-40Q-40 605 -29 635T-1 683T36 710T74 719Q92 719 114 713T159 698Q181 690 200 683T230 676Q250 676 259 690T268 719H347Z"  />
<glyph unicode="&#x12A;" horiz-adv-x="376" d="M290 677V0H86V677H290ZM-1 734V854H376V734H-1Z"  />
<glyph unicode="&#x12B;" horiz-adv-x="306" d="M241 497V0H65V497H241ZM-35 574V694H342V574H-35Z"  />
<glyph unicode="&#x12C;" horiz-adv-x="376" d="M290 677V0H86V677H290ZM90 892Q92 887 98 876T115 853T144 832T188 823Q215 823 232 831T260 850T276 873T285 892H372Q368 861 353 831T314 776T258 738T187 723Q152 723 120 736T63 772T22 825T3 892H90Z"  />
<glyph unicode="&#x12D;" horiz-adv-x="306" d="M241 497V0H65V497H241ZM56 732Q58 727 64 716T81 693T110 672T154 663Q181 663 198 671T226 690T242 713T251 732H338Q334 701 319 671T280 616T224 578T153 563Q118 563 86 576T29 612T-12 665T-31 732H56Z"  />
<glyph unicode="&#x12E;" horiz-adv-x="376" d="M86 0V677H290V0H219Q216 -13 215 -21T213 -41Q213 -59 220 -72T238 -93T264 -106T294 -110Q306 -110 314 -109T325 -107V-197Q300 -207 275 -208T229 -209Q205 -209 184 -201T147 -177T122 -142T113 -98Q113 -58 119 -32T128 0H86Z"  />
<glyph unicode="&#x12F;" horiz-adv-x="306" d="M241 497V0H185Q174 -24 174 -50Q174 -67 190 -82T232 -98Q250 -98 257 -97T275 -91V-175Q255 -185 235 -190T188 -195Q143 -195 113 -166T82 -80Q82 -60 86 -40T102 0H65V497H241ZM153 686Q184 686 205 665T227 612Q227 581 206 560T153 538Q122 538 101 559T79 612Q79 643 100 664T153 686Z"  />
<glyph unicode="&#x130;" horiz-adv-x="376" d="M290 677V0H86V677H290ZM121 790Q121 817 140 837T188 857Q217 857 236 837T255 790Q255 762 236 743T188 723Q159 723 140 743T121 790Z"  />
<glyph unicode="&#x131;" horiz-adv-x="306" d="M241 497V0H65V497H241Z"  />
<glyph unicode="&#x132;" horiz-adv-x="772" d="M290 677V0H86V677H290ZM686 677V84Q686 30 681 -23T652 -120T584 -190T457 -217Q431 -217 416 -215T384 -210L353 -47Q379 -46 400 -45T436 -38T462 -21T477 10Q479 19 480 38T481 79T482 121T482 153V677H686Z"  />
<glyph unicode="&#x133;" horiz-adv-x="612" d="M241 497V0H65V497H241ZM153 686Q184 686 205 665T227 612Q227 581 206 560T153 538Q122 538 101 559T79 612Q79 643 100 664T153 686ZM547 497V-29Q547 -88 527 -127T478 -191T415 -225T356 -235L297 -101Q322 -93 336 -82T358 -54T368 -10T371 53V497H547ZM459 686Q490 686 511 665T533 612Q533 581 512 560T459 538Q428 538 407 559T385 612Q385 643 406 664T459 686Z"  />
<glyph unicode="&#x134;" horiz-adv-x="396" d="M310 677V84Q310 30 305 -23T276 -120T208 -190T81 -217Q55 -217 40 -215T8 -210L-23 -47Q3 -46 24 -45T60 -38T86 -21T101 10Q103 19 104 38T105 79T106 121T106 153V677H310ZM286 723L198 813L109 723H4L93 892H302L391 723H286Z"  />
<glyph unicode="&#x135;" horiz-adv-x="306" d="M241 497V-29Q241 -88 221 -127T172 -191T109 -225T50 -235L-9 -101Q16 -93 30 -82T52 -54T62 -10T65 53V497H241ZM241 563L153 653L64 563H-41L48 732H257L346 563H241Z"  />
<glyph unicode="&#x136;" horiz-adv-x="801" d="M289 677V374L534 677H756L504 360L797 0H548L289 317V0H85V677H289ZM280 -169Q287 -170 292 -170T306 -170Q351 -170 366 -163T382 -138Q382 -129 375 -124T356 -115T329 -112T297 -111L302 -56H362Q404 -56 437 -60T494 -74T529 -103T541 -151Q541 -196 497 -218T381 -241Q355 -241 330 -237T280 -226V-169Z"  />
<glyph unicode="&#x137;" horiz-adv-x="647" d="M233 677V280L407 497H618L424 265L647 0H424L233 236V0H55V677H233ZM241 -119Q269 -121 285 -120T309 -117T319 -110T321 -100Q321 -93 311 -86T278 -79V-30Q329 -30 360 -35T408 -51T431 -74T437 -104Q437 -136 407 -161T322 -186Q298 -186 278 -183T241 -176V-119Z"  />
<glyph unicode="&#x138;" horiz-adv-x="647" d="M233 497V280L407 497H618L424 265L647 0H424L233 236V0H55V497H233Z"  />
<glyph unicode="&#x139;" horiz-adv-x="633" d="M289 677V162H599V0H85V677H289ZM203 878H393L213 723H119L203 878Z"  />
<glyph unicode="&#x13A;" horiz-adv-x="306" d="M241 677V0H65V677H241ZM150 878H340L160 723H66L150 878Z"  />
<glyph unicode="&#x13B;" horiz-adv-x="633" d="M289 677V162H599V0H85V677H289ZM206 -169Q213 -170 218 -170T232 -170Q277 -170 292 -163T308 -138Q308 -129 301 -124T282 -115T255 -112T223 -111L228 -56H288Q330 -56 363 -60T420 -74T455 -103T467 -151Q467 -196 423 -218T307 -241Q281 -241 256 -237T206 -226V-169Z"  />
<glyph unicode="&#x13C;" horiz-adv-x="306" d="M241 677V0H65V677H241ZM55 -119Q83 -121 99 -120T123 -117T133 -110T135 -100Q135 -93 125 -86T92 -79V-30Q143 -30 174 -35T222 -51T245 -74T251 -104Q251 -136 221 -161T136 -186Q112 -186 92 -183T55 -176V-119Z"  />
<glyph unicode="&#x13D;" horiz-adv-x="633" d="M384 379Q407 388 421 402T442 433T452 469T454 506Q418 517 401 539T384 593Q384 611 391 628T411 657T441 678T479 686Q509 686 530 673T566 640T586 595T593 546Q593 517 582 486T546 428T482 380T384 351V379ZM289 677V162H599V0H85V677H289Z"  />
<glyph unicode="&#x13E;" horiz-adv-x="499" d="M241 677V0H65V677H241ZM291 379Q314 388 328 402T349 433T359 469T361 506Q325 517 308 539T291 593Q291 611 298 628T318 657T348 678T386 686Q416 686 437 673T473 640T493 595T500 546Q500 517 489 486T453 428T389 380T291 351V379Z"  />
<glyph unicode="&#x13F;" horiz-adv-x="633" d="M466 471Q504 471 530 445T557 380Q557 361 550 344T531 315T502 295T466 287Q447 287 431 294T402 314T382 343T375 380Q375 419 401 445T466 471ZM289 677V162H599V0H85V677H289Z"  />
<glyph unicode="&#x140;" horiz-adv-x="378" d="M241 677V0H65V677H241ZM276 347Q276 374 295 394T343 414Q372 414 391 394T410 347Q410 319 391 300T343 280Q314 280 295 300T276 347Z"  />
<glyph unicode="&#x141;" horiz-adv-x="633" d="M416 573V440L289 343V162H599V0H85V187L-6 117V250L85 320V677H289V476L416 573Z"  />
<glyph unicode="&#x142;" horiz-adv-x="306" d="M311 513V407L241 353V0H65V219L-5 165V271L65 325V677H241V459L311 513Z"  />
<glyph unicode="&#x143;" horiz-adv-x="905" d="M266 677L616 302V677H820V0H638L287 377V0H85V677H266ZM459 878H649L469 723H375L459 878Z"  />
<glyph unicode="&#x144;" horiz-adv-x="636" d="M232 497V426Q274 471 316 488T408 506Q477 506 514 479T567 416T585 345T587 292V0H411V258Q411 270 411 289T404 326T382 357T339 370Q317 370 300 361T269 339T247 313T232 292V0H56V497H232ZM315 718H505L325 563H231L315 718Z"  />
<glyph unicode="&#x145;" horiz-adv-x="905" d="M266 677L616 302V677H820V0H638L287 377V0H85V677H266ZM332 -169Q339 -170 344 -170T358 -170Q403 -170 418 -163T434 -138Q434 -129 427 -124T408 -115T381 -112T349 -111L354 -56H414Q456 -56 489 -60T546 -74T581 -103T593 -151Q593 -196 549 -218T433 -241Q407 -241 382 -237T332 -226V-169Z"  />
<glyph unicode="&#x146;" horiz-adv-x="636" d="M232 497V426Q274 471 316 488T408 506Q477 506 514 479T567 416T585 345T587 292V0H411V258Q411 270 411 289T404 326T382 357T339 370Q317 370 300 361T269 339T247 313T232 292V0H56V497H232ZM233 -119Q261 -121 277 -120T301 -117T311 -110T313 -100Q313 -93 303 -86T270 -79V-30Q321 -30 352 -35T400 -51T423 -74T429 -104Q429 -136 399 -161T314 -186Q290 -186 270 -183T233 -176V-119Z"  />
<glyph unicode="&#x147;" horiz-adv-x="905" d="M266 677L616 302V677H820V0H638L287 377V0H85V677H266ZM364 892L453 801L541 892H646L557 723H348L259 892H364Z"  />
<glyph unicode="&#x148;" horiz-adv-x="636" d="M232 497V426Q274 471 316 488T408 506Q477 506 514 479T567 416T585 345T587 292V0H411V258Q411 270 411 289T404 326T382 357T339 370Q317 370 300 361T269 339T247 313T232 292V0H56V497H232ZM229 732L318 641L406 732H511L422 563H213L124 732H229Z"  />
<glyph unicode="&#x149;" horiz-adv-x="847" d="M41 407Q47 414 55 425T71 453T83 489T86 535Q67 543 57 555T42 578T36 599T35 612Q35 630 42 645T62 670T89 685T119 691Q135 691 152 685T184 664T207 628T217 576Q217 541 205 508T169 446T114 400T41 377V407ZM443 497V426Q485 471 527 488T619 506Q688 506 725 479T778 416T796 345T798 292V0H622V258Q622 270 622 289T615 326T593 357T550 370Q528 370 511 361T480 339T458 313T443 292V0H267V497H443Z"  />
<glyph unicode="&#x14A;" horiz-adv-x="885" d="M810 275Q810 210 796 158T750 69T667 12T543 -8Q528 -8 514 -7T483 -4L492 144Q501 142 507 142T519 141Q529 141 544 146T572 166T596 204T606 265V352Q606 388 599 419T575 474T529 512T453 526Q412 526 384 515T338 488T308 452T289 415V0H85V677H289V588Q303 602 321 619T366 651T429 676T517 686Q598 686 653 661T744 591T794 484T810 348V275Z"  />
<glyph unicode="&#x14B;" horiz-adv-x="636" d="M587 -29Q587 -88 567 -127T518 -191T455 -225T396 -235L337 -101Q362 -93 376 -82T398 -54T408 -10T411 53V258Q411 270 411 289T404 326T382 357T339 370Q317 370 300 361T269 339T247 313T232 292V0H56V497H232V426Q274 471 316 488T408 506Q477 506 514 479T567 416T585 345T587 292V-29Z"  />
<glyph unicode="&#x14C;" horiz-adv-x="851" d="M809 339Q809 269 785 206T713 95T593 19T425 -9Q326 -9 254 21T134 99T64 210T41 339Q41 405 63 467T133 578T253 656T425 686Q522 686 594 658T714 581T785 471T809 339ZM249 339Q249 301 261 269T295 214T350 178T425 165Q467 165 500 178T555 214T589 269T601 339Q601 376 590 408T556 463T500 499T425 512Q341 512 295 464T249 339ZM237 734V854H614V734H237Z"  />
<glyph unicode="&#x14D;" horiz-adv-x="640" d="M320 506Q391 506 444 486T533 432T587 350T605 249Q605 195 587 148T534 66T445 11T320 -9Q249 -9 196 11T107 65T53 147T35 249Q35 303 53 350T106 431T195 486T320 506ZM320 375Q270 375 245 341T220 249Q220 192 245 157T320 122Q370 122 395 157T420 249Q420 306 395 340T320 375ZM131 574V694H508V574H131Z"  />
<glyph unicode="&#x14E;" horiz-adv-x="851" d="M809 339Q809 269 785 206T713 95T593 19T425 -9Q326 -9 254 21T134 99T64 210T41 339Q41 405 63 467T133 578T253 656T425 686Q522 686 594 658T714 581T785 471T809 339ZM249 339Q249 301 261 269T295 214T350 178T425 165Q467 165 500 178T555 214T589 269T601 339Q601 376 590 408T556 463T500 499T425 512Q341 512 295 464T249 339ZM328 892Q330 887 336 876T353 853T382 832T426 823Q453 823 470 831T498 850T514 873T523 892H610Q606 861 591 831T552 776T496 738T425 723Q390 723 358 736T301 772T260 825T241 892H328Z"  />
<glyph unicode="&#x14F;" horiz-adv-x="640" d="M320 506Q391 506 444 486T533 432T587 350T605 249Q605 195 587 148T534 66T445 11T320 -9Q249 -9 196 11T107 65T53 147T35 249Q35 303 53 350T106 431T195 486T320 506ZM320 375Q270 375 245 341T220 249Q220 192 245 157T320 122Q370 122 395 157T420 249Q420 306 395 340T320 375ZM222 732Q224 727 230 716T247 693T276 672T320 663Q347 663 364 671T392 690T408 713T417 732H504Q500 701 485 671T446 616T390 578T319 563Q284 563 252 576T195 612T154 665T135 732H222Z"  />
<glyph unicode="&#x150;" horiz-adv-x="851" d="M809 339Q809 269 785 206T713 95T593 19T425 -9Q326 -9 254 21T134 99T64 210T41 339Q41 405 63 467T133 578T253 656T425 686Q522 686 594 658T714 581T785 471T809 339ZM249 339Q249 301 261 269T295 214T350 178T425 165Q467 165 500 178T555 214T589 269T601 339Q601 376 590 408T556 463T500 499T425 512Q341 512 295 464T249 339ZM544 878H734L554 723H460L544 878ZM308 878H498L318 723H225L308 878Z"  />
<glyph unicode="&#x151;" horiz-adv-x="640" d="M320 506Q391 506 444 486T533 432T587 350T605 249Q605 195 587 148T534 66T445 11T320 -9Q249 -9 196 11T107 65T53 147T35 249Q35 303 53 350T106 431T195 486T320 506ZM320 375Q270 375 245 341T220 249Q220 192 245 157T320 122Q370 122 395 157T420 249Q420 306 395 340T320 375ZM444 718H634L454 563H360L444 718ZM208 718H398L218 563H125L208 718Z"  />
<glyph unicode="&#x152;" horiz-adv-x="1083" d="M731 541V417H1007V281H731V136H1031V0H441Q420 0 389 1T322 8T248 28T172 68Q128 98 103 135T63 211T45 285T41 344Q41 375 46 410T65 478T101 543T157 601Q195 630 237 645T323 668T406 676T479 677H1026V541H731ZM527 541H493Q432 541 387 531T311 498T265 436T249 339Q249 281 264 242T310 180T386 146T493 136H527V541Z"  />
<glyph unicode="&#x153;" horiz-adv-x="939" d="M909 206H580Q583 170 602 150T644 119T688 106T719 103Q748 103 775 108T825 122T866 138T897 152V41Q862 26 809 9T679 -9Q646 -9 620 -5T574 5T538 21T506 41Q494 33 480 24T445 8T395 -4T326 -9Q251 -9 197 11T106 65T53 146T35 243Q35 300 53 348T106 431T194 486T316 506Q354 506 383 501T433 489T470 474T495 460Q523 476 559 491T656 506Q700 506 745 493T826 449T886 367T909 240V206ZM753 293Q751 306 747 324T732 358T705 386T661 397Q634 397 618 387T593 362T581 329T578 293H753ZM320 375Q275 375 248 344T220 249Q220 225 225 202T243 161T274 133T320 122Q361 122 390 152T420 249Q420 312 393 343T320 375Z"  />
<glyph unicode="&#x154;" horiz-adv-x="748" d="M432 677Q500 677 546 655T619 601T659 533T671 467Q671 424 658 394T626 345T589 314T560 298Q574 289 586 281T610 257T637 216T672 147L740 0H521L468 120Q445 171 427 200T390 243T354 260T312 264H289V0H85V677H432ZM289 547V384H333Q369 384 394 387T434 400T456 424T463 463Q463 511 432 529T332 547H289ZM338 878H528L348 723H254L338 878Z"  />
<glyph unicode="&#x155;" horiz-adv-x="493" d="M231 497V377Q237 393 250 415T284 458T330 492T388 506Q423 506 446 495T493 470L428 294Q408 314 389 323T347 332Q330 332 315 327T285 309T258 273T231 214V0H55V497H231ZM253 718H443L263 563H169L253 718Z"  />
<glyph unicode="&#x156;" horiz-adv-x="748" d="M432 677Q500 677 546 655T619 601T659 533T671 467Q671 424 658 394T626 345T589 314T560 298Q574 289 586 281T610 257T637 216T672 147L740 0H521L468 120Q445 171 427 200T390 243T354 260T312 264H289V0H85V677H432ZM289 547V384H333Q369 384 394 387T434 400T456 424T463 463Q463 511 432 529T332 547H289ZM273 -169Q280 -170 285 -170T299 -170Q344 -170 359 -163T375 -138Q375 -129 368 -124T349 -115T322 -112T290 -111L295 -56H355Q397 -56 430 -60T487 -74T522 -103T534 -151Q534 -196 490 -218T374 -241Q348 -241 323 -237T273 -226V-169Z"  />
<glyph unicode="&#x157;" horiz-adv-x="493" d="M231 497V377Q237 393 250 415T284 458T330 492T388 506Q423 506 446 495T493 470L428 294Q408 314 389 323T347 332Q330 332 315 327T285 309T258 273T231 214V0H55V497H231ZM64 -119Q92 -121 108 -120T132 -117T142 -110T144 -100Q144 -93 134 -86T101 -79V-30Q152 -30 183 -35T231 -51T254 -74T260 -104Q260 -136 230 -161T145 -186Q121 -186 101 -183T64 -176V-119Z"  />
<glyph unicode="&#x158;" horiz-adv-x="748" d="M432 677Q500 677 546 655T619 601T659 533T671 467Q671 424 658 394T626 345T589 314T560 298Q574 289 586 281T610 257T637 216T672 147L740 0H521L468 120Q445 171 427 200T390 243T354 260T312 264H289V0H85V677H432ZM289 547V384H333Q369 384 394 387T434 400T456 424T463 463Q463 511 432 529T332 547H289ZM250 892L339 801L427 892H532L443 723H234L145 892H250Z"  />
<glyph unicode="&#x159;" horiz-adv-x="493" d="M231 497V377Q237 393 250 415T284 458T330 492T388 506Q423 506 446 495T493 470L428 294Q408 314 389 323T347 332Q330 332 315 327T285 309T258 273T231 214V0H55V497H231ZM158 732L247 641L335 732H440L351 563H142L53 732H158Z"  />
<glyph unicode="&#x15A;" horiz-adv-x="612" d="M529 470Q514 480 493 493T446 519T390 539T327 547Q285 547 270 531T255 496Q255 475 272 461T333 426Q384 402 425 380T496 332T542 274T558 197Q558 149 539 111T486 46T405 5T302 -9Q295 -9 275 -8T223 -2T151 14T64 45V211Q78 202 99 190T148 165T206 145T271 137Q301 137 318 144T343 159T352 176T354 187Q354 202 346 214T323 236T291 254T251 272Q215 287 181 306T119 350T75 410T58 490Q58 529 72 564T117 627T193 670T302 686Q350 686 389 679T458 661T505 642T529 629V470ZM283 878H473L293 723H199L283 878Z"  />
<glyph unicode="&#x15B;" horiz-adv-x="484" d="M419 344Q411 348 398 356T366 373T324 387T275 394Q258 394 248 390T232 380T224 368T222 359Q222 354 223 349T231 338T250 326T286 310Q331 293 361 276T410 239T437 196T445 145Q445 113 434 85T398 36T336 3T246 -9Q184 -9 138 3T54 30V155Q81 139 119 121T203 103Q227 103 248 110T269 139Q269 148 264 156T246 172T213 189T163 211Q143 220 123 233T85 264T57 305T46 357Q46 383 58 409T95 457T158 492T248 506Q252 506 268 506T308 501T361 489T419 466V344ZM239 718H429L249 563H155L239 718Z"  />
<glyph unicode="&#x15C;" horiz-adv-x="612" d="M529 470Q514 480 493 493T446 519T390 539T327 547Q285 547 270 531T255 496Q255 475 272 461T333 426Q384 402 425 380T496 332T542 274T558 197Q558 149 539 111T486 46T405 5T302 -9Q295 -9 275 -8T223 -2T151 14T64 45V211Q78 202 99 190T148 165T206 145T271 137Q301 137 318 144T343 159T352 176T354 187Q354 202 346 214T323 236T291 254T251 272Q215 287 181 306T119 350T75 410T58 490Q58 529 72 564T117 627T193 670T302 686Q350 686 389 679T458 661T505 642T529 629V470ZM394 723L306 813L217 723H112L201 892H410L499 723H394Z"  />
<glyph unicode="&#x15D;" horiz-adv-x="484" d="M419 344Q411 348 398 356T366 373T324 387T275 394Q258 394 248 390T232 380T224 368T222 359Q222 354 223 349T231 338T250 326T286 310Q331 293 361 276T410 239T437 196T445 145Q445 113 434 85T398 36T336 3T246 -9Q184 -9 138 3T54 30V155Q81 139 119 121T203 103Q227 103 248 110T269 139Q269 148 264 156T246 172T213 189T163 211Q143 220 123 233T85 264T57 305T46 357Q46 383 58 409T95 457T158 492T248 506Q252 506 268 506T308 501T361 489T419 466V344ZM330 563L242 653L153 563H48L137 732H346L435 563H330Z"  />
<glyph unicode="&#x15E;" horiz-adv-x="612" d="M529 470Q514 480 493 493T446 519T390 539T327 547Q285 547 270 531T255 496Q255 475 272 461T333 426Q384 402 425 380T496 332T542 274T558 197Q558 155 544 121T503 61T440 18T358 -5L347 -29Q387 -39 408 -60T430 -113Q430 -132 422 -149T394 -180T344 -202T269 -210H173V-143Q191 -143 208 -142T239 -136T261 -125T270 -104Q270 -89 260 -82T223 -73L270 -8Q239 -6 186 4T64 45V211Q78 202 99 190T148 165T206 145T271 137Q301 137 318 144T343 159T352 176T354 187Q354 202 346 214T323 236T291 254T251 272Q215 287 181 306T119 350T75 410T58 490Q58 529 72 564T117 627T193 670T302 686Q350 686 389 679T458 661T505 642T529 629V470Z"  />
<glyph unicode="&#x15F;" horiz-adv-x="484" d="M419 344Q411 348 398 356T366 373T324 387T275 394Q258 394 248 390T232 380T224 368T222 359Q222 354 223 349T231 338T250 326T286 310Q331 293 361 276T410 239T437 196T445 145Q445 115 435 89T405 43T352 9T277 -8L267 -29Q307 -39 328 -60T350 -113Q350 -132 342 -149T314 -180T264 -202T189 -210H93V-143Q111 -143 128 -142T159 -136T181 -125T190 -104Q190 -89 180 -82T143 -73L192 -6Q150 -1 117 9T54 30V155Q81 139 119 121T203 103Q227 103 248 110T269 139Q269 148 264 156T246 172T213 189T163 211Q143 220 123 233T85 264T57 305T46 357Q46 383 58 409T95 457T158 492T248 506Q252 506 268 506T308 501T361 489T419 466V344Z"  />
<glyph unicode="&#x160;" horiz-adv-x="612" d="M529 470Q514 480 493 493T446 519T390 539T327 547Q285 547 270 531T255 496Q255 475 272 461T333 426Q384 402 425 380T496 332T542 274T558 197Q558 149 539 111T486 46T405 5T302 -9Q295 -9 275 -8T223 -2T151 14T64 45V211Q78 202 99 190T148 165T206 145T271 137Q301 137 318 144T343 159T352 176T354 187Q354 202 346 214T323 236T291 254T251 272Q215 287 181 306T119 350T75 410T58 490Q58 529 72 564T117 627T193 670T302 686Q350 686 389 679T458 661T505 642T529 629V470ZM218 892L307 801L395 892H500L411 723H202L113 892H218Z"  />
<glyph unicode="&#x161;" horiz-adv-x="484" d="M419 344Q411 348 398 356T366 373T324 387T275 394Q258 394 248 390T232 380T224 368T222 359Q222 354 223 349T231 338T250 326T286 310Q331 293 361 276T410 239T437 196T445 145Q445 113 434 85T398 36T336 3T246 -9Q184 -9 138 3T54 30V155Q81 139 119 121T203 103Q227 103 248 110T269 139Q269 148 264 156T246 172T213 189T163 211Q143 220 123 233T85 264T57 305T46 357Q46 383 58 409T95 457T158 492T248 506Q252 506 268 506T308 501T361 489T419 466V344ZM154 732L243 641L331 732H436L347 563H138L49 732H154Z"  />
<glyph unicode="&#x162;" horiz-adv-x="768" d="M734 677V512H486V0H282V512H34V677H734ZM248 -169Q255 -170 260 -170T274 -170Q319 -170 334 -163T350 -138Q350 -129 343 -124T324 -115T297 -112T265 -111L270 -56H330Q372 -56 405 -60T462 -74T497 -103T509 -151Q509 -196 465 -218T349 -241Q323 -241 298 -237T248 -226V-169Z"  />
<glyph unicode="&#x163;" horiz-adv-x="469" d="M435 375H267V216Q267 200 268 185T276 158T297 139T338 131Q367 131 393 141T448 166V29Q436 23 418 17T377 4T330 -5T281 -9Q182 -9 137 39T91 177V375H11V406L247 646H267V497H435V375ZM189 -119Q217 -121 233 -120T257 -117T267 -110T269 -100Q269 -93 259 -86T226 -79V-30Q277 -30 308 -35T356 -51T379 -74T385 -104Q385 -136 355 -161T270 -186Q246 -186 226 -183T189 -176V-119Z"  />
<glyph unicode="&#x164;" horiz-adv-x="768" d="M734 677V512H486V0H282V512H34V677H734ZM295 892L384 801L472 892H577L488 723H279L190 892H295Z"  />
<glyph unicode="&#x165;" horiz-adv-x="673" d="M435 375H267V216Q267 200 268 185T276 158T297 139T338 131Q367 131 393 141T448 166V29Q436 23 418 17T377 4T330 -5T281 -9Q182 -9 137 39T91 177V375H11V406L247 646H267V497H435V375ZM465 379Q488 388 502 402T523 433T533 469T535 506Q499 517 482 539T465 593Q465 611 472 628T492 657T522 678T560 686Q590 686 611 673T647 640T667 595T674 546Q674 517 663 486T627 428T563 380T465 351V379Z"  />
<glyph unicode="&#x166;" horiz-adv-x="768" d="M734 677V512H486V303H658V198H486V0H282V198H100V303H282V512H34V677H734Z"  />
<glyph unicode="&#x167;" horiz-adv-x="469" d="M267 219V216Q267 200 268 185T276 158T297 139T338 131Q367 131 393 141T448 166V29Q436 23 418 17T377 4T330 -5T281 -9Q182 -9 137 39T91 177V219H11V302H91V375H11V406L247 646H267V497H435V375H267V302H435V219H267Z"  />
<glyph unicode="&#x168;" horiz-adv-x="865" d="M279 677V356Q279 303 290 266T322 206T371 172T433 161Q466 161 494 171T542 205T574 265T586 355V677H790V303Q790 211 756 151T668 56T553 6T433 -9Q395 -9 354 -3T273 17T197 55T134 113T91 195T75 303V677H279ZM626 879Q626 803 595 763T511 723Q492 723 470 729T427 744T388 758T357 765Q335 765 327 751T317 723H239Q239 765 250 795T278 843T315 870T353 879Q371 879 393 873T438 858Q460 850 479 843T509 836Q529 836 538 850T547 879H626Z"  />
<glyph unicode="&#x169;" horiz-adv-x="636" d="M404 0V71Q369 33 329 12T228 -9Q159 -9 122 18T69 81T51 152T49 205V497H225V239Q225 227 225 208T232 171T253 140T297 127Q319 127 337 136T368 159T390 185T404 205V497H580V0H404ZM511 719Q511 643 480 603T396 563Q377 563 355 569T312 584T273 598T242 605Q220 605 212 591T202 563H124Q124 605 135 635T163 683T200 710T238 719Q256 719 278 713T323 698Q345 690 364 683T394 676Q414 676 423 690T432 719H511Z"  />
<glyph unicode="&#x16A;" horiz-adv-x="865" d="M279 677V356Q279 303 290 266T322 206T371 172T433 161Q466 161 494 171T542 205T574 265T586 355V677H790V303Q790 211 756 151T668 56T553 6T433 -9Q395 -9 354 -3T273 17T197 55T134 113T91 195T75 303V677H279ZM244 734V854H621V734H244Z"  />
<glyph unicode="&#x16B;" horiz-adv-x="636" d="M404 0V71Q369 33 329 12T228 -9Q159 -9 122 18T69 81T51 152T49 205V497H225V239Q225 227 225 208T232 171T253 140T297 127Q319 127 337 136T368 159T390 185T404 205V497H580V0H404ZM129 574V694H506V574H129Z"  />
<glyph unicode="&#x16C;" horiz-adv-x="865" d="M279 677V356Q279 303 290 266T322 206T371 172T433 161Q466 161 494 171T542 205T574 265T586 355V677H790V303Q790 211 756 151T668 56T553 6T433 -9Q395 -9 354 -3T273 17T197 55T134 113T91 195T75 303V677H279ZM335 892Q337 887 343 876T360 853T389 832T433 823Q460 823 477 831T505 850T521 873T530 892H617Q613 861 598 831T559 776T503 738T432 723Q397 723 365 736T308 772T267 825T248 892H335Z"  />
<glyph unicode="&#x16D;" horiz-adv-x="636" d="M404 0V71Q369 33 329 12T228 -9Q159 -9 122 18T69 81T51 152T49 205V497H225V239Q225 227 225 208T232 171T253 140T297 127Q319 127 337 136T368 159T390 185T404 205V497H580V0H404ZM220 732Q222 727 228 716T245 693T274 672T318 663Q345 663 362 671T390 690T406 713T415 732H502Q498 701 483 671T444 616T388 578T317 563Q282 563 250 576T193 612T152 665T133 732H220Z"  />
<glyph unicode="&#x16E;" horiz-adv-x="865" d="M279 677V356Q279 303 290 266T322 206T371 172T433 161Q466 161 494 171T542 205T574 265T586 355V677H790V303Q790 211 756 151T668 56T553 6T433 -9Q395 -9 354 -3T273 17T197 55T134 113T91 195T75 303V677H279ZM432 923Q453 923 471 915T503 894T525 862T533 823Q533 802 525 784T504 752T472 730T432 722Q411 722 393 730T361 751T340 783T332 823Q332 844 339 862T360 893T392 915T432 923ZM432 875Q410 875 395 860T380 823Q380 801 395 786T432 770Q454 770 469 785T485 823Q485 845 470 860T432 875Z"  />
<glyph unicode="&#x16F;" horiz-adv-x="636" d="M404 0V71Q369 33 329 12T228 -9Q159 -9 122 18T69 81T51 152T49 205V497H225V239Q225 227 225 208T232 171T253 140T297 127Q319 127 337 136T368 159T390 185T404 205V497H580V0H404ZM317 763Q338 763 356 755T388 734T410 702T418 663Q418 642 410 624T389 592T357 570T317 562Q296 562 278 570T246 591T225 623T217 663Q217 684 224 702T245 733T277 755T317 763ZM317 715Q295 715 280 700T265 663Q265 641 280 626T317 610Q339 610 354 625T370 663Q370 685 355 700T317 715Z"  />
<glyph unicode="&#x170;" horiz-adv-x="865" d="M279 677V356Q279 303 290 266T322 206T371 172T433 161Q466 161 494 171T542 205T574 265T586 355V677H790V303Q790 211 756 151T668 56T553 6T433 -9Q395 -9 354 -3T273 17T197 55T134 113T91 195T75 303V677H279ZM557 878H747L567 723H473L557 878ZM321 878H511L331 723H238L321 878Z"  />
<glyph unicode="&#x171;" horiz-adv-x="636" d="M404 0V71Q369 33 329 12T228 -9Q159 -9 122 18T69 81T51 152T49 205V497H225V239Q225 227 225 208T232 171T253 140T297 127Q319 127 337 136T368 159T390 185T404 205V497H580V0H404ZM442 718H632L452 563H358L442 718ZM206 718H396L216 563H123L206 718Z"  />
<glyph unicode="&#x172;" horiz-adv-x="865" d="M279 677V356Q279 303 290 266T322 206T371 172T433 161Q466 161 494 171T542 205T574 265T586 355V677H790V303Q790 219 761 162T686 69T584 15T474 -7Q470 -24 470 -41Q470 -59 477 -72T495 -93T521 -106T551 -110Q563 -110 571 -109T582 -107V-197Q557 -206 532 -207T486 -209Q462 -209 441 -201T404 -177T379 -142T370 -98Q370 -64 374 -41T382 -6Q329 -1 274 17T175 71T103 164T75 303V677H279Z"  />
<glyph unicode="&#x173;" horiz-adv-x="636" d="M530 0Q519 -24 519 -50Q519 -67 535 -82T577 -98Q595 -98 602 -97T620 -91V-175Q600 -185 580 -190T533 -195Q488 -195 458 -166T427 -80Q427 -60 431 -40T447 0H404V71Q369 33 329 12T228 -9Q159 -9 122 18T69 81T51 152T49 205V497H225V239Q225 227 225 208T232 171T253 140T297 127Q319 127 337 136T368 159T390 185T404 205V497H580V0H530Z"  />
<glyph unicode="&#x174;" horiz-adv-x="1190" d="M219 677L360 302L521 677H667L825 302L972 677H1181L888 -9H770L594 390L414 -9H295L8 677H219ZM683 723L595 813L506 723H401L490 892H699L788 723H683Z"  />
<glyph unicode="&#x175;" horiz-adv-x="854" d="M185 497L276 246L373 497H485L583 246L671 497H847L651 0H540L429 271L319 0H208L7 497H185ZM515 563L427 653L338 563H233L322 732H531L620 563H515Z"  />
<glyph unicode="&#x176;" horiz-adv-x="751" d="M218 677L373 464L529 677H745L480 310V0H276V306L6 677H218ZM464 723L376 813L287 723H182L271 892H480L569 723H464Z"  />
<glyph unicode="&#x177;" horiz-adv-x="583" d="M202 497L303 250L418 497H589L251 -226H73L210 65L13 497H202ZM380 563L292 653L203 563H98L187 732H396L485 563H380Z"  />
<glyph unicode="&#x178;" horiz-adv-x="751" d="M218 677L373 464L529 677H745L480 310V0H276V306L6 677H218ZM184 790Q184 817 203 837T251 857Q280 857 299 837T318 790Q318 762 299 743T251 723Q222 723 203 743T184 790ZM433 790Q433 817 452 837T500 857Q529 857 548 837T567 790Q567 762 548 743T500 723Q471 723 452 743T433 790Z"  />
<glyph unicode="&#x179;" horiz-adv-x="729" d="M19 0L369 515H48V677H706L357 162H706V0H19ZM341 878H531L351 723H257L341 878Z"  />
<glyph unicode="&#x17A;" horiz-adv-x="552" d="M34 497H529V481L291 130H524V0H14V16L252 367H34V497ZM253 718H443L263 563H169L253 718Z"  />
<glyph unicode="&#x17B;" horiz-adv-x="729" d="M19 0L369 515H48V677H706L357 162H706V0H19ZM297 790Q297 817 316 837T364 857Q393 857 412 837T431 790Q431 762 412 743T364 723Q335 723 316 743T297 790Z"  />
<glyph unicode="&#x17C;" horiz-adv-x="552" d="M34 497H529V481L291 130H524V0H14V16L252 367H34V497ZM209 630Q209 657 228 677T276 697Q305 697 324 677T343 630Q343 602 324 583T276 563Q247 563 228 583T209 630Z"  />
<glyph unicode="&#x17D;" horiz-adv-x="729" d="M19 0L369 515H48V677H706L357 162H706V0H19ZM276 892L365 801L453 892H558L469 723H260L171 892H276Z"  />
<glyph unicode="&#x17E;" horiz-adv-x="552" d="M34 497H529V481L291 130H524V0H14V16L252 367H34V497ZM188 732L277 641L365 732H470L381 563H172L83 732H188Z"  />
<glyph unicode="&#x192;" horiz-adv-x="594" d="M3 -88Q15 -92 28 -94T62 -96Q86 -96 101 -90T127 -70T144 -32T155 24L201 344H88L106 463H219Q223 491 231 529T263 603T328 662T442 686Q459 686 482 684T549 673L532 551Q514 553 502 554T474 556Q460 556 446 554T419 543T396 515T381 463H492L473 344H364L306 -52Q299 -98 280 -129T227 -186Q208 -200 189 -208T153 -220T121 -225T98 -226Q63 -226 35 -222T-16 -212L3 -88Z"  />
<glyph unicode="&#x1FC;" horiz-adv-x="1113" d="M1054 677V541H759V417H1037V281H759V136H1061V0H555V252H360L212 0H5L433 677H1054ZM555 582L430 369H555V582ZM703 878H893L713 723H619L703 878Z"  />
<glyph unicode="&#x1FD;" horiz-adv-x="834" d="M52 438Q68 448 90 459T138 481T197 499T266 506Q326 506 363 491T423 462Q431 468 442 475T471 489T510 501T562 506Q607 506 650 491T727 443T783 361T804 241V206H484Q486 172 504 152T544 121T589 107T622 103Q651 103 692 113T793 154V42Q741 19 686 5T574 -9Q519 -9 467 6T370 54Q318 19 270 5T175 -9Q140 -9 114 2T71 30T44 70T35 117Q35 157 55 185T105 232T166 262T221 280Q246 287 261 292T286 300T303 306T321 313Q321 335 319 350T310 375T288 389T249 394Q217 394 190 387T138 367T93 339T52 306V438ZM321 237Q293 224 272 214T237 192T215 169T208 139Q208 132 210 123T217 106T230 92T253 86Q279 86 295 96T321 116V237ZM640 293Q639 307 636 325T625 360T601 387T561 398Q526 398 504 373T481 293H640ZM394 718H584L404 563H310L394 718Z"  />
<glyph unicode="&#x1FE;" horiz-adv-x="851" d="M103 -39L46 20L132 102Q88 150 65 207T41 339Q41 405 63 467T133 578T253 656T425 686Q479 686 520 678T590 660T638 638T668 619L748 695L805 637L729 564Q753 537 768 508T793 449T805 392T809 339Q809 273 787 211T717 100T597 21T425 -9Q401 -9 373 -7T314 2T254 20T195 50L103 -39ZM335 185Q358 173 384 169T426 165Q468 165 500 178T555 214T589 269T601 338Q601 364 596 385T583 424L335 185ZM529 485Q506 500 480 506T425 512Q381 512 349 499T294 462T260 407T249 340Q249 336 249 326T252 302T260 272T275 240L529 485ZM424 878H614L434 723H340L424 878Z"  />
<glyph unicode="&#x1FF;" horiz-adv-x="640" d="M551 546L593 508L529 436Q568 399 586 351T605 249Q605 208 591 163T545 79T458 16T323 -9Q286 -9 259 -5T212 5T179 17T158 28L89 -49L47 -12L112 61Q107 66 101 72T84 91Q60 121 48 161T35 246Q35 295 51 342T102 425T190 484T319 506Q362 506 403 498T482 470L551 546ZM380 357Q362 372 346 374T322 377Q294 377 275 367T243 338T226 297T220 248Q220 237 222 221T229 189L380 357ZM261 141Q288 120 321 120Q336 120 353 125T386 146T410 186T420 253Q420 278 417 290T412 308L261 141ZM319 718H509L329 563H235L319 718Z"  />
<glyph unicode="&#x218;" horiz-adv-x="612" d="M529 470Q514 480 493 493T446 519T390 539T327 547Q285 547 270 531T255 496Q255 475 272 461T333 426Q384 402 425 380T496 332T542 274T558 197Q558 149 539 111T486 46T405 5T302 -9Q295 -9 275 -8T223 -2T151 14T64 45V211Q78 202 99 190T148 165T206 145T271 137Q301 137 318 144T343 159T352 176T354 187Q354 202 346 214T323 236T291 254T251 272Q215 287 181 306T119 350T75 410T58 490Q58 529 72 564T117 627T193 670T302 686Q350 686 389 679T458 661T505 642T529 629V470ZM175 -169Q182 -170 187 -170T201 -170Q246 -170 261 -163T277 -138Q277 -129 270 -124T251 -115T224 -112T192 -111L197 -56H257Q299 -56 332 -60T389 -74T424 -103T436 -151Q436 -196 392 -218T276 -241Q250 -241 225 -237T175 -226V-169Z"  />
<glyph unicode="&#x219;" horiz-adv-x="484" d="M419 344Q411 348 398 356T366 373T324 387T275 394Q258 394 248 390T232 380T224 368T222 359Q222 354 223 349T231 338T250 326T286 310Q331 293 361 276T410 239T437 196T445 145Q445 113 434 85T398 36T336 3T246 -9Q184 -9 138 3T54 30V155Q81 139 119 121T203 103Q227 103 248 110T269 139Q269 148 264 156T246 172T213 189T163 211Q143 220 123 233T85 264T57 305T46 357Q46 383 58 409T95 457T158 492T248 506Q252 506 268 506T308 501T361 489T419 466V344ZM150 -119Q178 -121 194 -120T218 -117T228 -110T230 -100Q230 -93 220 -86T187 -79V-30Q238 -30 269 -35T317 -51T340 -74T346 -104Q346 -136 316 -161T231 -186Q207 -186 187 -183T150 -176V-119Z"  />
<glyph unicode="&#x21A;" horiz-adv-x="768" d="M734 677V512H486V0H282V512H34V677H734ZM248 -169Q255 -170 260 -170T274 -170Q319 -170 334 -163T350 -138Q350 -129 343 -124T324 -115T297 -112T265 -111L270 -56H330Q372 -56 405 -60T462 -74T497 -103T509 -151Q509 -196 465 -218T349 -241Q323 -241 298 -237T248 -226V-169Z"  />
<glyph unicode="&#x21B;" horiz-adv-x="469" d="M435 375H267V216Q267 200 268 185T276 158T297 139T338 131Q367 131 393 141T448 166V29Q436 23 418 17T377 4T330 -5T281 -9Q182 -9 137 39T91 177V375H11V406L247 646H267V497H435V375ZM189 -119Q217 -121 233 -120T257 -117T267 -110T269 -100Q269 -93 259 -86T226 -79V-30Q277 -30 308 -35T356 -51T379 -74T385 -104Q385 -136 355 -161T270 -186Q246 -186 226 -183T189 -176V-119Z"  />
<glyph unicode="&#x2C6;" horiz-adv-x="333" d="M255 563L167 653L78 563H-27L62 732H271L360 563H255Z"  />
<glyph unicode="&#x2C7;" horiz-adv-x="333" d="M78 732L167 641L255 732H360L271 563H62L-27 732H78Z"  />
<glyph unicode="&#x2C9;" horiz-adv-x="333" d="M-22 574V694H355V574H-22Z"  />
<glyph unicode="&#x2D8;" horiz-adv-x="333" d="M69 732Q71 727 77 716T94 693T123 672T167 663Q194 663 211 671T239 690T255 713T264 732H351Q347 701 332 671T293 616T237 578T166 563Q131 563 99 576T42 612T1 665T-18 732H69Z"  />
<glyph unicode="&#x2D9;" horiz-adv-x="333" d="M100 630Q100 657 119 677T167 697Q196 697 215 677T234 630Q234 602 215 583T167 563Q138 563 119 583T100 630Z"  />
<glyph unicode="&#x2DA;" horiz-adv-x="333" d="M166 763Q187 763 205 755T237 734T259 702T267 663Q267 642 259 624T238 592T206 570T166 562Q145 562 127 570T95 591T74 623T66 663Q66 684 73 702T94 733T126 755T166 763ZM166 715Q144 715 129 700T114 663Q114 641 129 626T166 610Q188 610 203 625T219 663Q219 685 204 700T166 715Z"  />
<glyph unicode="&#x2DB;" horiz-adv-x="333" d="M196 8Q189 -5 185 -19T181 -50Q181 -67 197 -82T239 -98Q257 -98 264 -97T282 -91V-175Q262 -185 242 -190T195 -195Q150 -195 120 -166T89 -80Q89 -58 94 -37T114 8H196Z"  />
<glyph unicode="&#x2DC;" horiz-adv-x="333" d="M360 719Q360 643 329 603T245 563Q226 563 204 569T161 584T122 598T91 605Q69 605 61 591T51 563H-27Q-27 605 -16 635T12 683T49 710T87 719Q105 719 127 713T172 698Q194 690 213 683T243 676Q263 676 272 690T281 719H360Z"  />
<glyph unicode="&#x2DD;" horiz-adv-x="333" d="M283 718H473L293 563H199L283 718ZM47 718H237L57 563H-36L47 718Z"  />
<glyph unicode="&#x308;" horiz-adv-x="333" d="M-25 630Q-25 657 -6 677T42 697Q71 697 90 677T109 630Q109 602 90 583T42 563Q13 563 -6 583T-25 630ZM224 630Q224 657 243 677T291 697Q320 697 339 677T358 630Q358 602 339 583T291 563Q262 563 243 583T224 630Z"  />
<glyph unicode="&#x37E;" horiz-adv-x="302" d="M35 -137Q60 -128 75 -112T99 -77T110 -38T112 3Q72 14 54 39T35 99Q35 114 41 131T60 164T92 190T139 201Q172 201 196 187T235 151T257 101T265 47Q265 15 253 -19T214 -83T142 -136T35 -168V-137ZM141 506Q162 506 180 498T213 476T236 443T245 401Q245 379 237 360T214 326T181 304T140 295Q119 295 100 303T67 325T44 359T36 400Q36 424 45 443T68 477T102 498T141 506Z"  />
<glyph unicode="&#x387;" horiz-adv-x="281" d="M142 444Q164 444 183 436T216 413T238 380T246 339Q246 317 238 298T216 265T183 242T142 234Q121 234 102 242T68 264T45 298T36 339Q36 361 44 380T67 413T101 436T142 444Z"  />
<glyph unicode="&#x394;" horiz-adv-x="723" d="M20 0V76L234 700H494L703 76V0H20ZM364 505Q362 510 361 515T358 526Q356 532 356 534Q354 527 352 521T348 507L235 145H477L364 505Z"  />
<glyph unicode="&#x3A9;" horiz-adv-x="741" d="M406 0V138Q424 156 441 178T471 229T493 292T502 369Q502 453 469 504T374 556Q308 556 273 505T238 365Q238 323 246 288T269 226T300 176T335 138V0H38V144H167Q143 162 120 186T78 241T47 312T35 402Q35 469 59 526T129 624T237 688T377 712Q458 712 520 689T623 624T685 526T706 406Q706 359 696 321T668 250T626 192T573 144H704V0H406Z"  />
<glyph unicode="&#x3BC;" horiz-adv-x="636" d="M225 -226H49V497H225V237Q225 223 226 204T233 168T255 139T297 127Q317 127 333 134T362 153T385 178T404 203V497H580V0H404V27Q393 16 373 4T309 -9Q276 -9 259 -2T225 15V-226Z"  />
<glyph unicode="&#x3C0;" horiz-adv-x="678" d="M664 21Q650 10 619 1T553 -9Q506 -9 476 7T429 47T406 102T399 163V377H299V156Q299 102 295 67T282 0H107Q118 39 122 79T127 165V376Q112 374 93 367T58 349L10 460Q26 471 47 479T92 494T140 503T186 506H651V377H572V186Q572 157 577 138T600 119Q609 119 616 122T632 131L664 21Z"  />
<glyph unicode="&#x1E80;" horiz-adv-x="1190" d="M219 677L360 302L521 677H667L825 302L972 677H1181L888 -9H770L594 390L414 -9H295L8 677H219ZM608 723L428 878H618L702 723H608Z"  />
<glyph unicode="&#x1E81;" horiz-adv-x="854" d="M185 497L276 246L373 497H485L583 246L671 497H847L651 0H540L429 271L319 0H208L7 497H185ZM430 563L250 718H440L524 563H430Z"  />
<glyph unicode="&#x1E82;" horiz-adv-x="1190" d="M219 677L360 302L521 677H667L825 302L972 677H1181L888 -9H770L594 390L414 -9H295L8 677H219ZM572 878H762L582 723H488L572 878Z"  />
<glyph unicode="&#x1E83;" horiz-adv-x="854" d="M185 497L276 246L373 497H485L583 246L671 497H847L651 0H540L429 271L319 0H208L7 497H185ZM414 718H604L424 563H330L414 718Z"  />
<glyph unicode="&#x1E84;" horiz-adv-x="1190" d="M219 677L360 302L521 677H667L825 302L972 677H1181L888 -9H770L594 390L414 -9H295L8 677H219ZM403 790Q403 817 422 837T470 857Q499 857 518 837T537 790Q537 762 518 743T470 723Q441 723 422 743T403 790ZM652 790Q652 817 671 837T719 857Q748 857 767 837T786 790Q786 762 767 743T719 723Q690 723 671 743T652 790Z"  />
<glyph unicode="&#x1E85;" horiz-adv-x="854" d="M185 497L276 246L373 497H485L583 246L671 497H847L651 0H540L429 271L319 0H208L7 497H185ZM235 630Q235 657 254 677T302 697Q331 697 350 677T369 630Q369 602 350 583T302 563Q273 563 254 583T235 630ZM484 630Q484 657 503 677T551 697Q580 697 599 677T618 630Q618 602 599 583T551 563Q522 563 503 583T484 630Z"  />
<glyph unicode="&#x1EF2;" horiz-adv-x="751" d="M218 677L373 464L529 677H745L480 310V0H276V306L6 677H218ZM388 723L208 878H398L482 723H388Z"  />
<glyph unicode="&#x1EF3;" horiz-adv-x="583" d="M202 497L303 250L418 497H589L251 -226H73L210 65L13 497H202ZM304 563L124 718H314L398 563H304Z"  />
<glyph unicode="&#x2013;" horiz-adv-x="500" d="M506 311V189H-6V311H506Z"  />
<glyph unicode="&#x2014;" horiz-adv-x="1000" d="M1006 311V189H-6V311H1006Z"  />
<glyph unicode="&#x2018;" horiz-adv-x="302" d="M267 655Q242 646 227 630T203 595T192 555T190 515Q230 504 248 479T267 419Q267 399 259 381T238 348T205 326T163 317Q130 317 106 331T67 367T45 417T37 471Q37 502 49 536T88 601T160 654T267 686V655Z"  />
<glyph unicode="&#x2019;" horiz-adv-x="302" d="M35 348Q60 357 75 373T99 408T110 447T112 488Q72 499 54 524T35 584Q35 604 43 622T64 655T97 677T139 686Q172 686 196 672T235 636T257 586T265 532Q265 500 253 466T214 402T142 349T35 317V348Z"  />
<glyph unicode="&#x201A;" horiz-adv-x="302" d="M35 -137Q60 -128 75 -112T99 -77T110 -38T112 3Q72 14 54 39T35 99Q35 119 43 137T64 170T97 192T139 201Q172 201 196 187T235 151T257 101T265 47Q265 15 253 -19T214 -83T142 -136T35 -168V-137Z"  />
<glyph unicode="&#x201C;" horiz-adv-x="562" d="M536 655Q511 646 496 630T472 595T461 555T459 515Q499 504 517 479T536 419Q536 399 528 381T507 348T474 326T432 317Q399 317 375 331T336 367T314 417T306 471Q306 502 318 536T357 601T429 654T536 686V655ZM267 655Q242 646 227 630T203 595T192 555T190 515Q230 504 248 479T267 419Q267 399 259 381T238 348T205 326T163 317Q130 317 106 331T67 367T45 417T37 471Q37 502 49 536T88 601T160 654T267 686V655Z"  />
<glyph unicode="&#x201D;" horiz-adv-x="562" d="M26 348Q51 357 66 373T90 408T101 447T103 488Q63 499 45 524T26 584Q26 604 34 622T55 655T88 677T130 686Q163 686 187 672T226 636T248 586T256 532Q256 500 244 466T205 402T133 349T26 317V348ZM295 348Q320 357 335 373T359 408T370 447T372 488Q332 499 314 524T295 584Q295 604 303 622T324 655T357 677T399 686Q432 686 456 672T495 636T517 586T525 532Q525 500 513 466T474 402T402 349T295 317V348Z"  />
<glyph unicode="&#x201E;" horiz-adv-x="562" d="M26 -137Q51 -128 66 -112T90 -77T101 -38T103 3Q63 14 45 39T26 99Q26 119 34 137T55 170T88 192T130 201Q163 201 187 187T226 151T248 101T256 47Q256 15 244 -19T205 -83T133 -136T26 -168V-137ZM295 -137Q320 -128 335 -112T359 -77T370 -38T372 3Q332 14 314 39T295 99Q295 119 303 137T324 170T357 192T399 201Q432 201 456 187T495 151T517 101T525 47Q525 15 513 -19T474 -83T402 -136T295 -168V-137Z"  />
<glyph unicode="&#x2020;" horiz-adv-x="552" d="M367 -168Q368 -174 368 -183T369 -203Q369 -226 354 -230T307 -235H250Q236 -235 224 -235T202 -231T188 -221T183 -201Q183 -195 183 -187T185 -176L239 367L98 335Q90 333 74 330T49 326Q30 326 25 343T20 380V422Q20 445 23 462T49 480Q56 480 64 479T92 473L239 440L203 620Q201 628 200 639T198 658Q198 677 214 681T260 686H290Q302 686 313 686T332 683T346 674T352 657Q352 649 351 641T344 606L313 440L460 473Q479 478 487 479T503 480Q525 480 528 463T532 422V380Q532 360 527 343T503 326Q495 326 479 329T454 335L313 367L367 -168Z"  />
<glyph unicode="&#x2021;" horiz-adv-x="552" d="M448 484Q478 490 486 491T501 492Q512 492 518 488T526 476T529 461T530 445V404Q530 382 527 365T502 348Q492 348 478 351T460 356L313 385L342 227L313 66L462 97Q474 99 482 101T498 103Q518 103 524 90T530 55V11Q530 5 530 -3T527 -20T518 -35T501 -41Q493 -41 481 -39T465 -36L313 -6L342 -161Q344 -172 346 -185T349 -204Q349 -216 344 -222T330 -231T311 -234T291 -235H255Q249 -235 240 -235T224 -232T211 -225T205 -210Q205 -202 206 -192T210 -172L240 -6L88 -35Q86 -35 80 -36T68 -38T55 -40T47 -41Q38 -41 33 -35T25 -22T23 -7T22 3V50Q22 73 26 88T47 103Q52 103 57 102T81 97L240 66L206 227L240 385L98 356Q95 355 81 352T54 348Q42 348 36 353T26 367T23 385T22 404V456Q22 460 22 466T26 478T35 488T53 492Q59 492 64 491T89 486L240 457L210 613Q206 631 205 640T204 656Q204 679 221 682T268 686H295Q301 686 310 686T327 683T342 675T348 659Q348 641 342 613L313 457L448 484Z"  />
<glyph unicode="&#x2022;" horiz-adv-x="500" d="M250 501Q283 501 312 489T364 454T399 403T412 339Q412 306 400 277T365 225T314 190T250 177Q216 177 187 190T135 225T101 276T88 339Q88 373 101 402T136 454T187 488T250 501Z"  />
<glyph unicode="&#x2026;" horiz-adv-x="1000" d="M500 201Q521 201 540 193T574 170T596 137T605 96Q605 74 597 55T574 22T541 -1T500 -9Q478 -9 459 -1T426 21T403 55T395 96Q395 118 403 137T426 170T459 193T500 201ZM833 201Q855 201 874 193T907 170T929 137T938 96Q938 74 930 55T907 22T874 -1T833 -9Q812 -9 793 -1T759 21T737 55T728 96Q728 118 736 137T759 170T792 193T833 201ZM167 201Q188 201 207 193T241 170T263 137T272 96Q272 74 264 55T241 22T208 -1T167 -9Q145 -9 126 -1T93 21T70 55T62 96Q62 118 70 137T92 170T126 193T167 201Z"  />
<glyph unicode="&#x2030;" horiz-adv-x="1175" d="M218 453Q245 453 264 472T284 518Q284 545 265 564T218 584Q191 584 172 565T153 518Q153 491 172 472T218 453ZM218 686Q253 686 283 673T337 638T373 585T386 519Q386 484 373 454T337 400T284 364T218 351Q183 351 153 364T100 400T64 453T51 519Q51 554 64 584T99 637T152 673T218 686ZM107 -18L596 686H695L207 -18H107ZM956 317Q991 317 1021 304T1075 269T1111 216T1124 150Q1124 115 1111 85T1075 31T1022 -5T956 -18Q921 -18 891 -5T838 31T802 84T789 150Q789 185 802 215T837 268T890 304T956 317ZM956 84Q983 84 1002 103T1022 149Q1022 176 1003 195T956 215Q929 215 910 196T891 149Q891 122 910 103T956 84ZM583 317Q618 317 648 304T702 269T738 216T751 150Q751 115 738 85T702 31T649 -5T583 -18Q548 -18 518 -5T465 31T429 84T416 150Q416 185 429 215T464 268T517 304T583 317ZM583 84Q610 84 629 103T649 149Q649 176 630 195T583 215Q556 215 537 196T518 149Q518 122 537 103T583 84Z"  />
<glyph unicode="&#x2039;" horiz-adv-x="354" d="M179 243L332 0H169L15 243L169 484H332L179 243Z"  />
<glyph unicode="&#x203A;" horiz-adv-x="354" d="M185 484L339 243L185 0H22L175 243L22 484H185Z"  />
<glyph unicode="&#x2044;" horiz-adv-x="103" d="M333 686L-130 -24H-231L232 686H333Z"  />
<glyph unicode="&#x20AC;" horiz-adv-x="622" d="M509 226H276Q293 186 324 161T402 135Q435 135 463 141T515 157T557 178T587 198V41Q560 24 533 14T479 -1T425 -7T371 -9Q313 -9 265 7T178 54T114 128T75 226H2L14 310H63Q62 318 62 324T62 339V365H2L14 449H74Q88 510 117 554T187 628T275 671T374 686Q443 686 497 673T585 645V480Q573 489 556 499T517 520T469 536T411 543Q366 543 332 518T278 449H535L523 365H257Q256 358 256 351T256 336Q256 329 256 323T257 310H521L509 226Z"  />
<glyph unicode="&#x2113;" horiz-adv-x="493" d="M430 38Q404 18 366 1T282 -17Q240 -17 210 -4T159 34T130 92T120 166V211L69 164L29 231L120 314V509Q120 618 168 673T294 728Q331 728 356 716T396 684T418 642T425 597Q425 555 413 517T379 443T329 374T269 309V187Q269 132 285 112T325 91Q345 91 362 101T391 123L430 38ZM343 578Q343 595 336 607T311 620Q291 620 280 601T269 539V418Q284 434 297 454T321 496T337 539T343 578Z"  />
<glyph unicode="&#x2122;" horiz-adv-x="948" d="M409 677V583H270V280H155V583H18V677H409ZM629 677L684 460L742 677H912V280H803V561L728 280H638L564 561V280H455V677H629Z"  />
<glyph unicode="&#x2126;" horiz-adv-x="741" d="M406 0V138Q424 156 441 178T471 229T493 292T502 369Q502 453 469 504T374 556Q308 556 273 505T238 365Q238 323 246 288T269 226T300 176T335 138V0H38V144H167Q143 162 120 186T78 241T47 312T35 402Q35 469 59 526T129 624T237 688T377 712Q458 712 520 689T623 624T685 526T706 406Q706 359 696 321T668 250T626 192T573 144H704V0H406Z"  />
<glyph unicode="&#x212E;" horiz-adv-x="661" d="M158 276V86Q221 25 310 25Q379 25 428 57T512 150Q521 145 530 139T548 128Q526 96 502 70T449 26T386 -2T310 -12Q247 -12 197 10T112 72T59 163T40 276Q40 336 58 388T112 480T196 541T309 564Q373 564 423 542T509 480T563 389T584 276H158ZM462 464Q398 528 308 528Q219 528 158 465V313H462V464Z"  />
<glyph unicode="&#x2153;" horiz-adv-x="812" d="M116 333V677H238V333H116ZM664 686L201 -24H100L563 686H664ZM495 114Q520 95 542 85T593 75Q613 75 629 83T645 107Q645 119 638 126T619 138T593 143T564 145V213Q576 213 589 213T613 217T631 226T638 245Q638 256 627 266T591 277Q583 277 561 273T506 249V330Q519 335 552 344T621 353Q657 353 683 344T726 321T752 290T760 257Q760 237 750 218T715 182Q767 152 767 99Q767 74 756 55T725 22T679 2T624 -5Q606 -5 588 -3T552 4T520 12T495 21V114Z"  />
<glyph unicode="&#x2154;" horiz-adv-x="812" d="M664 686L201 -24H100L563 686H664ZM495 114Q520 95 542 85T593 75Q613 75 629 83T645 107Q645 119 638 126T619 138T593 143T564 145V213Q576 213 589 213T613 217T631 226T638 245Q638 256 627 266T591 277Q583 277 561 273T506 249V330Q519 335 552 344T621 353Q657 353 683 344T726 321T752 290T760 257Q760 237 750 218T715 182Q767 152 767 99Q767 74 756 55T725 22T679 2T624 -5Q606 -5 588 -3T552 4T520 12T495 21V114ZM335 333H20V350Q44 370 66 391T111 434Q143 466 165 494T187 553Q187 573 174 585T136 597Q118 597 102 591T71 577T47 560T33 548V646Q58 660 90 673T168 686Q204 686 230 677T272 652T297 617T305 576Q305 533 281 500T216 423H335V333Z"  />
<glyph unicode="&#x215B;" horiz-adv-x="812" d="M116 333V677H238V333H116ZM664 686L201 -24H100L563 686H664ZM535 178Q510 191 495 208T480 254Q480 270 488 287T514 319T561 343T634 353Q677 353 707 344T755 320T781 288T789 254Q789 225 774 208T733 178Q765 167 782 146T800 95Q800 82 794 65T769 33T719 6T634 -5Q582 -5 550 5T499 31T475 64T468 95Q468 124 485 145T535 178ZM634 208Q649 208 659 218T670 246Q670 259 662 271T634 284Q614 284 607 272T599 246Q599 229 609 219T634 208ZM634 63Q651 63 664 74T677 105Q677 127 664 137T634 148Q617 148 604 138T591 105Q591 84 604 74T634 63Z"  />
<glyph unicode="&#x215C;" horiz-adv-x="812" d="M664 686L201 -24H100L563 686H664ZM535 178Q510 191 495 208T480 254Q480 270 488 287T514 319T561 343T634 353Q677 353 707 344T755 320T781 288T789 254Q789 225 774 208T733 178Q765 167 782 146T800 95Q800 82 794 65T769 33T719 6T634 -5Q582 -5 550 5T499 31T475 64T468 95Q468 124 485 145T535 178ZM634 208Q649 208 659 218T670 246Q670 259 662 271T634 284Q614 284 607 272T599 246Q599 229 609 219T634 208ZM634 63Q651 63 664 74T677 105Q677 127 664 137T634 148Q617 148 604 138T591 105Q591 84 604 74T634 63ZM38 447Q63 428 85 418T136 408Q156 408 172 416T188 440Q188 452 181 459T162 471T136 476T107 478V546Q119 546 132 546T156 550T174 559T181 578Q181 589 170 599T134 610Q126 610 104 606T49 582V663Q62 668 95 677T164 686Q200 686 226 677T269 654T295 623T303 590Q303 570 293 551T258 515Q310 485 310 432Q310 407 299 388T268 355T222 335T167 328Q149 328 131 330T95 337T63 345T38 354V447Z"  />
<glyph unicode="&#x215D;" horiz-adv-x="812" d="M664 686L201 -24H100L563 686H664ZM535 178Q510 191 495 208T480 254Q480 270 488 287T514 319T561 343T634 353Q677 353 707 344T755 320T781 288T789 254Q789 225 774 208T733 178Q765 167 782 146T800 95Q800 82 794 65T769 33T719 6T634 -5Q582 -5 550 5T499 31T475 64T468 95Q468 124 485 145T535 178ZM634 208Q649 208 659 218T670 246Q670 259 662 271T634 284Q614 284 607 272T599 246Q599 229 609 219T634 208ZM634 63Q651 63 664 74T677 105Q677 127 664 137T634 148Q617 148 604 138T591 105Q591 84 604 74T634 63ZM320 592H183L177 542Q185 542 193 542T210 541Q265 536 294 507T323 441Q323 393 285 361T171 328Q101 328 41 355V436Q58 428 85 420T139 411Q168 411 182 420T197 447Q197 464 181 476T122 488Q102 488 89 485T65 479L86 677H320V592Z"  />
<glyph unicode="&#x215E;" horiz-adv-x="812" d="M664 686L201 -24H100L563 686H664ZM535 178Q510 191 495 208T480 254Q480 270 488 287T514 319T561 343T634 353Q677 353 707 344T755 320T781 288T789 254Q789 225 774 208T733 178Q765 167 782 146T800 95Q800 82 794 65T769 33T719 6T634 -5Q582 -5 550 5T499 31T475 64T468 95Q468 124 485 145T535 178ZM634 208Q649 208 659 218T670 246Q670 259 662 271T634 284Q614 284 607 272T599 246Q599 229 609 219T634 208ZM634 63Q651 63 664 74T677 105Q677 127 664 137T634 148Q617 148 604 138T591 105Q591 84 604 74T634 63ZM45 351L164 582H24V677H341V668L163 330L45 351Z"  />
<glyph unicode="&#x2202;" horiz-adv-x="576" d="M561 450Q561 402 556 356T539 265Q523 206 497 156T434 68T353 10T253 -11Q203 -11 163 5T93 49T47 115T31 200Q31 277 54 333T113 425T195 478T285 496Q321 496 347 486T391 459Q392 466 392 471T392 485Q392 541 365 570T290 600Q267 600 242 592T194 571Q186 596 177 629T159 689Q187 708 227 720T313 732Q370 732 415 713T493 658T543 570T561 450ZM253 123Q277 123 297 141T332 189T358 256T374 330Q365 350 351 361T315 373Q294 373 275 359T240 321T215 263T206 190Q206 161 218 142T253 123Z"  />
<glyph unicode="&#x2206;" horiz-adv-x="723" d="M20 0V76L234 700H494L703 76V0H20ZM364 505Q362 510 361 515T358 526Q356 532 356 534Q354 527 352 521T348 507L235 145H477L364 505Z"  />
<glyph unicode="&#x220F;" horiz-adv-x="719" d="M463 -228V520H255V-228H63V690H656V-228H463Z"  />
<glyph unicode="&#x2211;" horiz-adv-x="631" d="M20 -228V-122L256 237L33 579V690H548V531H264L455 240L255 -68H563V-228H20Z"  />
<glyph unicode="&#x2212;" horiz-adv-x="667" d="M608 399V278H59V399H608Z"  />
<glyph unicode="&#x2215;" horiz-adv-x="103" d="M333 686L-130 -24H-231L232 686H333Z"  />
<glyph unicode="&#x2219;" horiz-adv-x="281" d="M142 444Q164 444 183 436T216 413T238 380T246 339Q246 317 238 298T216 265T183 242T142 234Q121 234 102 242T68 264T45 298T36 339Q36 361 44 380T67 413T101 436T142 444Z"  />
<glyph unicode="&#x221A;" horiz-adv-x="513" d="M365 -12H226L121 261L70 226L12 314L194 440L291 180L409 728H528L365 -12Z"  />
<glyph unicode="&#x221E;" horiz-adv-x="767" d="M743 296Q743 253 729 218T689 157T629 117T555 102Q507 102 462 124T382 191Q352 153 309 128T212 102Q179 102 146 113T85 149T41 209T24 294Q24 340 41 375T85 434T145 470T212 482Q268 482 310 457T384 393Q396 408 413 424T451 453T499 474T554 482Q594 482 629 468T689 429T728 370T743 296ZM610 295Q610 323 593 342T543 362Q514 362 493 344T450 293Q469 261 492 242T544 223Q576 223 593 245T610 295ZM224 223Q253 223 276 244T316 293Q297 322 275 342T223 362Q192 362 175 342T157 293Q157 264 175 244T224 223Z"  />
<glyph unicode="&#x222B;" horiz-adv-x="491" d="M396 608Q389 610 380 612T362 614Q339 614 326 598T313 547V-10Q313 -57 303 -97T269 -166T208 -213T116 -230Q104 -230 90 -229T61 -225T35 -219T13 -211L23 -168Q28 -150 33 -127T44 -86Q55 -90 66 -92T88 -95Q138 -95 138 -28V527Q138 575 149 616T184 686T245 733T336 750Q364 750 395 743T441 727Q437 713 432 695T423 663Q419 651 416 639T409 613L396 608Z"  />
<glyph unicode="&#x2248;" horiz-adv-x="583" d="M554 417Q521 366 485 342T394 318Q369 318 339 324T280 349Q260 362 240 370T196 379Q172 379 151 360T113 311L25 417Q41 439 57 459T93 493T136 515T189 524Q222 524 249 517T303 494Q330 478 349 471T389 463Q415 463 437 483T473 526L554 417ZM554 179Q521 128 485 104T394 80Q369 80 339 86T280 111Q260 124 240 132T196 141Q172 141 151 122T113 73L25 179Q41 201 57 221T93 255T136 277T189 286Q222 286 249 279T303 256Q330 240 349 233T389 225Q415 225 437 245T473 288L554 179Z"  />
<glyph unicode="&#x2260;" horiz-adv-x="583" d="M291 112L251 20H92L131 112H66V257H193L235 351H66V496H297L345 610H507L457 496H518V351H394L352 257H518V112H291Z"  />
<glyph unicode="&#x2264;" horiz-adv-x="583" d="M518 149L66 320V455L518 625V477L256 387L518 297V149ZM66 0V131H518V0H66Z"  />
<glyph unicode="&#x2265;" horiz-adv-x="583" d="M66 297L328 387L66 477V625L518 455V320L66 149V297ZM66 0V131H518V0H66Z"  />
<glyph unicode="&#x22C5;" horiz-adv-x="281" d="M142 444Q164 444 183 436T216 413T238 380T246 339Q246 317 238 298T216 265T183 242T142 234Q121 234 102 242T68 264T45 298T36 339Q36 361 44 380T67 413T101 436T142 444Z"  />
<glyph unicode="&#x25CA;" horiz-adv-x="559" d="M493 350L298 0H217L23 349L217 700H298L493 350ZM258 544L154 350L258 157L362 350L258 544Z"  />
<glyph unicode="&#xE000;" horiz-adv-x="594" d="M407 686V0H222V441Q193 421 171 412T124 397V536Q148 548 168 561T206 592T240 631T273 686H407Z"  />
<glyph unicode="&#xF001;" horiz-adv-x="651" d="M498 686Q529 686 550 665T572 612Q572 581 551 560T498 538Q467 538 446 559T424 612Q424 643 445 664T498 686ZM264 352V0H88V352H7V471H88V480Q88 514 97 550T131 617T196 666T301 686Q328 686 343 684T374 678V555Q365 557 353 558T324 560Q296 560 280 542T264 489V471H353V352H264ZM586 497V0H410V497H586Z"  />
<glyph unicode="&#xF002;" horiz-adv-x="651" d="M586 677V0H410V677H586ZM264 352V0H88V352H7V471H88V480Q88 523 100 560T138 626T204 670T301 686Q328 686 344 684T374 678V555Q365 557 353 558T324 560Q296 560 280 542T264 489V471H353V352H264Z"  />
<glyph unicode="&#xF639;" horiz-adv-x="594" d="M33 338Q33 429 55 495T113 603T197 666T297 686Q349 686 396 666T480 604T539 495T561 338Q561 246 539 181T481 73T397 11T297 -9Q245 -9 198 11T114 73T55 180T33 338ZM226 338Q226 304 227 268T235 203T256 154T297 135Q324 135 338 154T359 202T367 268T368 338Q368 367 367 402T359 469T338 522T297 543Q270 543 256 522T235 470T227 403T226 338Z"  />
<glyph unicode="&#xF63A;" horiz-adv-x="578" d="M544 0H30V13Q67 48 108 95T187 188Q209 214 231 242T272 300T301 362T313 429Q313 477 286 505T217 534Q166 534 125 508T52 448V608Q68 618 89 631T138 657T198 677T271 686Q318 686 358 672T429 631T476 565T493 477Q493 441 484 409T463 351T437 305T415 271Q374 210 325 152H544V0Z"  />
<glyph unicode="&#xF63B;" horiz-adv-x="521" d="M32 192Q44 181 61 170T98 148T140 132T187 125Q211 125 229 132T260 150T278 176T284 204Q284 242 255 267T171 294H149V403H175Q203 403 222 411T252 432T268 458T273 482Q273 497 267 511T250 536T223 553T188 560Q152 560 116 547T50 513V643Q85 657 130 671T235 686Q297 686 340 667T411 620T450 561T462 505Q462 482 454 459T434 416T405 380T370 354Q384 346 402 334T435 303T462 255T473 188Q473 132 451 95T394 34T321 1T249 -9Q222 -9 192 -5T133 5T78 21T32 40V192Z"  />
<glyph unicode="&#xF63C;" horiz-adv-x="594" d="M298 0V146H23V275L333 677H478V262H558V146H478V0H298ZM298 262V479L130 262H298Z"  />
<glyph unicode="&#xF63D;" horiz-adv-x="556" d="M486 534H244V418Q253 419 263 420T287 421Q340 421 382 404T453 358T498 291T514 212Q514 169 500 129T455 59T380 10T273 -9Q213 -9 156 6T48 56V202Q61 193 83 181T131 157T184 139T235 131Q263 131 280 140T308 161T321 187T325 211Q325 226 320 242T300 272T260 293T196 302Q156 302 132 295T94 282V677H486V534Z"  />
<glyph unicode="&#xF63E;" horiz-adv-x="594" d="M470 632Q420 590 375 544T298 449Q316 454 343 454Q387 454 427 439T497 395T544 325T562 234Q562 187 544 143T491 66T409 12T301 -9Q234 -9 184 13T101 73T50 159T33 259Q33 317 52 375T107 488T192 593T303 687L470 632ZM386 237Q386 262 378 279T358 307T330 323T299 328Q273 328 256 319T228 295T213 265T209 237Q209 198 233 171T296 143Q321 143 338 153T366 177T381 207T386 237Z"  />
<glyph unicode="&#xF63F;" horiz-adv-x="571" d="M101 41L308 527H34V677H547V657L258 -9L101 41Z"  />
<glyph unicode="&#xF640;" horiz-adv-x="594" d="M142 349Q106 371 81 404T56 494Q56 521 67 554T106 616T180 666T297 686Q369 686 415 666T489 617T527 554T538 494Q538 437 514 405T452 349Q501 324 531 279T561 182Q561 164 553 132T517 68T437 14T297 -9Q208 -9 156 14T76 68T41 131T33 182Q33 234 62 279T142 349ZM297 391Q323 391 345 415T367 481Q367 493 364 508T354 538T333 562T299 572Q278 572 264 563T242 540T231 510T227 481Q227 440 249 416T297 391ZM298 99Q315 99 331 106T359 125T379 157T387 200Q387 225 379 243T357 274T328 293T297 300Q281 300 265 294T236 275T215 243T207 200Q207 173 215 154T237 123T266 105T298 99Z"  />
<glyph unicode="&#xF641;" horiz-adv-x="594" d="M124 45Q174 87 219 133T296 228Q278 223 251 223Q207 223 167 238T97 282T50 352T32 443Q32 490 50 534T103 611T185 665T293 686Q360 686 410 663T493 603T544 517T561 418Q561 359 542 301T487 189T402 84T291 -10L124 45ZM208 440Q208 415 216 398T236 370T264 354T295 349Q321 349 338 358T366 382T381 412T385 440Q385 479 361 506T298 534Q273 534 256 524T228 500T213 470T208 440Z"  />
<glyph unicode="&#xF643;" horiz-adv-x="573" d="M26 254Q26 314 47 363T104 448T188 502T289 521Q344 521 391 503T473 450T527 367T547 257Q547 189 525 139T466 56T383 7T288 -9Q236 -9 189 8T105 60T48 142T26 254ZM287 359Q264 359 248 351T222 329T207 297T202 257Q202 237 206 219T221 186T247 162T286 153Q328 153 349 182T371 259Q371 279 366 297T351 329T325 351T287 359Z"  />
<glyph unicode="&#xF644;" horiz-adv-x="573" d="M247 0V291L109 168V364L280 521H423V0H247Z"  />
<glyph unicode="&#xF645;" horiz-adv-x="573" d="M524 150V0H32V35L172 136Q242 187 284 228T327 312Q327 321 325 331T313 350T288 363T244 369Q198 369 149 347T49 292V458Q85 473 116 485T177 505T238 517T304 521Q362 521 400 508T462 471T495 418T505 355Q505 330 500 308T482 261T448 210T392 150H524Z"  />
<glyph unicode="&#xF646;" horiz-adv-x="573" d="M524 512L376 200Q413 190 439 168T482 119T507 63T515 8Q515 -42 494 -86T435 -163T345 -215T232 -234Q172 -234 128 -221T49 -193V-23Q87 -49 125 -65T219 -82Q243 -82 264 -78T302 -62T329 -34T339 9Q339 29 331 47T308 79T269 101T214 109Q187 109 169 106T141 100L268 362H53V512H524Z"  />
<glyph unicode="&#xF647;" horiz-adv-x="573" d="M494 0V-234H328V0H-3V116L370 521H494V116H577V0H494ZM328 116V292L168 116H328Z"  />
<glyph unicode="&#xF648;" horiz-adv-x="573" d="M537 362H308L283 233Q341 227 380 211T446 172T486 126T507 79T515 39T517 14Q517 -25 504 -69T459 -149T371 -210T232 -234Q174 -234 132 -223T52 -198V-29Q100 -52 143 -67T237 -82Q286 -82 313 -63T341 -8Q341 2 336 18T315 49T269 76T187 87Q177 87 149 86T93 81L162 512H537V362Z"  />
<glyph unicode="&#xF649;" horiz-adv-x="573" d="M460 633Q428 605 400 579T349 528T310 484T286 449Q309 454 336 454Q375 454 413 439T482 396T532 327T551 234Q551 187 533 143T480 66T398 12T290 -9Q235 -9 186 9T101 62T43 146T22 259Q22 326 45 387T107 504T195 606T296 691L460 633ZM375 238Q375 251 371 267T357 297T330 320T288 329Q270 329 254 322T225 303T206 273T198 237Q198 199 221 171T284 143Q321 143 348 167T375 238Z"  />
<glyph unicode="&#xF64A;" horiz-adv-x="573" d="M106 -125L314 362H40V512H553V491L264 -175L106 -125Z"  />
<glyph unicode="&#xF64B;" horiz-adv-x="573" d="M131 349Q118 355 103 368T75 399T54 442T45 494Q45 521 55 554T93 616T167 666T287 686Q354 686 400 667T474 620T515 558T528 494Q528 464 520 440T498 398T470 368T442 349Q475 332 496 311T529 267T545 222T550 182Q550 150 538 116T495 54T414 9T286 -9Q206 -9 155 10T74 58T33 120T22 182Q22 202 27 224T44 268T78 310T131 349ZM286 396Q319 396 338 421T357 481Q357 494 354 509T342 536T321 557T288 566Q267 566 253 558T231 538T220 510T216 481Q216 468 219 453T231 426T253 405T286 396ZM286 126Q323 126 348 150T374 211Q374 248 349 272T286 296Q249 296 224 272T198 211Q198 174 223 150T286 126Z"  />
<glyph unicode="&#xF64C;" horiz-adv-x="573" d="M113 -121Q140 -97 163 -77T207 -35T247 10T287 63Q276 61 266 60T242 58Q198 58 159 74T89 119T40 188T22 278Q22 325 40 369T93 446T175 500T283 521Q350 521 400 498T484 438T534 352T551 253Q551 194 531 136T475 22T389 -85T277 -179L113 -121ZM198 274Q198 260 202 245T216 215T242 192T285 183Q307 183 323 191T351 213T369 243T375 275Q375 313 352 341T289 369Q252 369 225 345T198 274Z"  />
<glyph unicode="&#xF655;" horiz-adv-x="354" d="M12 174Q12 218 25 251T60 307T112 341T176 353Q210 353 240 342T293 308T328 252T341 174Q341 130 328 97T293 41T241 7T176 -5Q142 -5 112 6T60 40T25 96T12 174ZM134 174Q134 157 135 139T140 107T153 84T176 75Q189 75 197 83T211 105T217 136T219 174Q219 191 218 209T212 241T199 265T176 274Q162 274 154 265T142 242T136 209T134 174Z"  />
<glyph unicode="&#xF656;" horiz-adv-x="354" d="M116 0V344H238V0H116Z"  />
<glyph unicode="&#xF657;" horiz-adv-x="354" d="M335 0H20V17Q44 37 66 58T111 101Q143 133 165 161T187 220Q187 240 174 252T136 264Q118 264 102 258T71 244T47 227T33 215V313Q58 327 90 340T168 353Q204 353 230 344T272 319T297 284T305 243Q305 200 281 167T216 90H335V0Z"  />
<glyph unicode="&#xF658;" horiz-adv-x="354" d="M38 114Q63 95 85 85T136 75Q156 75 172 83T188 107Q188 119 181 126T162 138T136 143T107 145V213Q119 213 132 213T156 217T174 226T181 245Q181 256 170 266T134 277Q126 277 104 273T49 249V330Q62 335 95 344T164 353Q200 353 226 344T269 321T295 290T303 257Q303 237 293 218T258 182Q310 152 310 99Q310 74 299 55T268 22T222 2T167 -5Q149 -5 131 -3T95 4T63 12T38 21V114Z"  />
<glyph unicode="&#xF659;" horiz-adv-x="354" d="M181 0V72H10V146L198 348H290V143H337V72H290V0H181ZM181 143V236L94 143H181Z"  />
<glyph unicode="&#xF65A;" horiz-adv-x="354" d="M320 259H183L177 209Q185 209 193 209T210 208Q265 203 294 174T323 108Q323 60 285 28T171 -5Q101 -5 41 22V103Q58 95 85 87T139 78Q168 78 182 87T197 114Q197 131 181 143T122 155Q102 155 89 152T65 146L86 344H320V259Z"  />
<glyph unicode="&#xF65B;" horiz-adv-x="354" d="M295 313Q263 296 237 277T191 234Q217 236 242 229T288 208T320 172T333 122Q333 99 324 77T295 36T247 7T180 -5Q139 -5 109 7T60 38T30 84T20 137Q20 170 33 201T69 261T125 313T197 353L295 313ZM223 123Q223 148 209 160T178 172Q152 172 141 156T130 123Q130 102 143 89T176 75Q199 75 211 90T223 123Z"  />
<glyph unicode="&#xF65C;" horiz-adv-x="354" d="M45 18L164 249H24V344H341V335L163 -3L45 18Z"  />
<glyph unicode="&#xF65D;" horiz-adv-x="354" d="M78 178Q53 191 38 208T23 254Q23 270 31 287T57 319T104 343T177 353Q220 353 250 344T298 320T324 288T332 254Q332 225 317 208T276 178Q308 167 325 146T343 95Q343 82 337 65T312 33T262 6T177 -5Q125 -5 93 5T42 31T18 64T11 95Q11 124 28 145T78 178ZM177 208Q192 208 202 218T213 246Q213 259 205 271T177 284Q157 284 150 272T142 246Q142 229 152 219T177 208ZM177 63Q194 63 207 74T220 105Q220 127 207 137T177 148Q160 148 147 138T134 105Q134 84 147 74T177 63Z"  />
<glyph unicode="&#xF65E;" horiz-adv-x="354" d="M57 35Q89 52 115 71T161 114Q135 112 110 119T64 140T32 176T19 226Q19 248 28 271T57 312T105 341T172 353Q212 353 242 341T292 310T322 264T332 211Q332 178 319 147T283 87T227 35T155 -5L57 35ZM129 225Q129 200 143 188T174 176Q200 176 211 192T222 225Q222 246 209 259T176 273Q153 273 141 258T129 225Z"  />
<glyph unicode="&#xF661;" horiz-adv-x="354" d="M12 507Q12 551 25 584T60 640T112 674T176 686Q210 686 240 675T293 641T328 585T341 507Q341 463 328 430T293 374T241 340T176 328Q142 328 112 339T60 373T25 429T12 507ZM134 507Q134 490 135 472T140 440T153 417T176 408Q189 408 197 416T211 438T217 469T219 507Q219 524 218 542T212 574T199 598T176 607Q162 607 154 598T142 575T136 542T134 507Z"  />
<glyph unicode="&#xF662;" horiz-adv-x="354" d="M116 333V677H238V333H116Z"  />
<glyph unicode="&#xF663;" horiz-adv-x="354" d="M335 333H20V350Q44 370 66 391T111 434Q143 466 165 494T187 553Q187 573 174 585T136 597Q118 597 102 591T71 577T47 560T33 548V646Q58 660 90 673T168 686Q204 686 230 677T272 652T297 617T305 576Q305 533 281 500T216 423H335V333Z"  />
<glyph unicode="&#xF664;" horiz-adv-x="354" d="M38 447Q63 428 85 418T136 408Q156 408 172 416T188 440Q188 452 181 459T162 471T136 476T107 478V546Q119 546 132 546T156 550T174 559T181 578Q181 589 170 599T134 610Q126 610 104 606T49 582V663Q62 668 95 677T164 686Q200 686 226 677T269 654T295 623T303 590Q303 570 293 551T258 515Q310 485 310 432Q310 407 299 388T268 355T222 335T167 328Q149 328 131 330T95 337T63 345T38 354V447Z"  />
<glyph unicode="&#xF665;" horiz-adv-x="354" d="M181 333V405H10V479L198 681H290V476H337V405H290V333H181ZM181 476V569L94 476H181Z"  />
<glyph unicode="&#xF666;" horiz-adv-x="354" d="M320 592H183L177 542Q185 542 193 542T210 541Q265 536 294 507T323 441Q323 393 285 361T171 328Q101 328 41 355V436Q58 428 85 420T139 411Q168 411 182 420T197 447Q197 464 181 476T122 488Q102 488 89 485T65 479L86 677H320V592Z"  />
<glyph unicode="&#xF667;" horiz-adv-x="354" d="M295 646Q263 629 237 610T191 567Q217 569 242 562T288 541T320 505T333 455Q333 432 324 410T295 369T247 340T180 328Q139 328 109 340T60 371T30 417T20 470Q20 503 33 534T69 594T125 646T197 686L295 646ZM223 456Q223 481 209 493T178 505Q152 505 141 489T130 456Q130 435 143 422T176 408Q199 408 211 423T223 456Z"  />
<glyph unicode="&#xF668;" horiz-adv-x="354" d="M45 351L164 582H24V677H341V668L163 330L45 351Z"  />
<glyph unicode="&#xF669;" horiz-adv-x="354" d="M78 511Q53 524 38 541T23 587Q23 603 31 620T57 652T104 676T177 686Q220 686 250 677T298 653T324 621T332 587Q332 558 317 541T276 511Q308 500 325 479T343 428Q343 415 337 398T312 366T262 339T177 328Q125 328 93 338T42 364T18 397T11 428Q11 457 28 478T78 511ZM177 541Q192 541 202 551T213 579Q213 592 205 604T177 617Q157 617 150 605T142 579Q142 562 152 552T177 541ZM177 396Q194 396 207 407T220 438Q220 460 207 470T177 481Q160 481 147 471T134 438Q134 417 147 407T177 396Z"  />
<glyph unicode="&#xF66A;" horiz-adv-x="354" d="M57 368Q89 385 115 404T161 447Q135 445 110 452T64 473T32 509T19 559Q19 581 28 604T57 645T105 674T172 686Q212 686 242 674T292 643T322 597T332 544Q332 511 319 480T283 420T227 368T155 328L57 368ZM129 558Q129 533 143 521T174 509Q200 509 211 525T222 558Q222 579 209 592T176 606Q153 606 141 591T129 558Z"  />
<glyph unicode="&#xF66D;" horiz-adv-x="631" d="M429 0L402 73H206L186 0H2L202 532H396L629 0H429ZM292 355L237 181H363L292 355ZM218 774Q220 769 226 758T243 735T272 714T316 705Q343 705 360 713T388 732T404 755T413 774H500Q496 743 481 713T442 658T386 620T315 605Q280 605 248 618T191 654T150 707T131 774H218Z"  />
<glyph unicode="&#xF66E;" horiz-adv-x="631" d="M429 0L402 73H206L186 0H2L202 532H396L629 0H429ZM292 355L237 181H363L292 355ZM127 616V736H504V616H127Z"  />
<glyph unicode="&#xF66F;" horiz-adv-x="631" d="M568 0Q557 -24 557 -50Q557 -67 573 -82T615 -98Q633 -98 640 -97T658 -91V-175Q638 -185 618 -190T571 -195Q526 -195 496 -166T465 -80Q465 -60 469 -40T485 0H429L402 73H206L186 0H2L202 532H396L629 0H568ZM292 355L237 181H363L292 355Z"  />
<glyph unicode="&#xF670;" horiz-adv-x="845" d="M397 81H229L182 0H0L328 532H799V410H571V325H787V210H571V122H805V0H397V81ZM397 203V379L291 203H397ZM555 760H745L565 605H471L555 760Z"  />
<glyph unicode="&#xF671;" horiz-adv-x="594" d="M544 338Q533 347 518 358T480 380T429 397T360 404Q325 404 299 393T253 363T225 319T215 266Q215 233 226 207T257 164T302 137T355 128Q409 128 456 148T550 194V51Q532 40 511 30T466 11T411 -2T344 -7Q266 -7 208 16T112 77T54 165T34 265Q34 321 55 370T117 457T220 517T364 539Q401 539 430 535T481 524T518 510T544 497V338ZM334 760H524L344 605H250L334 760Z"  />
<glyph unicode="&#xF672;" horiz-adv-x="594" d="M544 338Q533 347 518 358T480 380T429 397T360 404Q325 404 299 393T253 363T225 319T215 266Q215 233 226 207T257 164T302 137T355 128Q409 128 456 148T550 194V51Q532 40 511 30T466 11T411 -2T344 -7Q266 -7 208 16T112 77T54 165T34 265Q34 321 55 370T117 457T220 517T364 539Q401 539 430 535T481 524T518 510T544 497V338ZM249 774L338 683L426 774H531L442 605H233L144 774H249Z"  />
<glyph unicode="&#xF673;" horiz-adv-x="594" d="M544 338Q533 347 518 358T480 380T429 397T360 404Q325 404 299 393T253 363T225 319T215 266Q215 233 226 207T257 164T302 137T355 128Q409 128 456 148T550 194V51Q532 40 511 30T466 11T411 -2T344 -7Q266 -7 208 16T112 77T54 165T34 265Q34 321 55 370T117 457T220 517T364 539Q401 539 430 535T481 524T518 510T544 497V338ZM431 605L343 695L254 605H149L238 774H447L536 605H431Z"  />
<glyph unicode="&#xF674;" horiz-adv-x="594" d="M544 338Q533 347 518 358T480 380T429 397T360 404Q325 404 299 393T253 363T225 319T215 266Q215 233 226 207T257 164T302 137T355 128Q409 128 456 148T550 194V51Q532 40 511 30T466 11T411 -2T344 -7Q266 -7 208 16T112 77T54 165T34 265Q34 321 55 370T117 457T220 517T364 539Q401 539 430 535T481 524T518 510T544 497V338ZM280 672Q280 699 299 719T347 739Q376 739 395 719T414 672Q414 644 395 625T347 605Q318 605 299 625T280 672Z"  />
<glyph unicode="&#xF675;" horiz-adv-x="621" d="M58 532H284Q348 532 396 518T477 481T532 429T566 371T582 313T587 265Q587 231 576 186T531 99T439 29T283 0H58V532ZM232 135H288Q318 135 340 145T376 174T398 215T406 265Q406 331 373 364T288 397H232V135ZM182 774L271 683L359 774H464L375 605H166L77 774H182Z"  />
<glyph unicode="&#xF676;" horiz-adv-x="621" d="M5 230V303H58V532H284Q348 532 396 518T477 481T532 429T566 371T582 313T587 265Q587 231 576 186T531 99T439 29T283 0H58V230H5ZM231 135H288Q322 135 345 147T381 179T400 221T406 265Q406 287 401 310T382 353T345 384T288 397H231V303H316V230H231V135Z"  />
<glyph unicode="&#xF677;" horiz-adv-x="513" d="M467 410H232V330H456V215H232V122H473V0H58V532H467V410ZM159 774Q161 769 167 758T184 735T213 714T257 705Q284 705 301 713T329 732T345 755T354 774H441Q437 743 422 713T383 658T327 620T256 605Q221 605 189 618T132 654T91 707T72 774H159Z"  />
<glyph unicode="&#xF678;" horiz-adv-x="513" d="M467 410H232V330H456V215H232V122H473V0H58V532H467V410ZM168 774L257 683L345 774H450L361 605H152L63 774H168Z"  />
<glyph unicode="&#xF679;" horiz-adv-x="513" d="M467 410H232V330H456V215H232V122H473V0H58V532H467V410ZM197 672Q197 699 216 719T264 739Q293 739 312 719T331 672Q331 644 312 625T264 605Q235 605 216 625T197 672Z"  />
<glyph unicode="&#xF67A;" horiz-adv-x="513" d="M467 410H232V330H456V215H232V122H473V0H58V532H467V410ZM73 616V736H450V616H73Z"  />
<glyph unicode="&#xF67B;" horiz-adv-x="656" d="M334 121Q342 119 351 119T364 118Q387 118 400 127T421 152T431 189T433 233V279Q433 404 355 404Q317 404 285 380T232 314V0H59V532H233V456Q243 466 258 480T295 508T346 530T413 540Q453 540 488 529T549 492T590 426T606 327V215Q606 164 598 123T565 52T497 7T383 -9Q372 -9 358 -8T326 -4L334 121Z"  />
<glyph unicode="&#xF67C;" horiz-adv-x="513" d="M467 410H232V330H456V215H232V122H473V0H393Q382 -24 382 -50Q382 -67 398 -82T440 -98Q458 -98 465 -97T483 -91V-175Q463 -185 443 -190T396 -195Q351 -195 321 -166T290 -80Q290 -60 294 -40T310 0H58V532H467V410Z"  />
<glyph unicode="&#xF67D;" horiz-adv-x="629" d="M566 361Q530 375 479 389T364 404Q295 404 255 366T215 263Q215 195 253 162T351 128Q366 128 377 129T405 135V195H339V295H579V64Q565 53 543 41T492 18T427 0T347 -7Q278 -7 221 12T122 68T57 154T34 265Q34 319 54 369T115 456T218 516T366 539Q395 539 420 537T469 529T516 517T566 502V361ZM262 774Q264 769 270 758T287 735T316 714T360 705Q387 705 404 713T432 732T448 755T457 774H544Q540 743 525 713T486 658T430 620T359 605Q324 605 292 618T235 654T194 707T175 774H262Z"  />
<glyph unicode="&#xF67E;" horiz-adv-x="629" d="M566 361Q530 375 479 389T364 404Q295 404 255 366T215 263Q215 195 253 162T351 128Q366 128 377 129T405 135V195H339V295H579V64Q565 53 543 41T492 18T427 0T347 -7Q278 -7 221 12T122 68T57 154T34 265Q34 319 54 369T115 456T218 516T366 539Q395 539 420 537T469 529T516 517T566 502V361ZM447 605L359 695L270 605H165L254 774H463L552 605H447Z"  />
<glyph unicode="&#xF67F;" horiz-adv-x="629" d="M566 361Q530 375 479 389T364 404Q295 404 255 366T215 263Q215 195 253 162T351 128Q366 128 377 129T405 135V195H339V295H579V64Q565 53 543 41T492 18T427 0T347 -7Q278 -7 221 12T122 68T57 154T34 265Q34 319 54 369T115 456T218 516T366 539Q395 539 420 537T469 529T516 517T566 502V361ZM213 -169Q220 -170 225 -170T239 -170Q284 -170 299 -163T315 -138Q315 -129 308 -124T289 -115T262 -112T230 -111L235 -56H295Q337 -56 370 -60T427 -74T462 -103T474 -151Q474 -196 430 -218T314 -241Q288 -241 263 -237T213 -226V-169Z"  />
<glyph unicode="&#xF680;" horiz-adv-x="629" d="M566 361Q530 375 479 389T364 404Q295 404 255 366T215 263Q215 195 253 162T351 128Q366 128 377 129T405 135V195H339V295H579V64Q565 53 543 41T492 18T427 0T347 -7Q278 -7 221 12T122 68T57 154T34 265Q34 319 54 369T115 456T218 516T366 539Q395 539 420 537T469 529T516 517T566 502V361ZM291 672Q291 699 310 719T358 739Q387 739 406 719T425 672Q425 644 406 625T358 605Q329 605 310 625T291 672Z"  />
<glyph unicode="&#xF681;" horiz-adv-x="656" d="M11 474H58V532H232V474H424V532H598V474H645V401H598V0H424V195H232V0H58V401H11V474ZM424 337V401H232V337H424Z"  />
<glyph unicode="&#xF682;" horiz-adv-x="656" d="M232 532V337H424V532H598V0H424V195H232V0H58V532H232ZM416 605L328 695L239 605H134L223 774H432L521 605H416Z"  />
<glyph unicode="&#xF683;" horiz-adv-x="290" d="M232 0H58V532H232V0ZM48 774Q50 769 56 758T73 735T102 714T146 705Q173 705 190 713T218 732T234 755T243 774H330Q326 743 311 713T272 658T216 620T145 605Q110 605 78 618T21 654T-20 707T-39 774H48Z"  />
<glyph unicode="&#xF684;" horiz-adv-x="594" d="M232 0H58V532H232V0ZM362 532H536V80Q536 29 529 -17T500 -99T439 -156T335 -177Q314 -177 299 -175T265 -170L246 -33H276Q309 -33 326 -27T352 -7T361 32T362 93V532Z"  />
<glyph unicode="&#xF685;" horiz-adv-x="290" d="M232 0H58V532H232V0ZM-43 616V736H334V616H-43Z"  />
<glyph unicode="&#xF686;" horiz-adv-x="290" d="M232 0H180Q169 -24 169 -50Q169 -67 185 -82T227 -98Q245 -98 252 -97T270 -91V-175Q250 -185 230 -190T183 -195Q138 -195 108 -166T77 -80Q77 -60 81 -40T97 0H58V532H232V0Z"  />
<glyph unicode="&#xF687;" horiz-adv-x="290" d="M232 0H58V532H232V0ZM339 761Q339 685 308 645T224 605Q205 605 183 611T140 626T101 640T70 647Q48 647 40 633T30 605H-48Q-48 647 -37 677T-9 725T28 752T66 761Q84 761 106 755T151 740Q173 732 192 725T222 718Q242 718 251 732T260 761H339Z"  />
<glyph unicode="&#xF688;" horiz-adv-x="304" d="M72 532H246V80Q246 29 239 -17T210 -99T149 -156T45 -177Q24 -177 9 -175T-25 -170L-44 -33H-14Q19 -33 36 -27T62 -7T71 32T72 93V532ZM248 605L160 695L71 605H-34L55 774H264L353 605H248Z"  />
<glyph unicode="&#xF689;" horiz-adv-x="621" d="M200 -169Q207 -170 212 -170T226 -170Q271 -170 286 -163T302 -138Q302 -129 295 -124T276 -115T249 -112T217 -111L222 -56H282Q324 -56 357 -60T414 -74T449 -103T461 -151Q461 -196 417 -218T301 -241Q275 -241 250 -237T200 -226V-169ZM232 532V338L380 532H567L388 291L621 0H403L232 213V0H58V532H232Z"  />
<glyph unicode="&#xF68A;" horiz-adv-x="504" d="M232 532V142H486V0H58V532H232ZM199 760H389L209 605H115L199 760Z"  />
<glyph unicode="&#xF68B;" horiz-adv-x="504" d="M309 270Q329 277 341 290T361 318T370 350T371 383Q339 392 324 411T309 460Q309 476 315 491T332 517T359 535T393 542Q420 542 439 531T470 501T488 461T494 418Q494 393 484 366T453 314T396 271T309 245V270ZM232 532V142H486V0H58V532H232Z"  />
<glyph unicode="&#xF68C;" horiz-adv-x="504" d="M146 -169Q153 -170 158 -170T172 -170Q217 -170 232 -163T248 -138Q248 -129 241 -124T222 -115T195 -112T163 -111L168 -56H228Q270 -56 303 -60T360 -74T395 -103T407 -151Q407 -196 363 -218T247 -241Q221 -241 196 -237T146 -226V-169ZM232 532V142H486V0H58V532H232Z"  />
<glyph unicode="&#xF68D;" horiz-adv-x="504" d="M232 532V142H486V0H58V532H232ZM377 416Q411 416 435 393T460 334Q460 301 436 277T377 253Q343 253 319 277T295 334Q295 369 319 392T377 416Z"  />
<glyph unicode="&#xF68E;" horiz-adv-x="651" d="M212 532L419 288V532H593V0H450L232 261V0H58V532H212ZM312 760H502L322 605H228L312 760Z"  />
<glyph unicode="&#xF68F;" horiz-adv-x="651" d="M212 532L419 288V532H593V0H450L232 261V0H58V532H212ZM237 774L326 683L414 774H519L430 605H221L132 774H237Z"  />
<glyph unicode="&#xF690;" horiz-adv-x="651" d="M212 -169Q219 -170 224 -170T238 -170Q283 -170 298 -163T314 -138Q314 -129 307 -124T288 -115T261 -112T229 -111L234 -56H294Q336 -56 369 -60T426 -74T461 -103T473 -151Q473 -196 429 -218T313 -241Q287 -241 262 -237T212 -226V-169ZM212 532L419 288V532H593V0H450L232 261V0H58V532H212Z"  />
<glyph unicode="&#xF691;" horiz-adv-x="667" d="M34 265Q34 317 56 366T117 454T211 515T332 539Q388 539 442 520T538 465T607 379T633 267Q633 211 611 162T548 75T453 15T333 -7Q272 -7 218 13T123 69T58 155T34 265ZM333 384Q309 384 288 375T250 349T225 312T215 266Q215 242 224 221T250 183T287 158T333 148Q357 148 379 157T417 183T442 220T452 266Q452 290 443 311T417 349T379 374T333 384ZM236 774Q238 769 244 758T261 735T290 714T334 705Q361 705 378 713T406 732T422 755T431 774H518Q514 743 499 713T460 658T404 620T333 605Q298 605 266 618T209 654T168 707T149 774H236Z"  />
<glyph unicode="&#xF692;" horiz-adv-x="667" d="M34 265Q34 317 56 366T117 454T211 515T332 539Q388 539 442 520T538 465T607 379T633 267Q633 211 611 162T548 75T453 15T333 -7Q272 -7 218 13T123 69T58 155T34 265ZM333 384Q309 384 288 375T250 349T225 312T215 266Q215 242 224 221T250 183T287 158T333 148Q357 148 379 157T417 183T442 220T452 266Q452 290 443 311T417 349T379 374T333 384ZM458 760H648L468 605H374L458 760ZM222 760H412L232 605H139L222 760Z"  />
<glyph unicode="&#xF693;" horiz-adv-x="667" d="M34 265Q34 317 56 366T117 454T211 515T332 539Q388 539 442 520T538 465T607 379T633 267Q633 211 611 162T548 75T453 15T333 -7Q272 -7 218 13T123 69T58 155T34 265ZM333 384Q309 384 288 375T250 349T225 312T215 266Q215 242 224 221T250 183T287 158T333 148Q357 148 379 157T417 183T442 220T452 266Q452 290 443 311T417 349T379 374T333 384ZM145 616V736H522V616H145Z"  />
<glyph unicode="&#xF694;" horiz-adv-x="667" d="M389 370Q382 374 369 379T333 384Q296 384 270 366T230 322T216 265T229 210L389 370ZM104 86Q93 99 81 116T58 156T41 205T34 265Q34 310 53 358T109 447T202 513T332 539Q398 539 439 523T508 488L565 545L610 500L558 448Q595 416 614 373T633 267Q633 209 611 159T548 72T453 14T333 -7Q274 -7 232 7T152 46L92 -14L48 30L104 86ZM271 166Q282 158 299 153T336 148Q361 148 387 162T431 201T452 258T434 328L271 166ZM332 760H522L342 605H248L332 760Z"  />
<glyph unicode="&#xF695;" horiz-adv-x="585" d="M58 532H311Q382 532 427 518T497 480T531 427T540 366Q540 332 524 293T470 229Q486 217 499 194T534 117Q541 100 545 88T555 63T566 36T581 0H394Q389 18 382 40T368 85T354 125T343 151Q332 172 320 179T290 186H232V0H58V532ZM232 291H284Q319 291 339 307T359 352Q359 380 340 396T285 412H232V291ZM259 760H449L269 605H175L259 760Z"  />
<glyph unicode="&#xF696;" horiz-adv-x="585" d="M58 532H311Q382 532 427 518T497 480T531 427T540 366Q540 332 524 293T470 229Q486 217 499 194T534 117Q541 100 545 88T555 63T566 36T581 0H394Q389 18 382 40T368 85T354 125T343 151Q332 172 320 179T290 186H232V0H58V532ZM232 291H284Q319 291 339 307T359 352Q359 380 340 396T285 412H232V291ZM204 774L293 683L381 774H486L397 605H188L99 774H204Z"  />
<glyph unicode="&#xF697;" horiz-adv-x="585" d="M58 532H311Q382 532 427 518T497 480T531 427T540 366Q540 332 524 293T470 229Q486 217 499 194T534 117Q541 100 545 88T555 63T566 36T581 0H394Q389 18 382 40T368 85T354 125T343 151Q332 172 320 179T290 186H232V0H58V532ZM232 291H284Q319 291 339 307T359 352Q359 380 340 396T285 412H232V291ZM173 -169Q180 -170 185 -170T199 -170Q244 -170 259 -163T275 -138Q275 -129 268 -124T249 -115T222 -112T190 -111L195 -56H255Q297 -56 330 -60T387 -74T422 -103T434 -151Q434 -196 390 -218T274 -241Q248 -241 223 -237T173 -226V-169Z"  />
<glyph unicode="&#xF698;" horiz-adv-x="490" d="M439 363Q425 370 406 379T364 398T314 413T256 419Q226 419 215 406T204 379Q204 369 210 362T231 348T268 333T325 311Q369 294 396 275T437 235T456 194T461 156Q461 120 445 90T401 39T334 5T249 -7Q141 -7 42 37V186Q84 163 115 149T170 128T214 119T252 117Q269 117 278 124T287 144Q287 151 286 158T274 173T240 192T173 219Q126 236 99 256T56 298T37 341T32 380Q32 406 43 434T79 485T145 524T245 539Q310 539 354 527T439 499V363ZM232 760H422L242 605H148L232 760Z"  />
<glyph unicode="&#xF699;" horiz-adv-x="490" d="M439 363Q425 370 406 379T364 398T314 413T256 419Q226 419 215 406T204 379Q204 369 210 362T231 348T268 333T325 311Q369 294 396 275T437 235T456 194T461 156Q461 92 414 49T292 -4L280 -29Q320 -39 341 -60T363 -113Q363 -132 355 -149T327 -180T277 -202T202 -210H106V-143Q124 -143 141 -142T172 -136T194 -125T203 -104Q203 -89 193 -82T156 -73L206 -5Q120 3 42 37V186Q84 163 115 149T170 128T214 119T252 117Q269 117 278 124T287 144Q287 151 286 158T274 173T240 192T173 219Q126 236 99 256T56 298T37 341T32 380Q32 406 43 434T79 485T145 524T245 539Q310 539 354 527T439 499V363Z"  />
<glyph unicode="&#xF69A;" horiz-adv-x="490" d="M439 363Q425 370 406 379T364 398T314 413T256 419Q226 419 215 406T204 379Q204 369 210 362T231 348T268 333T325 311Q369 294 396 275T437 235T456 194T461 156Q461 120 445 90T401 39T334 5T249 -7Q141 -7 42 37V186Q84 163 115 149T170 128T214 119T252 117Q269 117 278 124T287 144Q287 151 286 158T274 173T240 192T173 219Q126 236 99 256T56 298T37 341T32 380Q32 406 43 434T79 485T145 524T245 539Q310 539 354 527T439 499V363ZM325 605L237 695L148 605H43L132 774H341L430 605H325Z"  />
<glyph unicode="&#xF69B;" horiz-adv-x="490" d="M439 363Q425 370 406 379T364 398T314 413T256 419Q226 419 215 406T204 379Q204 369 210 362T231 348T268 333T325 311Q369 294 396 275T437 235T456 194T461 156Q461 120 445 90T401 39T334 5T249 -7Q141 -7 42 37V186Q84 163 115 149T170 128T214 119T252 117Q269 117 278 124T287 144Q287 151 286 158T274 173T240 192T173 219Q126 236 99 256T56 298T37 341T32 380Q32 406 43 434T79 485T145 524T245 539Q310 539 354 527T439 499V363ZM123 -169Q130 -170 135 -170T149 -170Q194 -170 209 -163T225 -138Q225 -129 218 -124T199 -115T172 -112T140 -111L145 -56H205Q247 -56 280 -60T337 -74T372 -103T384 -151Q384 -196 340 -218T224 -241Q198 -241 173 -237T123 -226V-169Z"  />
<glyph unicode="&#xF69C;" horiz-adv-x="572" d="M548 384H373V269H531V186H373V0H199V186H41V269H199V384H24V532H548V384Z"  />
<glyph unicode="&#xF69D;" horiz-adv-x="572" d="M548 384H373V0H199V384H24V532H548V384ZM197 732L286 641L374 732H479L390 563H181L92 732H197Z"  />
<glyph unicode="&#xF69E;" horiz-adv-x="572" d="M170 -169Q177 -170 182 -170T196 -170Q241 -170 256 -163T272 -138Q272 -129 265 -124T246 -115T219 -112T187 -111L192 -56H252Q294 -56 327 -60T384 -74T419 -103T431 -151Q431 -196 387 -218T271 -241Q245 -241 220 -237T170 -226V-169ZM548 384H373V0H199V384H24V532H548V384Z"  />
<glyph unicode="&#xF69F;" horiz-adv-x="646" d="M227 532V265Q227 211 253 180T327 148Q419 148 419 260V532H594V239Q594 171 574 124T518 48T432 6T320 -7Q261 -7 212 7T127 50T72 125T52 234V532H227ZM225 774Q227 769 233 758T250 735T279 714T323 705Q350 705 367 713T395 732T411 755T420 774H507Q503 743 488 713T449 658T393 620T322 605Q287 605 255 618T198 654T157 707T138 774H225Z"  />
<glyph unicode="&#xF6A0;" horiz-adv-x="646" d="M227 532V265Q227 211 253 180T327 148Q419 148 419 260V532H594V239Q594 171 574 124T518 48T432 6T320 -7Q261 -7 212 7T127 50T72 125T52 234V532H227ZM447 760H637L457 605H363L447 760ZM211 760H401L221 605H128L211 760Z"  />
<glyph unicode="&#xF6A1;" horiz-adv-x="646" d="M227 532V265Q227 211 253 180T327 148Q419 148 419 260V532H594V239Q594 171 574 124T518 48T432 6T320 -7Q261 -7 212 7T127 50T72 125T52 234V532H227ZM134 616V736H511V616H134Z"  />
<glyph unicode="&#xF6A2;" horiz-adv-x="646" d="M227 532V265Q227 211 253 180T327 148Q419 148 419 260V532H594V239Q594 176 577 131T529 57T453 13T356 -6Q348 -27 348 -50Q348 -67 364 -82T406 -98Q424 -98 431 -97T449 -91V-175Q429 -185 409 -190T362 -195Q317 -195 287 -166T256 -80Q256 -61 260 -43T274 -5Q224 0 183 16T113 62T68 134T52 234V532H227Z"  />
<glyph unicode="&#xF6A3;" horiz-adv-x="646" d="M227 532V265Q227 211 253 180T327 148Q419 148 419 260V532H594V239Q594 171 574 124T518 48T432 6T320 -7Q261 -7 212 7T127 50T72 125T52 234V532H227ZM322 805Q343 805 361 797T393 776T415 744T423 705Q423 684 415 666T394 634T362 612T322 604Q301 604 283 612T251 633T230 665T222 705Q222 726 229 744T250 775T282 797T322 805ZM322 757Q300 757 285 742T270 705Q270 683 285 668T322 652Q344 652 359 667T375 705Q375 727 360 742T322 757Z"  />
<glyph unicode="&#xF6A4;" horiz-adv-x="646" d="M227 532V265Q227 211 253 180T327 148Q419 148 419 260V532H594V239Q594 171 574 124T518 48T432 6T320 -7Q261 -7 212 7T127 50T72 125T52 234V532H227ZM516 761Q516 685 485 645T401 605Q382 605 360 611T317 626T278 640T247 647Q225 647 217 633T207 605H129Q129 647 140 677T168 725T205 752T243 761Q261 761 283 755T328 740Q350 732 369 725T399 718Q419 718 428 732T437 761H516Z"  />
<glyph unicode="&#xF6A5;" horiz-adv-x="931" d="M633 266L751 532H931L675 -7H602L465 305L329 -7H255L0 532H179L297 266L415 532H515L633 266ZM484 760H674L494 605H400L484 760Z"  />
<glyph unicode="&#xF6A6;" horiz-adv-x="931" d="M633 266L751 532H931L675 -7H602L465 305L329 -7H255L0 532H179L297 266L415 532H515L633 266ZM554 605L466 695L377 605H272L361 774H570L659 605H554Z"  />
<glyph unicode="&#xF6A7;" horiz-adv-x="931" d="M633 266L751 532H931L675 -7H602L465 305L329 -7H255L0 532H179L297 266L415 532H515L633 266ZM274 672Q274 699 293 719T341 739Q370 739 389 719T408 672Q408 644 389 625T341 605Q312 605 293 625T274 672ZM523 672Q523 699 542 719T590 739Q619 739 638 719T657 672Q657 644 638 625T590 605Q561 605 542 625T523 672Z"  />
<glyph unicode="&#xF6A8;" horiz-adv-x="931" d="M633 266L751 532H931L675 -7H602L465 305L329 -7H255L0 532H179L297 266L415 532H515L633 266ZM449 605L269 760H459L543 605H449Z"  />
<glyph unicode="&#xF6A9;" horiz-adv-x="589" d="M188 532L294 340L401 532H589L382 209V0H208V209L0 532H188ZM383 605L295 695L206 605H101L190 774H399L488 605H383Z"  />
<glyph unicode="&#xF6AA;" horiz-adv-x="589" d="M188 532L294 340L401 532H589L382 209V0H208V209L0 532H188ZM288 605L108 760H298L382 605H288Z"  />
<glyph unicode="&#xF6AB;" horiz-adv-x="559" d="M14 0L266 388H31V532H533L285 144H541V0H14ZM266 760H456L276 605H182L266 760Z"  />
<glyph unicode="&#xF6AC;" horiz-adv-x="559" d="M14 0L266 388H31V532H533L285 144H541V0H14ZM212 672Q212 699 231 719T279 739Q308 739 327 719T346 672Q346 644 327 625T279 605Q250 605 231 625T212 672Z"  />
<glyph unicode="&#xF6AD;" horiz-adv-x="290" d="M232 0H58V532H232V0ZM78 672Q78 699 97 719T145 739Q174 739 193 719T212 672Q212 644 193 625T145 605Q116 605 97 625T78 672Z"  />
<glyph unicode="&#xF6D6;" horiz-adv-x="325" d="M70 0V677H255V0H70Z"  />
<glyph unicode="&#xF6DC;" horiz-adv-x="325" d="M70 0V677H255V0H70Z"  />
<glyph unicode="&#xF6F9;" horiz-adv-x="504" d="M337 475V349L232 265V142H486V0H58V127L4 84V212L58 255V532H232V391L337 475Z"  />
<glyph unicode="&#xF6FA;" horiz-adv-x="848" d="M803 410H575V331H791V216H575V122H808V0H336Q271 0 216 16T120 67T57 151T34 269Q34 335 56 384T118 467T213 516T336 532H803V410ZM401 410H366Q289 410 252 372T215 265Q215 203 252 163T366 122H401V410Z"  />
<glyph unicode="&#xF6FD;" horiz-adv-x="490" d="M439 363Q425 370 406 379T364 398T314 413T256 419Q226 419 215 406T204 379Q204 369 210 362T231 348T268 333T325 311Q369 294 396 275T437 235T456 194T461 156Q461 120 445 90T401 39T334 5T249 -7Q141 -7 42 37V186Q84 163 115 149T170 128T214 119T252 117Q269 117 278 124T287 144Q287 151 286 158T274 173T240 192T173 219Q126 236 99 256T56 298T37 341T32 380Q32 406 43 434T79 485T145 524T245 539Q310 539 354 527T439 499V363ZM157 774L246 683L334 774H439L350 605H141L52 774H157Z"  />
<glyph unicode="&#xF6FF;" horiz-adv-x="559" d="M14 0L266 388H31V532H533L285 144H541V0H14ZM191 774L280 683L368 774H473L384 605H175L86 774H191Z"  />
<glyph unicode="&#xF726;" horiz-adv-x="571" d="M579 0H388L356 35Q328 21 295 7T212 -7Q159 -7 124 7T69 43T40 91T31 140Q31 178 52 213T137 278Q127 290 118 301T101 325T88 354T83 392Q83 410 92 435T124 484T181 523T269 539Q315 539 346 527T398 495T427 451T436 404Q436 376 421 354T387 315T348 287T322 272L382 209Q401 222 413 244T431 287H587Q575 263 564 242T539 201T508 162T466 122L579 0ZM265 333Q283 343 292 352T306 370T310 384T310 395Q310 408 300 419T267 430Q245 430 235 419T225 392Q225 375 237 361T265 333ZM207 198Q185 183 178 172T171 150Q171 134 182 122T223 110Q238 110 249 113T275 124L207 198Z"  />
<glyph unicode="&#xF730;" horiz-adv-x="573" d="M26 254Q26 314 47 363T104 448T188 502T289 521Q344 521 391 503T473 450T527 367T547 257Q547 189 525 139T466 56T383 7T288 -9Q236 -9 189 8T105 60T48 142T26 254ZM287 359Q264 359 248 351T222 329T207 297T202 257Q202 237 206 219T221 186T247 162T286 153Q328 153 349 182T371 259Q371 279 366 297T351 329T325 351T287 359Z"  />
<glyph unicode="&#xF731;" horiz-adv-x="469" d="M199 0V291L61 168V364L232 521H375V0H199Z"  />
<glyph unicode="&#xF732;" horiz-adv-x="573" d="M527 150V0H35V35L175 136Q245 187 287 228T330 312Q330 321 328 331T316 350T291 363T247 369Q201 369 152 347T52 292V458Q88 473 119 485T180 505T241 517T307 521Q365 521 403 508T465 471T498 418T508 355Q508 330 503 308T485 261T451 210T395 150H527Z"  />
<glyph unicode="&#xF733;" horiz-adv-x="520" d="M505 512L357 200Q394 190 420 168T463 119T488 63T496 8Q496 -42 475 -86T416 -163T326 -215T213 -234Q153 -234 109 -221T30 -193V-23Q68 -49 106 -65T200 -82Q224 -82 245 -78T283 -62T310 -34T320 9Q320 29 312 47T289 79T250 101T195 109Q168 109 150 106T122 100L249 362H34V512H505Z"  />
<glyph unicode="&#xF734;" horiz-adv-x="591" d="M502 0V-234H336V0H5V116L378 521H502V116H585V0H502ZM336 116V292L176 116H336Z"  />
<glyph unicode="&#xF735;" horiz-adv-x="510" d="M500 362H271L246 233Q304 227 343 211T409 172T449 126T470 79T478 39T480 14Q480 -25 467 -69T422 -149T334 -210T195 -234Q137 -234 95 -223T15 -198V-29Q63 -52 106 -67T200 -82Q249 -82 276 -63T304 -8Q304 2 299 18T278 49T232 76T150 87Q140 87 112 86T56 81L125 512H500V362Z"  />
<glyph unicode="&#xF736;" horiz-adv-x="569" d="M458 633Q426 605 398 579T347 528T308 484T284 449Q307 454 334 454Q373 454 411 439T480 396T530 327T549 234Q549 187 531 143T478 66T396 12T288 -9Q233 -9 184 9T99 62T41 146T20 259Q20 326 43 387T105 504T193 606T294 691L458 633ZM373 238Q373 251 369 267T355 297T328 320T286 329Q268 329 252 322T223 303T204 273T196 237Q196 199 219 171T282 143Q319 143 346 167T373 238Z"  />
<glyph unicode="&#xF737;" horiz-adv-x="552" d="M98 -125L306 362H32V512H545V491L256 -175L98 -125Z"  />
<glyph unicode="&#xF738;" horiz-adv-x="568" d="M129 349Q116 355 101 368T73 399T52 442T43 494Q43 521 53 554T91 616T165 666T285 686Q352 686 398 667T472 620T513 558T526 494Q526 464 518 440T496 398T468 368T440 349Q473 332 494 311T527 267T543 222T548 182Q548 150 536 116T493 54T412 9T284 -9Q204 -9 153 10T72 58T31 120T20 182Q20 202 25 224T42 268T76 310T129 349ZM284 396Q317 396 336 421T355 481Q355 494 352 509T340 536T319 557T286 566Q265 566 251 558T229 538T218 510T214 481Q214 468 217 453T229 426T251 405T284 396ZM284 126Q321 126 346 150T372 211Q372 248 347 272T284 296Q247 296 222 272T196 211Q196 174 221 150T284 126Z"  />
<glyph unicode="&#xF739;" horiz-adv-x="569" d="M111 -121Q138 -97 161 -77T205 -35T245 10T285 63Q274 61 264 60T240 58Q196 58 157 74T87 119T38 188T20 278Q20 325 38 369T91 446T173 500T281 521Q348 521 398 498T482 438T532 352T549 253Q549 194 529 136T473 22T387 -85T275 -179L111 -121ZM196 274Q196 260 200 245T214 215T240 192T283 183Q305 183 321 191T349 213T367 243T373 275Q373 313 350 341T287 369Q250 369 223 345T196 274Z"  />
<glyph unicode="&#xF761;" horiz-adv-x="631" d="M429 0L402 73H206L186 0H2L202 532H396L629 0H429ZM292 355L237 181H363L292 355Z"  />
<glyph unicode="&#xF762;" horiz-adv-x="594" d="M58 532H327Q393 532 433 520T494 489T523 445T530 397Q530 371 523 354T506 324T485 304T466 291Q485 285 502 275T532 250T552 213T560 161Q560 129 550 100T515 49T451 14T350 0H58V532ZM232 114H301Q315 114 329 115T356 120T376 135T384 163Q384 181 378 192T361 208T339 216T316 218H232V114ZM229 418V323H290Q301 323 312 324T333 330T348 344T354 371Q354 389 348 398T333 412T312 417T289 418H229Z"  />
<glyph unicode="&#xF763;" horiz-adv-x="594" d="M544 338Q533 347 518 358T480 380T429 397T360 404Q325 404 299 393T253 363T225 319T215 266Q215 233 226 207T257 164T302 137T355 128Q409 128 456 148T550 194V51Q532 40 511 30T466 11T411 -2T344 -7Q266 -7 208 16T112 77T54 165T34 265Q34 321 55 370T117 457T220 517T364 539Q401 539 430 535T481 524T518 510T544 497V338Z"  />
<glyph unicode="&#xF764;" horiz-adv-x="621" d="M58 532H284Q348 532 396 518T477 481T532 429T566 371T582 313T587 265Q587 231 576 186T531 99T439 29T283 0H58V532ZM232 135H288Q318 135 340 145T376 174T398 215T406 265Q406 331 373 364T288 397H232V135Z"  />
<glyph unicode="&#xF765;" horiz-adv-x="513" d="M467 410H232V330H456V215H232V122H473V0H58V532H467V410Z"  />
<glyph unicode="&#xF766;" horiz-adv-x="488" d="M448 410H232V307H448V185H232V0H58V532H448V410Z"  />
<glyph unicode="&#xF767;" horiz-adv-x="629" d="M566 361Q530 375 479 389T364 404Q295 404 255 366T215 263Q215 195 253 162T351 128Q366 128 377 129T405 135V195H339V295H579V64Q565 53 543 41T492 18T427 0T347 -7Q278 -7 221 12T122 68T57 154T34 265Q34 319 54 369T115 456T218 516T366 539Q395 539 420 537T469 529T516 517T566 502V361Z"  />
<glyph unicode="&#xF768;" horiz-adv-x="656" d="M232 532V337H424V532H598V0H424V195H232V0H58V532H232Z"  />
<glyph unicode="&#xF769;" horiz-adv-x="290" d="M232 0H58V532H232V0Z"  />
<glyph unicode="&#xF76A;" horiz-adv-x="304" d="M72 532H246V80Q246 29 239 -17T210 -99T149 -156T45 -177Q24 -177 9 -175T-25 -170L-44 -33H-14Q19 -33 36 -27T62 -7T71 32T72 93V532Z"  />
<glyph unicode="&#xF76B;" horiz-adv-x="621" d="M232 532V338L380 532H567L388 291L621 0H403L232 213V0H58V532H232Z"  />
<glyph unicode="&#xF76C;" horiz-adv-x="504" d="M232 532V142H486V0H58V532H232Z"  />
<glyph unicode="&#xF76D;" horiz-adv-x="730" d="M547 532H672V0H498V262L373 117H356L228 262V0H58V532H182L365 332L547 532Z"  />
<glyph unicode="&#xF76E;" horiz-adv-x="651" d="M212 532L419 288V532H593V0H450L232 261V0H58V532H212Z"  />
<glyph unicode="&#xF76F;" horiz-adv-x="667" d="M34 265Q34 317 56 366T117 454T211 515T332 539Q388 539 442 520T538 465T607 379T633 267Q633 211 611 162T548 75T453 15T333 -7Q272 -7 218 13T123 69T58 155T34 265ZM333 384Q309 384 288 375T250 349T225 312T215 266Q215 242 224 221T250 183T287 158T333 148Q357 148 379 157T417 183T442 220T452 266Q452 290 443 311T417 349T379 374T333 384Z"  />
<glyph unicode="&#xF770;" horiz-adv-x="557" d="M58 532H347Q393 532 428 516T485 474T519 419T531 361Q531 329 520 297T486 240T428 199T347 183H232V0H58V532ZM232 303H288Q297 303 308 304T331 310T349 327T357 360Q357 379 350 390T331 405T309 411T288 412H232V303Z"  />
<glyph unicode="&#xF771;" horiz-adv-x="667" d="M527 -137Q460 -121 415 -105T338 -71T281 -33T230 10Q189 23 154 46T92 102T50 175T34 263Q34 314 55 363T114 452T208 515T332 539Q388 539 442 520T538 465T607 379T633 267Q633 186 592 124T476 25Q487 15 509 6T557 -11T607 -26T645 -36L527 -137ZM333 384Q309 384 288 375T250 349T225 312T215 266Q215 242 224 221T250 183T287 158T333 148Q357 148 379 157T417 183T442 220T452 266Q452 290 443 311T417 349T379 374T333 384Z"  />
<glyph unicode="&#xF772;" horiz-adv-x="585" d="M58 532H311Q382 532 427 518T497 480T531 427T540 366Q540 332 524 293T470 229Q486 217 499 194T534 117Q541 100 545 88T555 63T566 36T581 0H394Q389 18 382 40T368 85T354 125T343 151Q332 172 320 179T290 186H232V0H58V532ZM232 291H284Q319 291 339 307T359 352Q359 380 340 396T285 412H232V291Z"  />
<glyph unicode="&#xF773;" horiz-adv-x="490" d="M439 363Q425 370 406 379T364 398T314 413T256 419Q226 419 215 406T204 379Q204 369 210 362T231 348T268 333T325 311Q369 294 396 275T437 235T456 194T461 156Q461 120 445 90T401 39T334 5T249 -7Q141 -7 42 37V186Q84 163 115 149T170 128T214 119T252 117Q269 117 278 124T287 144Q287 151 286 158T274 173T240 192T173 219Q126 236 99 256T56 298T37 341T32 380Q32 406 43 434T79 485T145 524T245 539Q310 539 354 527T439 499V363Z"  />
<glyph unicode="&#xF774;" horiz-adv-x="572" d="M548 384H373V0H199V384H24V532H548V384Z"  />
<glyph unicode="&#xF775;" horiz-adv-x="646" d="M227 532V265Q227 211 253 180T327 148Q419 148 419 260V532H594V239Q594 171 574 124T518 48T432 6T320 -7Q261 -7 212 7T127 50T72 125T52 234V532H227Z"  />
<glyph unicode="&#xF776;" horiz-adv-x="592" d="M2 532H181L295 263L411 532H590L337 -7H254L2 532Z"  />
<glyph unicode="&#xF777;" horiz-adv-x="931" d="M633 266L751 532H931L675 -7H602L465 305L329 -7H255L0 532H179L297 266L415 532H515L633 266Z"  />
<glyph unicode="&#xF778;" horiz-adv-x="670" d="M228 277L19 532H233L335 379L437 532H650L441 277L668 0H455L335 174L215 0H2L228 277Z"  />
<glyph unicode="&#xF779;" horiz-adv-x="589" d="M188 532L294 340L401 532H589L382 209V0H208V209L0 532H188Z"  />
<glyph unicode="&#xF77A;" horiz-adv-x="559" d="M14 0L266 388H31V532H533L285 144H541V0H14Z"  />
<glyph unicode="&#xF7E0;" horiz-adv-x="631" d="M429 0L402 73H206L186 0H2L202 532H396L629 0H429ZM292 355L237 181H363L292 355ZM329 605L149 760H339L423 605H329Z"  />
<glyph unicode="&#xF7E1;" horiz-adv-x="631" d="M429 0L402 73H206L186 0H2L202 532H396L629 0H429ZM292 355L237 181H363L292 355ZM298 760H488L308 605H214L298 760Z"  />
<glyph unicode="&#xF7E2;" horiz-adv-x="631" d="M429 0L402 73H206L186 0H2L202 532H396L629 0H429ZM292 355L237 181H363L292 355ZM388 605L300 695L211 605H106L195 774H404L493 605H388Z"  />
<glyph unicode="&#xF7E3;" horiz-adv-x="631" d="M429 0L402 73H206L186 0H2L202 532H396L629 0H429ZM292 355L237 181H363L292 355ZM509 761Q509 685 478 645T394 605Q375 605 353 611T310 626T271 640T240 647Q218 647 210 633T200 605H122Q122 647 133 677T161 725T198 752T236 761Q254 761 276 755T321 740Q343 732 362 725T392 718Q412 718 421 732T430 761H509Z"  />
<glyph unicode="&#xF7E4;" horiz-adv-x="631" d="M429 0L402 73H206L186 0H2L202 532H396L629 0H429ZM292 355L237 181H363L292 355ZM108 672Q108 699 127 719T175 739Q204 739 223 719T242 672Q242 644 223 625T175 605Q146 605 127 625T108 672ZM357 672Q357 699 376 719T424 739Q453 739 472 719T491 672Q491 644 472 625T424 605Q395 605 376 625T357 672Z"  />
<glyph unicode="&#xF7E5;" horiz-adv-x="631" d="M429 0L402 73H206L186 0H2L202 532H396L629 0H429ZM292 355L237 181H363L292 355ZM299 805Q320 805 338 797T370 776T392 744T400 705Q400 684 392 666T371 634T339 612T299 604Q278 604 260 612T228 633T207 665T199 705Q199 726 206 744T227 775T259 797T299 805ZM299 757Q277 757 262 742T247 705Q247 683 262 668T299 652Q321 652 336 667T352 705Q352 727 337 742T299 757Z"  />
<glyph unicode="&#xF7E6;" horiz-adv-x="845" d="M397 81H229L182 0H0L328 532H799V410H571V325H787V210H571V122H805V0H397V81ZM397 203V379L291 203H397Z"  />
<glyph unicode="&#xF7E7;" horiz-adv-x="594" d="M367 -29Q407 -39 428 -60T450 -113Q450 -132 442 -149T414 -180T364 -202T289 -210H193V-143Q211 -143 228 -142T259 -136T281 -125T290 -104Q290 -89 278 -81T243 -73L294 -4Q232 3 184 26T102 86T52 168T34 265Q34 321 55 370T117 457T220 517T364 539Q401 539 430 535T481 524T518 510T544 497V338Q533 347 518 358T480 380T429 397T360 404Q325 404 299 393T253 363T225 319T215 266Q215 233 226 207T257 164T302 137T355 128Q409 128 456 148T550 194V51Q532 40 515 31T479 15T435 3T378 -5L367 -29Z"  />
<glyph unicode="&#xF7E8;" horiz-adv-x="513" d="M467 410H232V330H456V215H232V122H473V0H58V532H467V410ZM270 605L90 760H280L364 605H270Z"  />
<glyph unicode="&#xF7E9;" horiz-adv-x="513" d="M467 410H232V330H456V215H232V122H473V0H58V532H467V410ZM255 760H445L265 605H171L255 760Z"  />
<glyph unicode="&#xF7EA;" horiz-adv-x="513" d="M467 410H232V330H456V215H232V122H473V0H58V532H467V410ZM345 605L257 695L168 605H63L152 774H361L450 605H345Z"  />
<glyph unicode="&#xF7EB;" horiz-adv-x="513" d="M467 410H232V330H456V215H232V122H473V0H58V532H467V410ZM65 672Q65 699 84 719T132 739Q161 739 180 719T199 672Q199 644 180 625T132 605Q103 605 84 625T65 672ZM314 672Q314 699 333 719T381 739Q410 739 429 719T448 672Q448 644 429 625T381 605Q352 605 333 625T314 672Z"  />
<glyph unicode="&#xF7EC;" horiz-adv-x="290" d="M232 0H58V532H232V0ZM159 605L-21 760H169L253 605H159Z"  />
<glyph unicode="&#xF7ED;" horiz-adv-x="290" d="M232 0H58V532H232V0ZM128 760H318L138 605H44L128 760Z"  />
<glyph unicode="&#xF7EE;" horiz-adv-x="290" d="M232 0H58V532H232V0ZM234 605L146 695L57 605H-48L41 774H250L339 605H234Z"  />
<glyph unicode="&#xF7EF;" horiz-adv-x="290" d="M232 0H58V532H232V0ZM-46 672Q-46 699 -27 719T21 739Q50 739 69 719T88 672Q88 644 69 625T21 605Q-8 605 -27 625T-46 672ZM203 672Q203 699 222 719T270 739Q299 739 318 719T337 672Q337 644 318 625T270 605Q241 605 222 625T203 672Z"  />
<glyph unicode="&#xF7F0;" horiz-adv-x="621" d="M5 230V303H58V532H284Q348 532 396 518T477 481T532 429T566 371T582 313T587 265Q587 231 576 186T531 99T439 29T283 0H58V230H5ZM231 135H288Q322 135 345 147T381 179T400 221T406 265Q406 287 401 310T382 353T345 384T288 397H231V303H316V230H231V135Z"  />
<glyph unicode="&#xF7F1;" horiz-adv-x="651" d="M212 532L419 288V532H593V0H450L232 261V0H58V532H212ZM519 761Q519 685 488 645T404 605Q385 605 363 611T320 626T281 640T250 647Q228 647 220 633T210 605H132Q132 647 143 677T171 725T208 752T246 761Q264 761 286 755T331 740Q353 732 372 725T402 718Q422 718 431 732T440 761H519Z"  />
<glyph unicode="&#xF7F2;" horiz-adv-x="667" d="M34 265Q34 317 56 366T117 454T211 515T332 539Q388 539 442 520T538 465T607 379T633 267Q633 211 611 162T548 75T453 15T333 -7Q272 -7 218 13T123 69T58 155T34 265ZM333 384Q309 384 288 375T250 349T225 312T215 266Q215 242 224 221T250 183T287 158T333 148Q357 148 379 157T417 183T442 220T452 266Q452 290 443 311T417 349T379 374T333 384ZM347 605L167 760H357L441 605H347Z"  />
<glyph unicode="&#xF7F3;" horiz-adv-x="667" d="M34 265Q34 317 56 366T117 454T211 515T332 539Q388 539 442 520T538 465T607 379T633 267Q633 211 611 162T548 75T453 15T333 -7Q272 -7 218 13T123 69T58 155T34 265ZM333 384Q309 384 288 375T250 349T225 312T215 266Q215 242 224 221T250 183T287 158T333 148Q357 148 379 157T417 183T442 220T452 266Q452 290 443 311T417 349T379 374T333 384ZM332 760H522L342 605H248L332 760Z"  />
<glyph unicode="&#xF7F4;" horiz-adv-x="667" d="M34 265Q34 317 56 366T117 454T211 515T332 539Q388 539 442 520T538 465T607 379T633 267Q633 211 611 162T548 75T453 15T333 -7Q272 -7 218 13T123 69T58 155T34 265ZM333 384Q309 384 288 375T250 349T225 312T215 266Q215 242 224 221T250 183T287 158T333 148Q357 148 379 157T417 183T442 220T452 266Q452 290 443 311T417 349T379 374T333 384ZM422 605L334 695L245 605H140L229 774H438L527 605H422Z"  />
<glyph unicode="&#xF7F5;" horiz-adv-x="667" d="M34 265Q34 317 56 366T117 454T211 515T332 539Q388 539 442 520T538 465T607 379T633 267Q633 211 611 162T548 75T453 15T333 -7Q272 -7 218 13T123 69T58 155T34 265ZM333 384Q309 384 288 375T250 349T225 312T215 266Q215 242 224 221T250 183T287 158T333 148Q357 148 379 157T417 183T442 220T452 266Q452 290 443 311T417 349T379 374T333 384ZM527 761Q527 685 496 645T412 605Q393 605 371 611T328 626T289 640T258 647Q236 647 228 633T218 605H140Q140 647 151 677T179 725T216 752T254 761Q272 761 294 755T339 740Q361 732 380 725T410 718Q430 718 439 732T448 761H527Z"  />
<glyph unicode="&#xF7F6;" horiz-adv-x="667" d="M34 265Q34 317 56 366T117 454T211 515T332 539Q388 539 442 520T538 465T607 379T633 267Q633 211 611 162T548 75T453 15T333 -7Q272 -7 218 13T123 69T58 155T34 265ZM333 384Q309 384 288 375T250 349T225 312T215 266Q215 242 224 221T250 183T287 158T333 148Q357 148 379 157T417 183T442 220T452 266Q452 290 443 311T417 349T379 374T333 384ZM142 672Q142 699 161 719T209 739Q238 739 257 719T276 672Q276 644 257 625T209 605Q180 605 161 625T142 672ZM391 672Q391 699 410 719T458 739Q487 739 506 719T525 672Q525 644 506 625T458 605Q429 605 410 625T391 672Z"  />
<glyph unicode="&#xF7F8;" horiz-adv-x="667" d="M389 370Q382 374 369 379T333 384Q296 384 270 366T230 322T216 265T229 210L389 370ZM104 86Q93 99 81 116T58 156T41 205T34 265Q34 310 53 358T109 447T202 513T332 539Q398 539 439 523T508 488L565 545L610 500L558 448Q595 416 614 373T633 267Q633 209 611 159T548 72T453 14T333 -7Q274 -7 232 7T152 46L92 -14L48 30L104 86ZM271 166Q282 158 299 153T336 148Q361 148 387 162T431 201T452 258T434 328L271 166Z"  />
<glyph unicode="&#xF7F9;" horiz-adv-x="646" d="M227 532V265Q227 211 253 180T327 148Q419 148 419 260V532H594V239Q594 171 574 124T518 48T432 6T320 -7Q261 -7 212 7T127 50T72 125T52 234V532H227ZM337 605L157 760H347L431 605H337Z"  />
<glyph unicode="&#xF7FA;" horiz-adv-x="646" d="M227 532V265Q227 211 253 180T327 148Q419 148 419 260V532H594V239Q594 171 574 124T518 48T432 6T320 -7Q261 -7 212 7T127 50T72 125T52 234V532H227ZM322 760H512L332 605H238L322 760Z"  />
<glyph unicode="&#xF7FB;" horiz-adv-x="646" d="M227 532V265Q227 211 253 180T327 148Q419 148 419 260V532H594V239Q594 171 574 124T518 48T432 6T320 -7Q261 -7 212 7T127 50T72 125T52 234V532H227ZM412 605L324 695L235 605H130L219 774H428L517 605H412Z"  />
<glyph unicode="&#xF7FC;" horiz-adv-x="646" d="M227 532V265Q227 211 253 180T327 148Q419 148 419 260V532H594V239Q594 171 574 124T518 48T432 6T320 -7Q261 -7 212 7T127 50T72 125T52 234V532H227ZM132 672Q132 699 151 719T199 739Q228 739 247 719T266 672Q266 644 247 625T199 605Q170 605 151 625T132 672ZM381 672Q381 699 400 719T448 739Q477 739 496 719T515 672Q515 644 496 625T448 605Q419 605 400 625T381 672Z"  />
<glyph unicode="&#xF7FD;" horiz-adv-x="589" d="M188 532L294 340L401 532H589L382 209V0H208V209L0 532H188ZM293 760H483L303 605H209L293 760Z"  />
<glyph unicode="&#xF7FE;" horiz-adv-x="557" d="M58 532H232V441H347Q392 441 426 425T484 383T519 328T531 270Q531 238 520 206T486 149T428 108T347 92H232V0H58V532ZM232 212H288Q297 212 308 213T331 219T349 236T357 269Q357 288 350 299T331 314T309 320T288 321H232V212Z"  />
<glyph unicode="&#xF7FF;" horiz-adv-x="589" d="M188 532L294 340L401 532H589L382 209V0H208V209L0 532H188ZM103 672Q103 699 122 719T170 739Q199 739 218 719T237 672Q237 644 218 625T170 605Q141 605 122 625T103 672ZM352 672Q352 699 371 719T419 739Q448 739 467 719T486 672Q486 644 467 625T419 605Q390 605 371 625T352 672Z"  />
<glyph unicode="&#xFB00;" horiz-adv-x="691" d="M586 352V0H410V352H264V0H88V352H7V471H88V480Q88 515 98 551T132 618T198 667T301 686Q328 686 350 683T389 677V551Q375 554 358 557T324 560Q296 560 280 542T264 489V471H410V480Q410 515 420 551T454 618T520 667T623 686Q650 686 672 683T711 677V551Q697 554 680 557T646 560Q618 560 602 542T586 489V471H675V352H586Z"  />
<glyph unicode="&#xFB01;" horiz-adv-x="651" d="M498 686Q529 686 550 665T572 612Q572 581 551 560T498 538Q467 538 446 559T424 612Q424 643 445 664T498 686ZM264 352V0H88V352H7V471H88V480Q88 514 97 550T131 617T196 666T301 686Q328 686 343 684T374 678V555Q365 557 353 558T324 560Q296 560 280 542T264 489V471H353V352H264ZM586 497V0H410V497H586Z"  />
<glyph unicode="&#xFB02;" horiz-adv-x="651" d="M586 677V0H410V677H586ZM264 352V0H88V352H7V471H88V480Q88 523 100 560T138 626T204 670T301 686Q328 686 344 684T374 678V555Q365 557 353 558T324 560Q296 560 280 542T264 489V471H353V352H264Z"  />
<glyph unicode="&#xFB03;" horiz-adv-x="973" d="M586 352V0H410V352H264V0H88V352H7V471H88V480Q88 515 98 551T132 618T198 667T301 686Q328 686 350 683T389 677V551Q375 554 358 557T324 560Q296 560 280 542T264 489V471H410V480Q410 514 419 550T453 617T518 666T623 686Q650 686 665 684T696 678V555Q687 557 675 558T646 560Q618 560 602 542T586 489V471H675V352H586ZM908 497V0H732V497H908ZM820 686Q851 686 872 665T894 612Q894 581 873 560T820 538Q789 538 768 559T746 612Q746 643 767 664T820 686Z"  />
<glyph unicode="&#xFB04;" horiz-adv-x="973" d="M586 352V0H410V352H264V0H88V352H7V471H88V480Q88 515 98 551T132 618T198 667T301 686Q328 686 350 683T389 677V551Q375 554 358 557T324 560Q296 560 280 542T264 489V471H410V480Q410 523 422 560T460 626T526 670T623 686Q650 686 666 684T696 678V555Q687 557 675 558T646 560Q618 560 602 542T586 489V471H675V352H586ZM908 677V0H732V677H908Z"  />

</font>
</defs>
</svg>
